<?xml version="1.0" encoding="UTF-8"?>
<svg width="48px" height="48px" viewBox="0 0 48 48" version="1.1" xmlns="http://www.w3.org/2000/svg" xmlns:xlink="http://www.w3.org/1999/xlink">
    <!-- Generator: Sketch 56.3 (81716) - https://sketch.com -->
    <title>Group 2</title>
    <desc>Created with Sketch.</desc>
    <defs>
        <path d="M12.7955788,11.867443 C11.7578605,11.867443 10.8812,10.6424553 10.8812,9.19230238 C10.8812,7.74214941 11.7578605,6.51684595 12.7955788,6.51684595 C13.8332971,6.51684595 14.7099576,7.74214941 14.7099576,9.19230238 C14.7099576,10.6424553 13.8332971,11.867443 12.7955788,11.867443 Z M12.7955788,4.93784664 C10.8695154,4.93784664 9.30220073,6.8462252 9.30220073,9.19230238 C9.30220073,11.5380638 10.8695154,13.4464423 12.7955788,13.4464423 C14.721958,13.4464423 16.2889569,11.5380638 16.2889569,9.19230238 C16.2889569,6.8462252 14.721958,4.93784664 12.7955788,4.93784664 Z M24.9800849,11.2181585 L23.0947597,11.2181585 L23.0947597,2.92114872 L7.16739366,2.92114872 L7.16739366,1.57899931 L24.9800849,1.57899931 L24.9800849,11.2181585 Z M21.5157604,14.4206849 L19.8000197,14.4206849 C20.0681338,13.6675022 20.7092075,13.0737985 21.5157604,12.8353696 L21.5157604,14.4206849 Z M21.5157604,6.08577914 C20.7092075,5.84735024 20.0681338,5.2536465 19.8000197,4.50014803 L21.5157604,4.50014803 L21.5157604,6.08577914 Z M7.05244251,14.4206849 C6.72022106,12.8009474 5.38754564,11.5257476 3.70275338,11.2165795 L3.70275338,7.70425343 C5.38754564,7.39508536 6.72022106,6.11988552 7.05244251,4.50014803 L18.1657555,4.50014803 C18.4979769,6.11988552 19.8309681,7.39508536 21.5157604,7.70425343 L21.5157604,11.2165795 C19.8309681,11.5257476 18.4979769,12.8009474 18.1657555,14.4206849 L7.05244251,14.4206849 Z M3.70275338,14.4206849 L3.70275338,12.8353696 C4.50899043,13.0737985 5.15006415,13.6675022 5.41849403,14.4206849 L3.70275338,14.4206849 Z M3.70275338,4.50014803 L5.41849403,4.50014803 C5.15006415,5.2536465 4.50899043,5.84735024 3.70275338,6.08577914 L3.70275338,4.50014803 Z M26.5590842,0 L5.58839436,0 L5.58839436,2.92114872 L0,2.92114872 L0,4.50014803 L2.12375407,4.50014803 L2.12375407,16 L23.0947597,16 L23.0947597,12.7971578 L26.5590842,12.7971578 L26.5590842,0 L26.5590842,0 Z" id="path-1"></path>
        <rect id="path-3" x="0" y="0" width="48" height="48"></rect>
    </defs>
    <g id="Symbols" stroke="none" stroke-width="1" fill="none" fill-rule="evenodd">
        <g id="icon/Budget">
            <g id="Group-2">
                <g id="color/light-grey" fill="#F5F5F5">
                    <rect id="Rectangle" x="0" y="0" width="48" height="48"></rect>
                </g>
                <g id="Group" transform="translate(11.000000, 16.000000)">
                    <mask id="mask-2" fill="white">
                        <use xlink:href="#path-1"></use>
                    </mask>
                    <use id="money2_black" fill="#000000" xlink:href="#path-1"></use>
                    <g id="color/berlin" mask="url(#mask-2)">
                        <g transform="translate(-11.000000, -16.000000)">
                            <mask id="mask-4" fill="white">
                                <use xlink:href="#path-3"></use>
                            </mask>
                            <use id="Rectangle-Copy" stroke="none" fill="#FFA400" fill-rule="evenodd" xlink:href="#path-3"></use>
                        </g>
                    </g>
                </g>
            </g>
        </g>
    </g>
</svg>