<?xml version="1.0" encoding="UTF-8"?>
<svg width="48px" height="48px" viewBox="0 0 48 48" version="1.1" xmlns="http://www.w3.org/2000/svg" xmlns:xlink="http://www.w3.org/1999/xlink">
    <!-- Generator: Sketch 56.3 (81716) - https://sketch.com -->
    <title>Group 2</title>
    <desc>Created with Sketch.</desc>
    <defs>
        <path d="M15.5350423,3.35765712 C18.2880595,6.11095266 18.2880595,10.4241244 15.5350423,13.1774199 L14.5514243,12.193802 C16.7526695,9.99227853 16.7526695,6.54307676 14.5514243,4.34155334 L15.5350423,3.35765712 Z M18.3573441,0.535077041 C22.6212653,4.79872004 22.6212653,11.736357 18.3573441,16 L17.3737261,15.016382 C21.0947793,11.2950506 21.0947793,5.24030469 17.3737261,1.51897325 L18.3573441,0.535077041 Z M10.6088832,14.1749504 L10.6088832,1.43744565 C8.42795033,1.72265313 6.19220201,3.2944941 5.30736322,5.24893047 L5.29985044,5.26562554 C5.28204236,5.30513721 4.99766965,5.95930576 4.96845327,7.06312824 L3.57775382,7.02639908 C3.59222288,6.4818615 3.65705541,6.02302529 3.73468749,5.65768147 L2.68456749,5.65768147 C1.92243748,5.65768147 1.39125596,6.51413864 1.39125596,7.28266843 L1.39125596,8.83920559 C1.39125596,9.60829189 2.01676463,10.2338006 2.78557268,10.2338006 L5.12371744,10.2338006 L5.30875448,10.6425516 C6.15964662,12.5215819 8.31804111,13.9323154 10.6088832,14.1749504 Z M4.24277416,4.26642552 C5.5697541,1.80696324 8.52199923,-3.48165941e-13 11.3045111,-3.48165941e-13 L12.0001391,-3.48165941e-13 L12.0001391,15.6034921 L11.3045111,15.6034921 C8.36395256,15.6034921 5.53163368,13.9876874 4.24500017,11.6250565 L2.78557268,11.6250565 C1.2496261,11.6250565 -3.43547413e-12,10.3754304 -3.43547413e-12,8.83920559 L-3.43547413e-12,7.28266843 C-3.43547413e-12,5.82602344 1.07877987,4.26642552 2.68456749,4.26642552 L4.24277416,4.26642552 Z" id="path-1"></path>
        <rect id="path-3" x="0" y="0" width="48" height="48"></rect>
    </defs>
    <g id="Symbols" stroke="none" stroke-width="1" fill="none" fill-rule="evenodd">
        <g id="icon/Sprachkurse">
            <g id="Group-2">
                <g id="color/light-grey" fill="#F5F5F5">
                    <rect id="Rectangle" x="0" y="0" width="48" height="48"></rect>
                </g>
                <g id="Group" transform="translate(13.000000, 16.000000)">
                    <mask id="mask-2" fill="white">
                        <use xlink:href="#path-1"></use>
                    </mask>
                    <use id="Combined-Shape" fill="#000000" xlink:href="#path-1"></use>
                    <g id="color/berlin" mask="url(#mask-2)">
                        <g transform="translate(-13.000000, -16.000000)">
                            <mask id="mask-4" fill="white">
                                <use xlink:href="#path-3"></use>
                            </mask>
                            <use id="Rectangle-Copy" stroke="none" fill="#FFA400" fill-rule="evenodd" xlink:href="#path-3"></use>
                        </g>
                    </g>
                </g>
            </g>
        </g>
    </g>
</svg>