<?xml version="1.0" encoding="UTF-8"?>
<svg width="48px" height="48px" viewBox="0 0 48 48" version="1.1" xmlns="http://www.w3.org/2000/svg" xmlns:xlink="http://www.w3.org/1999/xlink">
    <!-- Generator: Sketch 56.3 (81716) - https://sketch.com -->
    <title>Group</title>
    <desc>Created with Sketch.</desc>
    <defs>
        <path d="M14.0859701,8.18746269 C14.086209,8.17050746 14.0871642,8.15379104 14.0871642,8.13683582 C14.0869254,8.08310448 14.0840597,8.03176119 14.0823881,7.97898507 C14.081194,7.94483582 14.0809552,7.91092537 14.0792836,7.87701493 C14.0752239,7.78722388 14.0685373,7.69958209 14.0604179,7.61289552 C14.0575522,7.58161194 14.055403,7.55008955 14.0522985,7.51856716 C14.0499104,7.49683582 14.046806,7.47558209 14.0444179,7.45432836 C13.7423284,4.76537313 11.8261493,2.44131343 8.96644776,1.72752239 C6.73289552,1.16680597 4.41050746,1.79462687 2.89743284,3.34877612 C2.62877612,3.62483582 2.38519403,3.93050746 2.17265672,4.26340299 L1.48895522,5.31844776 L2.14925373,5.74304478 C1.71725373,6.56167164 1.46555224,7.55056716 1.46555224,8.54065672 C1.46555224,8.97719403 1.51450746,9.40226866 1.60453731,9.8118209 C1.6680597,10.1215522 1.74638806,10.3632239 1.8039403,10.5096119 C2.00453731,11.0748657 2.28752239,11.6004776 2.64071642,12.0711642 C3.80370149,13.7311045 5.67379104,14.838209 7.78459701,14.7672836 C9.45886567,14.7109254 10.9728955,14.0250746 12.0974328,12.9294328 C12.6932537,12.368 13.1978507,11.6690149 13.5675224,10.8312836 C13.8822687,10.0522985 14.0463284,9.26256716 14.0792836,8.48907463 C14.08,8.47450746 14.0802388,8.4601791 14.0809552,8.44608955 C14.0840597,8.35964179 14.086209,8.27319403 14.0859701,8.18746269 Z M15.3215522,8.0439403 C15.3256119,8.14423881 15.3282388,8.24501493 15.3282388,8.34626866 C15.3282388,12.5151045 11.9436418,15.8946866 7.7681194,15.8946866 C3.59307463,15.8946866 0.208238806,12.5151045 0.208238806,8.34626866 C0.208238806,7.88322388 0.250268657,7.43020896 0.330268657,6.99032836 C0.445134328,6.31928358 0.655283582,5.64585075 0.970268657,4.98507463 C0.788776119,4.85373134 0.537074627,4.6760597 0.355343284,4.54447761 C4.46973134,-2.98340299 15.1562985,0.0107462687 15.3215522,8.0439403 Z M8.00095522,3.69337313 L8.00095522,7.95223881 L11.649194,7.95223881 L11.649194,9.38507463 L6.5681194,9.38507463 L6.5681194,3.69337313 L8.00095522,3.69337313 Z" id="path-1"></path>
        <rect id="path-3" x="0" y="0" width="48" height="48"></rect>
    </defs>
    <g id="Symbols" stroke="none" stroke-width="1" fill="none" fill-rule="evenodd">
        <g id="icon/Arbeitszeit">
            <g id="Group">
                <g id="color/light-grey" fill="#F5F5F5">
                    <rect id="Rectangle" x="0" y="0" width="48" height="48"></rect>
                </g>
                <g id="time_white" transform="translate(16.000000, 16.000000)">
                    <mask id="mask-2" fill="white">
                        <use xlink:href="#path-1"></use>
                    </mask>
                    <use id="Combined-Shape" fill="#FFA400" xlink:href="#path-1"></use>
                    <g id="color/berlin" mask="url(#mask-2)">
                        <g transform="translate(-16.000000, -16.000000)">
                            <mask id="mask-4" fill="white">
                                <use xlink:href="#path-3"></use>
                            </mask>
                            <use id="Rectangle-Copy" stroke="none" fill="#FFA400" fill-rule="evenodd" xlink:href="#path-3"></use>
                        </g>
                    </g>
                </g>
            </g>
        </g>
    </g>
</svg>