<?xml version="1.0" encoding="UTF-8"?>
<svg width="48px" height="48px" viewBox="0 0 48 48" version="1.1" xmlns="http://www.w3.org/2000/svg" xmlns:xlink="http://www.w3.org/1999/xlink">
    <!-- Generator: Sketch 56.3 (81716) - https://sketch.com -->
    <title>Image</title>
    <desc>Created with Sketch.</desc>
    <defs>
        <polygon id="path-1" points="0.0568047337 0.0661703888 28.1183432 0.0661703888 28.1183432 15.5738627 0.0568047337 15.5738627"></polygon>
        <path d="M26.6011916,12.0505377 L24.8064014,12.0505377 C24.474752,10.8889523 23.3996985,10.0341098 22.1246843,10.0341098 C20.8499736,10.0341098 19.7746165,10.8889523 19.4429672,12.0505377 L19.1883892,12.0505377 L19.1883892,2.64968094 L20.5095248,2.64968094 L20.5095248,7.56479921 L25.4508873,7.56479921 L26.166376,8.08276686 L25.0922327,8.08276686 L25.0922327,9.5893627 L26.6011916,9.5893627 L26.6011916,12.0505377 Z M22.1246843,14.0672669 C21.7086813,14.0672669 21.3418341,13.8650817 21.1097099,13.5571335 C20.950409,13.3462101 20.8527044,13.0873769 20.8527044,12.8038356 C20.8527044,12.5208969 20.950409,12.2614611 21.1097099,12.0505377 C21.3418341,11.7431921 21.7086813,11.5407056 22.1246843,11.5407056 C22.5409907,11.5407056 22.9075345,11.7431921 23.1396587,12.0505377 C23.299263,12.2614611 23.3969676,12.5208969 23.3969676,12.8038356 C23.3969676,13.0873769 23.299263,13.3462101 23.1396587,13.5571335 C22.9075345,13.8650817 22.5409907,14.0672669 22.1246843,14.0672669 Z M22.0266763,2.64968094 L22.9457667,2.64968094 L24.4820344,6.05820337 L22.0266763,6.05820337 L22.0266763,2.64968094 Z M3.61270453,8.08306818 L17.6712376,8.08306818 L17.6712376,1.57276623 L3.61270453,1.57276623 L3.61270453,8.08306818 Z M17.6712376,12.0505377 L9.6430785,12.0505377 C9.31142918,10.8889523 8.23607216,10.0341098 6.96136143,10.0341098 C5.6866507,10.0341098 4.61129368,10.8889523 4.27964435,12.0505377 L3.61270453,12.0505377 L3.61270453,9.5893627 L17.6712376,9.5893627 L17.6712376,12.0505377 Z M7.97603238,13.5571335 C7.7439082,13.8650817 7.37736438,14.0672669 6.96136143,14.0672669 C6.54535847,14.0672669 6.17851123,13.8650817 5.94608361,13.5571335 C5.78708613,13.3462101 5.68907814,13.0873769 5.68907814,12.8038356 C5.68907814,12.5208969 5.78708613,12.2614611 5.94608361,12.0505377 C6.17851123,11.7431921 6.54535847,11.5407056 6.96136143,11.5407056 C7.37736438,11.5407056 7.7439082,11.7431921 7.97603238,12.0505377 C8.13563673,12.2614611 8.23334129,12.5208969 8.23334129,12.8038356 C8.23334129,13.0873769 8.13563673,13.3462101 7.97603238,13.5571335 Z M26.305954,6.31914577 L24.1279312,1.58542163 L23.9288809,1.1430851 L19.1883892,1.1430851 L19.1883892,0.0661703888 L2.09555298,0.0661703888 L2.09555298,12.0505377 L0.0568047337,12.0505377 L0.0568047337,13.5571335 L4.27964435,13.5571335 C4.61129368,14.7193215 5.6866507,15.5738627 6.96136143,15.5738627 C8.23607216,15.5738627 9.31142918,14.7193215 9.6430785,13.5571335 L19.4429672,13.5571335 C19.7746165,14.7193215 20.8499736,15.5738627 22.1246843,15.5738627 C23.3996985,15.5738627 24.474752,14.7193215 24.8064014,13.5571335 L28.1183432,13.5571335 L28.1183432,7.63139074 L26.305954,6.31914577 L26.305954,6.31914577 Z" id="path-3"></path>
        <rect id="path-5" x="0" y="0" width="48" height="48"></rect>
    </defs>
    <g id="Symbols" stroke="none" stroke-width="1" fill="none" fill-rule="evenodd">
        <g id="icon/Umzugsservice">
            <g id="Image">
                <g id="color/light-grey" fill="#F5F5F5">
                    <rect id="Rectangle" x="0" y="0" width="48" height="48"></rect>
                </g>
                <g id="truck_white" transform="translate(10.000000, 16.000000)">
                    <mask id="mask-2" fill="white">
                        <use xlink:href="#path-1"></use>
                    </mask>
                    <g id="Clip-2"></g>
                    <mask id="mask-4" fill="white">
                        <use xlink:href="#path-3"></use>
                    </mask>
                    <use id="Fill-1" fill="#000000" xlink:href="#path-3"></use>
                    <g id="color/berlin" mask="url(#mask-4)">
                        <g transform="translate(-10.000000, -16.000000)">
                            <mask id="mask-6" fill="white">
                                <use xlink:href="#path-5"></use>
                            </mask>
                            <use id="Rectangle-Copy" stroke="none" fill="#FFA400" fill-rule="evenodd" xlink:href="#path-5"></use>
                        </g>
                    </g>
                </g>
            </g>
        </g>
    </g>
</svg>