<?xml version="1.0" encoding="utf-8"?>
<!-- Generator: Adobe Illustrator 28.0.0, SVG Export Plug-In . SVG Version: 6.00 Build 0)  -->
<svg version="1.1" id="Ebene_1" xmlns="http://www.w3.org/2000/svg" xmlns:xlink="http://www.w3.org/1999/xlink" x="0px" y="0px"
	 width="24px" height="24px" viewBox="0 0 24 24" enable-background="new 0 0 24 24" xml:space="preserve">
<path id="Combined-Shape" fill="#FFFFFF" d="M11.7,0c3.2-0.1,6.4,1.1,8.7,3.4S24,8.8,24,12c0,4.3-2.3,8.2-6,10.4s-8.3,2.1-12,0
	S0,16.3,0,12C0,5.5,5.2,0.2,11.7,0z M12,2C6.5,2,2,6.5,2,12s4.5,10,10,10l0,0V2z M12,22c5.5,0,10-4.5,10-10S17.5,2,12,2l0,0V22z"/>
<path d="M12,22c5.5,0,10-4.5,10-10S17.5,2,12,2l0,0V22z"/>
</svg>
