<?xml version="1.0" encoding="UTF-8"?>
<svg width="24px" height="25px" viewBox="0 0 24 25" version="1.1" xmlns="http://www.w3.org/2000/svg" xmlns:xlink="http://www.w3.org/1999/xlink">
    <!-- Generator: Sketch 55.2 (78181) - https://sketchapp.com -->
    <title>Group 7</title>
    <desc>Created with Sketch.</desc>
    <defs>
        <polygon id="path-1" points="0.0008 0.000385185185 24 0.000385185185 24 24.0003852 0.0008 24.0003852"></polygon>
        <polygon id="path-3" points="0.7812 0.211274074 12.0782 0.211274074 12.0782 19.2592593 0.7812 19.2592593"></polygon>
    </defs>
    <g id="Symbols" stroke="none" stroke-width="1" fill="none" fill-rule="evenodd">
        <g id="Desktop/Footer" transform="translate(-432.000000, -384.000000)">
            <g id="Footer">
                <g id="Icons" transform="translate(432.000000, 384.000000)">
                    <g id="Group-7" transform="translate(0.000000, 0.000000)">
                        <g id="Group-3">
                            <mask id="mask-2" fill="white">
                                <use xlink:href="#path-1"></use>
                            </mask>
                            <g id="Clip-2"></g>
                            <path d="M20.4848,0.000385185185 L3.5158,0.000385185185 C1.5778,0.000385185185 0.0008,1.57738519 0.0008,3.51638519 L0.0008,20.4843852 C0.0008,22.4233852 1.5778,24.0003852 3.5158,24.0003852 L20.4848,24.0003852 C22.4218,24.0003852 24.0008,22.4233852 24.0008,20.4843852 L24.0008,3.51638519 C24.0008,1.57738519 22.4218,0.000385185185 20.4848,0.000385185185" id="Fill-1" fill="#FFFFFF" mask="url(#mask-2)"></path>
                        </g>
                        <g id="Group-6" transform="translate(7.000000, 4.851852)">
                            <mask id="mask-4" fill="white">
                                <use xlink:href="#path-3"></use>
                            </mask>
                            <g id="Clip-5"></g>
                            <path d="M3.5942,19.1965185 L3.5942,11.0267407 L0.7812,11.0267407 L0.7812,6.964 L3.5942,6.964 L3.5942,4.20992593 C3.5942,1.96911111 5.4862,0.148148148 7.8132,0.148148148 L12.0782,0.148148148 L12.0782,4.20992593 L7.8132,4.20992593 L7.8132,6.964 L12.0782,6.964 L11.3752,11.0267407 L7.8132,11.0267407 L7.8132,19.1965185 L3.5942,19.1965185 Z" id="Fill-4" fill="#000000" mask="url(#mask-4)"></path>
                        </g>
                    </g>
                </g>
            </g>
        </g>
    </g>
</svg>