<?xml version="1.0" encoding="UTF-8"?>
<svg width="18px" height="16px" viewBox="0 0 18 16" version="1.1" xmlns="http://www.w3.org/2000/svg" xmlns:xlink="http://www.w3.org/1999/xlink">
    <!-- Generator: Sketch 55.2 (78181) - https://sketchapp.com -->
    <title>Group 3</title>
    <desc>Created with Sketch.</desc>
    <defs>
        <polygon id="path-1" points="0 5.61403509e-05 17.8668 5.61403509e-05 17.8668 15.9562386 0 15.9562386"></polygon>
    </defs>
    <g id="Symbols" stroke="none" stroke-width="1" fill="none" fill-rule="evenodd">
        <g id="icon/heart" transform="translate(-15.000000, -16.000000)">
            <g id="Group-3" transform="translate(15.000000, 16.000000)">
                <mask id="mask-2" fill="white">
                    <use xlink:href="#path-1"></use>
                </mask>
                <g id="Clip-2"></g>
                <path d="M8.15898462,4.51090526 L9.36387692,3.28985263 C9.37273846,3.28199298 9.38270769,3.27581754 9.39129231,3.26711579 L10.2264923,2.4205193 C10.9315385,1.70613333 11.8675385,1.31258947 12.8619692,1.31258947 C13.8530769,1.31258947 14.7876923,1.70472982 15.4935692,2.41687018 C16.1961231,3.12901053 16.5832864,4.07778246 16.5832864,5.08858947 C16.5868615,6.09546667 16.1997231,7.04395789 15.4938462,7.75946667 L8.928,14.3890807 L2.37683077,7.7485193 C1.67178462,7.03413333 1.28381538,6.0853614 1.28381538,5.0770807 C1.28381538,4.06487018 1.6704,3.11778246 2.37295385,2.40929123 C3.07550769,1.69715088 4.00901538,1.30501053 5.00123077,1.30501053 C5.99815385,1.30501053 6.93526154,1.69855439 7.64030769,2.41294035 L7.95544615,2.73237895 L7.18006154,3.51834386 L8.15898462,4.51090526 Z M16.4054769,1.49644912 C15.4606154,0.538694737 14.2033846,0.0112561404 12.8655692,0.0112561404 C11.5277538,0.0112561404 10.2694154,0.540098246 9.32206154,1.50009825 L8.93907692,1.88858947 L8.54833846,1.4925193 C7.59876923,0.529992982 6.33904615,2.80701754e-05 5.00123077,2.80701754e-05 C3.66563077,2.80701754e-05 2.40978462,0.527466667 1.46492308,1.48494035 C0.516184615,2.44662456 -0.00387692308,3.72241404 -2.15205205e-05,5.0770807 C-2.15205205e-05,6.42837895 0.523107692,7.70248421 1.4724,8.66501053 L8.47550769,15.7633965 C8.59596923,15.8860632 8.76101538,15.9562386 8.92772308,15.9562386 C9.09692308,15.9562386 9.26169231,15.8874667 9.37966154,15.7678877 L16.398,8.68016842 C17.3450769,7.72016842 17.8668186,6.44437895 17.8668186,5.08858947 C17.8704,3.73111579 17.3517231,2.45532632 16.4054769,1.49644912 L16.4054769,1.49644912 Z" id="Fill-1" fill="#000000" mask="url(#mask-2)"></path>
            </g>
        </g>
    </g>
</svg>