<?xml version="1.0" encoding="UTF-8"?>
<svg id="Ebene_1" data-name="Ebene 1" xmlns="http://www.w3.org/2000/svg" width="48" height="48" version="1.1" viewBox="0 0 48 48">
  <path d="M23.1,10.7c-4.7,0-8.6,2.2-10.9,5.6l.3.2c1.8-1.3,4.8-2.8,8.4-2.8,6.5,0,11.9,5,11.9,11s-3.5,9.5-8.9,9.5-7.5-2.8-7.5-6.9,1.4-4.4,1.9-4.8l-.3-.3c-1.8,1.1-3.5,3.2-3.5,6.2,0,5.2,4.6,9,9.8,9s13-5.4,13-13.1-6.2-13.5-14.3-13.5Z" fill="#d4b99b" stroke-width="0"/>
  <path d="M29.5,22.9h.4c-1-3.9-5.1-6.6-9.2-6.6s-9.9,4.3-9.9,9.6.7,3.3.7,3.3h.4c-.5-4.9,2.9-10.6,9.4-10.6s6.5,1.9,8.3,4.2Z" fill="#d4b99b" stroke-width="0"/>
  <path d="M27,26.3c0-1.8-1.6-3.4-3.5-3.4s-4.2,1.7-4.2,4.2,2,4.2,4.3,4.2,3.6-1.8,3.6-1.8l-1.2-.8s1-.9,1-2.4Z" fill="#d4b99b" stroke-width="0"/>
  <path d="M24,0C10.7,0,0,10.7,0,24s10.7,24,24,24,24-10.7,24-24S37.3,0,24,0ZM24.1,40c-9.6,0-16.1-7.5-16.1-15.4,0-3.9,1.6-6.9,1.6-6.9l-1.3-.9s4.4-8.8,14.7-8.8,17,5.6,17,16.7-7.2,15.3-15.9,15.3Z" fill="#d4b99b" stroke-width="0"/>
</svg>