<svg width="49" height="48" viewBox="0 0 49 48" fill="none" xmlns="http://www.w3.org/2000/svg">
<path fill-rule="evenodd" clip-rule="evenodd" d="M24.5 0C11.2452 0 0.5 10.7452 0.5 24C0.5 37.2548 11.2452 48 24.5 48C37.7548 48 48.5 37.2548 48.5 24C48.5 10.7452 37.7548 0 24.5 0ZM19.2233 11.2773C20.5886 11.2152 21.0249 11.2 24.5012 11.2H24.4972C27.9746 11.2 28.4092 11.2152 29.7746 11.2773C31.1373 11.3397 32.0679 11.5555 32.884 11.872C33.7266 12.1987 34.4386 12.636 35.1506 13.348C35.8627 14.0595 36.3 14.7736 36.628 15.6155C36.9427 16.4294 37.1587 17.3595 37.2227 18.7222C37.284 20.0876 37.3 20.5238 37.3 24.0001C37.3 27.4764 37.284 27.9116 37.2227 29.277C37.1587 30.6391 36.9427 31.5695 36.628 32.3837C36.3 33.2253 35.8627 33.9394 35.1506 34.6509C34.4394 35.3629 33.7264 35.8013 32.8848 36.1283C32.0703 36.4448 31.1391 36.6605 29.7765 36.7229C28.4111 36.7851 27.9762 36.8003 24.4996 36.8003C21.0236 36.8003 20.5876 36.7851 19.2222 36.7229C17.8598 36.6605 16.9294 36.4448 16.115 36.1283C15.2736 35.8013 14.5595 35.3629 13.8483 34.6509C13.1365 33.9394 12.6992 33.2253 12.372 32.3834C12.0557 31.5695 11.84 30.6394 11.7773 29.2767C11.7155 27.9114 11.7 27.4764 11.7 24.0001C11.7 20.5238 11.716 20.0873 11.7771 18.7219C11.8384 17.3598 12.0544 16.4294 12.3717 15.6152C12.6997 14.7736 13.1371 14.0595 13.8491 13.348C14.5606 12.6363 15.2747 12.1989 16.1166 11.872C16.9305 11.5555 17.8606 11.3397 19.2233 11.2773Z" fill="#D4B99B"/>
<path fill-rule="evenodd" clip-rule="evenodd" d="M23.353 13.5067C23.5759 13.5064 23.8158 13.5065 24.0746 13.5066L24.5013 13.5067C27.9189 13.5067 28.324 13.519 29.6736 13.5803C30.9216 13.6374 31.5989 13.8459 32.0501 14.0211C32.6475 14.2531 33.0733 14.5305 33.5211 14.9785C33.9691 15.4265 34.2464 15.8532 34.479 16.4505C34.6542 16.9012 34.863 17.5785 34.9198 18.8265C34.9811 20.1759 34.9944 20.5812 34.9944 23.9972C34.9944 27.4133 34.9811 27.8186 34.9198 29.168C34.8627 30.416 34.6542 31.0933 34.479 31.544C34.247 32.1413 33.9691 32.5667 33.5211 33.0144C33.0731 33.4624 32.6477 33.7398 32.0501 33.9718C31.5995 34.1478 30.9216 34.3558 29.6736 34.4128C28.3242 34.4742 27.9189 34.4875 24.5013 34.4875C21.0834 34.4875 20.6783 34.4742 19.3289 34.4128C18.0809 34.3552 17.4036 34.1467 16.9521 33.9715C16.3548 33.7395 15.9281 33.4621 15.4801 33.0141C15.0321 32.5661 14.7548 32.1405 14.5222 31.5429C14.347 31.0923 14.1382 30.4149 14.0814 29.1669C14.0201 27.8176 14.0078 27.4122 14.0078 23.994C14.0078 20.5759 14.0201 20.1727 14.0814 18.8233C14.1385 17.5753 14.347 16.898 14.5222 16.4468C14.7542 15.8494 15.0321 15.4228 15.4801 14.9748C15.9281 14.5268 16.3548 14.2494 16.9521 14.0169C17.4033 13.8409 18.0809 13.6329 19.3289 13.5755C20.5097 13.5222 20.9674 13.5062 23.353 13.5035V13.5067ZM31.3339 15.6321C30.4859 15.6321 29.7978 16.3193 29.7978 17.1676C29.7978 18.0156 30.4859 18.7036 31.3339 18.7036C32.1819 18.7036 32.8699 18.0156 32.8699 17.1676C32.8699 16.3196 32.1819 15.6316 31.3339 15.6316V15.6321ZM17.9279 24.0002C17.9279 20.3701 20.8709 17.4269 24.501 17.4268C28.1312 17.4268 31.0736 20.37 31.0736 24.0002C31.0736 27.6304 28.1314 30.5723 24.5013 30.5723C20.8711 30.5723 17.9279 27.6304 17.9279 24.0002Z" fill="#D4B99B"/>
<path d="M24.5011 19.7334C26.8574 19.7334 28.7678 21.6436 28.7678 24.0001C28.7678 26.3564 26.8574 28.2668 24.5011 28.2668C22.1445 28.2668 20.2344 26.3564 20.2344 24.0001C20.2344 21.6436 22.1445 19.7334 24.5011 19.7334Z" fill="#D4B99B"/>
</svg>
