<svg width="32" height="32" viewBox="0 0 32 32" fill="none" xmlns="http://www.w3.org/2000/svg">
<rect width="32" height="32" rx="16" fill="#19010C"/>
<path fill-rule="evenodd" clip-rule="evenodd" d="M20 7.24268H12C9.23858 7.24268 7 9.48126 7 12.2427V20.2427C7 23.0041 9.23858 25.2427 12 25.2427H20C22.7614 25.2427 25 23.0041 25 20.2427V12.2427C25 9.48126 22.7614 7.24268 20 7.24268ZM23.25 20.2427C23.2445 22.0353 21.7926 23.4872 20 23.4927H12C10.2074 23.4872 8.75549 22.0353 8.75 20.2427V12.2427C8.75549 10.45 10.2074 8.99817 12 8.99268H20C21.7926 8.99817 23.2445 10.45 23.25 12.2427V20.2427ZM20.75 12.4927C21.3023 12.4927 21.75 12.045 21.75 11.4927C21.75 10.9404 21.3023 10.4927 20.75 10.4927C20.1977 10.4927 19.75 10.9404 19.75 11.4927C19.75 12.045 20.1977 12.4927 20.75 12.4927ZM16 11.7427C13.5147 11.7427 11.5 13.7574 11.5 16.2427C11.5 18.728 13.5147 20.7427 16 20.7427C18.4853 20.7427 20.5 18.728 20.5 16.2427C20.5027 15.0484 20.0294 13.9022 19.1849 13.0578C18.3404 12.2133 17.1943 11.74 16 11.7427ZM13.25 16.2427C13.25 17.7615 14.4812 18.9927 16 18.9927C17.5188 18.9927 18.75 17.7615 18.75 16.2427C18.75 14.7239 17.5188 13.4927 16 13.4927C14.4812 13.4927 13.25 14.7239 13.25 16.2427Z" fill="#D4B99B"/>
</svg>
