<?xml version="1.0" encoding="UTF-8"?>
<svg width="24px" height="24px" viewBox="0 0 24 24" version="1.1" xmlns="http://www.w3.org/2000/svg" xmlns:xlink="http://www.w3.org/1999/xlink">
    <!-- Generator: Sketch 55.2 (78181) - https://sketchapp.com -->
    <title>Group 6 Copy</title>
    <desc>Created with Sketch.</desc>
    <defs>
        <polygon id="path-1" points="1.26298971e-12 0.0004 23.9999 0.0004 23.9999 24 1.26298971e-12 24"></polygon>
    </defs>
    <g id="Symbols" stroke="none" stroke-width="1" fill="none" fill-rule="evenodd">
        <g id="Desktop/Footer" transform="translate(-432.000000, -384.000000)">
            <g id="Footer" transform="translate(-2.000000, 0.000000)">
                <g id="Group" transform="translate(434.000000, 384.000000)">
                    <g id="Group-6-Copy">
                        <g id="Group-3">
                            <mask id="mask-2" fill="white">
                                <use xlink:href="#path-1"></use>
                            </mask>
                            <g id="Clip-2"></g>
                            <path d="M20.4839,0.0004 L3.5149,0.0004 C1.5779,0.0004 -0.000100000001,1.5774 -0.000100000001,3.5164 L-0.000100000001,20.4844 C-0.000100000001,22.4234 1.5779,24.0004 3.5149,24.0004 L20.4839,24.0004 C22.4219,24.0004 23.9999,22.4234 23.9999,20.4844 L23.9999,3.5164 C23.9999,1.5774 22.4219,0.0004 20.4839,0.0004" id="Fill-1" fill="#FFFFFF" mask="url(#mask-2)"></path>
                            <path d="M15.86622,7.20624 C15.62016,7.20624 15.37824,7.30596 15.20436,7.48056 C15.02976,7.65426 14.92932,7.89618 14.92932,8.14332 C14.92932,8.38938 15.02994,8.6313 15.20436,8.8059 C15.37806,8.9796 15.62016,9.08022 15.86622,9.08022 C16.11318,9.08022 16.35438,8.9796 16.52898,8.8059 C16.7034,8.6313 16.80312,8.38938 16.80312,8.14332 C16.80312,7.89618 16.7034,7.65426 16.52898,7.48056 C16.3551,7.30596 16.11318,7.20624 15.86622,7.20624 L15.86622,7.20624 Z M12,14.4327 C10.65864,14.4327 9.56712,13.34154 9.56712,12 C9.56712,10.65846 10.65846,9.56712 12,9.56712 C13.34172,9.56712 14.43288,10.65846 14.43288,12 C14.43288,13.34154 13.34154,14.4327 12,14.4327 L12,14.4327 Z M12,8.28966 C9.95412,8.28966 8.28966,9.95412 8.28966,12.00018 C8.28966,14.04606 9.95412,15.71052 12,15.71052 C14.04624,15.71052 15.7107,14.04606 15.7107,12.00018 C15.7107,9.95412 14.04624,8.28966 12,8.28966 L12,8.28966 Z M17.92254,15.22614 C17.92254,16.71276 16.71294,17.92236 15.22614,17.92236 L8.77386,17.92236 C7.28724,17.92236 6.07782,16.71276 6.07782,15.22614 L6.07782,8.77386 C6.07782,7.28724 7.28724,6.07764 8.77386,6.07764 L15.22614,6.07764 C16.71276,6.07764 17.92254,7.28724 17.92254,8.77386 L17.92254,15.22614 Z M15.22614,4.8 L8.77386,4.8 C6.58272,4.8 4.8,6.58272 4.8,8.77386 L4.8,15.22614 C4.8,17.41746 6.58272,19.2 8.77386,19.2 L15.22614,19.2 C17.41746,19.2 19.2,17.41728 19.2,15.22614 L19.2,8.77386 C19.2,6.58272 17.41746,4.8 15.22614,4.8 L15.22614,4.8 Z" id="Fill-1" fill="#000000" mask="url(#mask-2)"></path>
                        </g>
                    </g>
                </g>
            </g>
        </g>
    </g>
</svg>