<svg xmlns="http://www.w3.org/2000/svg" width="90" height="28.9" viewBox="0 0 90 28.9">
  <path d="M16,17.7h7.5l-7.1-12.1c-.7-1.2-.6-2.7.2-3.8l.8-1.2H6.1l.8,1.2c.8,1.1.9,2.6.2,3.8L0,17.7h7.5l-.8-2.1c-.4-1-.3-2.1.3-3l4.7-8.2,4.7,8.2c.5.9.6,2,.3,3l-.8,2.1Z" fill="#D4B99B" stroke-width="0"/>
  <path d="M80,0c-5.5,0-10,4.1-10,9.1s4.5,9.1,10,9.1,10-4.1,10-9.1S85.5,0,80,0ZM80,14.9c-3.6,0-6.5-2.6-6.5-5.8s2.9-5.8,6.5-5.8,6.5,2.6,6.5,5.8-2.9,5.8-6.5,5.8Z" fill="#D4B99B" stroke-width="0"/>
  <path d="M39.1.5l1.5,2.1c.4.6.7,1.4.7,2.1v5.6L30,.5h-5.6l1.5,2.1c.4.6.7,1.3.7,2.1v8.7c.1.8-.1,1.5-.6,2.2l-1.5,2.1h7.6l-1.5-2.1c-.4-.6-.7-1.4-.7-2.1V4.7l14.7,13V4.8c-.1-.8.1-1.5.5-2.1l1.5-2.1h-7.6Z" fill="#D4B99B" stroke-width="0"/>
  <path d="M62.4.5l1.5,2.1c.4.6.7,1.4.7,2.1v5.6L53.3.5h-5.6l1.5,2.1c.4.6.7,1.3.7,2.1v8.7c.1.8-.1,1.5-.6,2.2l-1.5,2.1h7.6l-1.5-2.1c-.4-.6-.7-1.4-.7-2.1V4.7l14.7,13V4.8c-.1-.8.1-1.5.5-2.1l1.5-2.1h-7.6Z" fill="#D4B99B" stroke-width="0"/>
  <path d="M52.5,19.8c-2.8,0-5,2-5,4.5s2.2,4.5,5,4.5,5-2,5-4.5-2.2-4.5-5-4.5ZM52.5,27.2c-1.8,0-3.3-1.3-3.3-2.9s1.5-2.9,3.3-2.9,3.3,1.3,3.3,2.9-1.5,2.9-3.3,2.9Z" fill="#D4B99B" stroke-width="0"/>
  <path d="M38.9,20l.7,1.1c.2.3.3.7.3,1v2.8l-5.6-4.9h-2.8l.8,1.1c.2.3.3.7.3,1v4.3c0,.4,0,.8-.3,1.1l-.7,1h3.8l-.7-1.1c-.2-.3-.3-.7-.3-1v-4.4l7.3,6.5v-6.4c0-.4,0-.8.3-1.1l.7-1h-3.8Z" fill="#D4B99B" stroke-width="0"/>
  <path d="M43.3,28.6h3.8l-.7-1.1c-.2-.3-.3-.7-.3-1v-4.3c0-.4,0-.8.3-1.1l.7-1h-3.8l.7,1.1c.2.3.3.7.3,1v4.3c0,.4,0,.8-.3,1.1l-.7,1Z" fill="#D4B99B" stroke-width="0"/>
  <path d="M65.2,20l.7,1.1c.2.3.3.7.3,1v2.8l-5.6-4.9h-2.8l.8,1.1c.2.3.3.7.3,1v4.3c0,.4,0,.8-.3,1.1l-.7,1h3.8l-.7-1.1c-.2-.3-.3-.7-.3-1v-4.4l7.3,6.5v-6.4c0-.4,0-.8.3-1.1l.7-1h-3.8Z" fill="#D4B99B" stroke-width="0"/>
  <path d="M31,20.1h-4l.7,1.1c.2.3.3.7.3,1v2.2c0,.9-.4,2.8-2.4,2.8s-2.4-1.9-2.4-2.8v-2.2c0-.4.1-.7.4-1l.7-1.1h-3.9l.7,1c.2.3.3.7.3,1.1v2.2c0,1.4.4,2.5,1.2,3.3.8.8,1.8,1.3,3,1.3,1.2,0,2.2-.4,3-1.3.8-.8,1.2-1.9,1.2-3.3h0v-2.2c0-.4,0-.8.3-1.1l.7-1Z" fill="#D4B99B" stroke-width="0"/>
</svg>
