<?xml version="1.0" encoding="UTF-8"?>
<svg width="16px" height="16px" viewBox="0 0 16 16" version="1.1" xmlns="http://www.w3.org/2000/svg" xmlns:xlink="http://www.w3.org/1999/xlink">
    <!-- Generator: Sketch 55.2 (78181) - https://sketchapp.com -->
    <title>Group 3</title>
    <desc>Created with Sketch.</desc>
    <defs>
        <polygon id="path-1" points="0 2.58064516e-05 15.8707875 2.58064516e-05 15.8707875 15.8678587 0 15.8678587"></polygon>
    </defs>
    <g id="Symbols" stroke="none" stroke-width="1" fill="none" fill-rule="evenodd">
        <g id="icon/search" transform="translate(-16.000000, -17.000000)">
            <g transform="translate(16.000000, 17.000000)" id="Group-3">
                <g>
                    <mask id="mask-2" fill="white">
                        <use xlink:href="#path-1"></use>
                    </mask>
                    <g id="Clip-2"></g>
                    <path d="M9.90910968,9.90895484 C11.8056258,8.01243871 11.8056258,4.9376 9.90910968,3.04108387 C8.01233548,1.14456774 4.93775484,1.14456774 3.04123871,3.04108387 C1.14472258,4.9376 1.14472258,8.01243871 3.04123871,9.90895484 C4.93775484,11.805729 8.01233548,11.805729 9.90910968,9.90895484 M11.5906581,10.4459871 L15.6347871,14.4901161 C15.9493677,14.8049548 15.9504,15.3138581 15.6322065,15.6323097 C15.3160774,15.9481806 14.7991742,15.9437935 14.490271,15.6346323 L10.4458839,11.5907613 C7.90575484,13.5675355 4.23143226,13.3884387 1.89646452,11.053729 C-0.632309677,8.52495484 -0.632309677,4.42508387 1.89646452,1.89656774 C4.42523871,-0.632206452 8.52510968,-0.632206452 11.0538839,1.89656774 C13.3883355,4.23153548 13.5674323,7.9056 11.5906581,10.4459871" id="Fill-1" fill="#1D1D1B" mask="url(#mask-2)"></path>
                </g>
            </g>
        </g>
    </g>
</svg>