<?xml version="1.0" encoding="UTF-8"?>
<svg width="24px" height="24px" viewBox="0 0 24 24" version="1.1" xmlns="http://www.w3.org/2000/svg" xmlns:xlink="http://www.w3.org/1999/xlink">
    <!-- Generator: Sketch 55.2 (78181) - https://sketchapp.com -->
    <title>Group 6</title>
    <desc>Created with Sketch.</desc>
    <defs>
        <polygon id="path-1" points="0.0003 0.0004 24 0.0004 24 24 0.0003 24"></polygon>
    </defs>
    <g id="Symbols" stroke="none" stroke-width="1" fill="none" fill-rule="evenodd">
        <g id="Desktop/Footer" transform="translate(-512.000000, -384.000000)">
            <g id="Footer">
                <g id="Icons" transform="translate(432.000000, 384.000000)">
                    <g id="Group-6" transform="translate(80.000000, 0.000000)">
                        <g id="Group-3">
                            <mask id="mask-2" fill="white">
                                <use xlink:href="#path-1"></use>
                            </mask>
                            <g id="Clip-2"></g>
                            <path d="M20.4843,0.0004 L3.5153,0.0004 C1.5773,0.0004 0.0003,1.5774 0.0003,3.5164 L0.0003,20.4844 C0.0003,22.4234 1.5773,24.0004 3.5153,24.0004 L20.4843,24.0004 C22.4223,24.0004 24.0003,22.4234 24.0003,20.4844 L24.0003,3.5164 C24.0003,1.5774 22.4223,0.0004 20.4843,0.0004" id="Fill-1" fill="#FFFFFF" mask="url(#mask-2)"></path>
                        </g>
                        <path d="M9.8193,19.0316 C9.0763,19.0316 8.3113,18.9706 7.5423,18.8506 C6.1863,18.6376 4.8153,17.9286 4.4263,17.7176 L3.4093,17.1606 L4.5103,16.7986 C5.7153,16.4016 6.4493,16.1556 7.3563,15.7706 C6.4473,15.3316 5.7483,14.5396 5.4103,13.5166 L5.1543,12.7386 L5.3643,12.7696 C5.1653,12.5696 5.0073,12.3656 4.8853,12.1796 C4.4513,11.5206 4.2213,10.7156 4.2703,10.0246 L4.3183,9.3446 L4.7253,9.5036 C4.5533,9.1786 4.4293,8.8326 4.3573,8.4696 C4.1793,7.5856 4.3283,6.6456 4.7753,5.8236 L5.1303,5.1736 L5.6043,5.7426 C7.1023,7.5436 9.0013,8.6106 11.2543,8.9236 C11.1623,8.2896 11.2313,7.6776 11.4593,7.1286 C11.7243,6.4896 12.1973,5.9476 12.8263,5.5616 C13.5233,5.1336 14.3693,4.9256 15.2083,4.9766 C16.0973,5.0316 16.9053,5.3646 17.5473,5.9406 C17.8603,5.8596 18.0903,5.7726 18.4033,5.6556 C18.5903,5.5846 18.8033,5.5046 19.0703,5.4126 L20.0513,5.0746 L19.4123,6.9026 C19.4543,6.8986 19.4973,6.8956 19.5433,6.8936 L20.5903,6.8466 L19.9713,7.6936 C19.9363,7.7416 19.9263,7.7556 19.9143,7.7746 C19.8643,7.8496 19.8023,7.9436 18.9523,9.0796 C18.7393,9.3636 18.6323,9.7336 18.6523,10.1226 C18.7273,11.5966 18.5473,12.9316 18.1143,14.0906 C17.7053,15.1846 17.0703,16.1246 16.2293,16.8826 C15.1883,17.8196 13.8603,18.4616 12.2833,18.7896 C11.5093,18.9506 10.6783,19.0316 9.8193,19.0316" id="Fill-4" fill="#000000"></path>
                    </g>
                </g>
            </g>
        </g>
    </g>
</svg>