<?xml version="1.0" encoding="UTF-8"?>
<svg id="Ebene_1" data-name="Ebene 1" xmlns="http://www.w3.org/2000/svg" width="100" height="100" version="1.1" viewBox="0 0 100 100">
  <path d="M70.7,59.6c8.2-6,18.4-9.6,29.3-9.6-10.9,0-21-3.6-29.3-9.6,18.9-12.4,1.2-30.1-11.1-11.1-6-8.2-9.6-18.4-9.6-29.3,0,10.9-3.6,21-9.6,29.3-12.4-18.9-30.1-1.2-11.1,11.1-8.2,6-18.4,9.6-29.3,9.6,10.9,0,21,3.6,29.3,9.6-18.9,12.4-1.2,30.1,11.1,11.1,6,8.2,9.6,18.4,9.6,29.3,0-10.9,3.6-21,9.6-29.3,12.4,18.9,30.1,1.2,11.1-11.1ZM50.6,62.1c-.4.8-.6,1.4-.6,2,0-.5-.3-1.2-.6-2-.7-1.4-1.9-3-3.3-4.6-1.1-1.2-2.3-2.5-3.6-3.6-1.6-1.4-3.2-2.6-4.6-3.3-.8-.4-1.4-.6-2-.6.5,0,1.2-.3,2-.6,1.4-.7,3-1.9,4.6-3.3,1.2-1.1,2.5-2.3,3.6-3.6,1.4-1.6,2.6-3.2,3.3-4.6.4-.8.6-1.4.6-2,0,.5.3,1.2.6,2,.7,1.4,1.9,3,3.3,4.6,1.1,1.2,2.3,2.5,3.6,3.6,1.6,1.4,3.2,2.6,4.6,3.3.8.4,1.4.6,2,.6-.5,0-1.2.3-2,.6-1.4.7-3,1.9-4.6,3.3-1.2,1.1-2.5,2.3-3.6,3.6-1.4,1.6-2.6,3.2-3.3,4.6Z" fill="#5F032E" stroke-width="0"/>
</svg>