<svg xmlns="http://www.w3.org/2000/svg" width="1920" height="3643" viewBox="0 0 1920 3643">
  <path d="M1580,3643.9H358c0-18-.2-36-.1-53.9,0-11.3-.8-22.8.7-33.9,2.1-16.2,1.8-32.4,1.1-48.6-.6-14.2-3.1-28.8-1-42.6,2.9-18.3,1-36.3.9-54.5,0-7.9-1.3-15.9-1.2-23.8,0-10.8,1.2-21.7,1-32.5-.1-5.8,0-11.2,4.4-15-.5-1.6-.6-2.8-1.2-3.5-7.9-8.5-8.8-18.7-8.5-29.7.4-16.6-.2-33.3-.3-49.9,0-8.1,1.6-16.1,6.4-22.6,5.4-7.3,7.4-14.7,4.4-23.2-4.1-11.5-3.6-23.2-.2-34.4,3.6-11.9,3.2-23.6,1.5-35.4-1.3-9-2.1-17.8.1-26.7,3-12.2.5-24-3.9-35.1-2.8-7-4.2-13.9-4.1-21.3,0-6,0-12,0-18,0-8.6-.2-17.2,3.5-25.5,1.5-3.4,2.1-8.2,1-11.7-3.5-11.1-.6-21,4.3-30.8,1.4-2.8,1.4-5,.6-8.3-2.6-10.2-4.8-20.7-2.4-31.4.5-2.5.3-5.4-.6-7.8-5-14.2-.8-28.3.8-42.2.8-6.9,1-13-1.4-19.3-4-10.3-6-20.9-5.9-32.1.3-64.6,0-129.2.3-193.9.2-58.6,1-117.1,1.4-175.7,0-5.6-.5-11.3-1.4-16.8-2.5-14.7,3.4-28.1,5.8-42,1.1-6.1,1-11.6-1.2-17.5-3-8.4-5.1-17.1-4.8-26.3.5-13.6,0-27.3.1-41,0-2.3,0-4.8.6-6.9,4.9-14.8,4.1-29.9,3.8-45.1-.2-12.5-4-24.5-3.7-37.4.3-11.5.4-23.1,1.3-34.6.8-10,2.8-19.6-1.3-29.4-1.4-3.5-.9-7.9-.9-11.8,0-68.3,0-136.6,0-204.9,0-3.3-.1-6.8.7-9.9,2.7-10.5,8-20.6,2.9-31.8,2.6-9-.7-17.7-1.7-26.5-.6-4.9-1.6-9.8-1.7-14.8-.3-9.6-.2-19.3-.1-29,.2-11.6,1-23.2.8-34.8-.2-11.9-3.2-23.8,2.5-35.3.4-.8.4-2,.3-3-.9-15.4,2-31.1-2.7-46.3-.7-2.3-.1-5.3.6-7.8,3.4-12.2,7.2-24.2,10.6-36.4.8-2.8,2-6.3,1.1-8.6-2.4-6.2-1.1-12.4-1.3-18.6-.2-7.5-1.7-14.9-2.6-22.4-.4-3.6-1-7.1-1.1-10.7-.1-4.3.2-8.6.3-12.9.1-13.2.4-26.5.3-39.8,0-6.3-.4-12.6-1.1-18.8-1-9.6-1.8-19.1.6-28.8,1.1-4.3,1.1-9.3.1-13.7-2-9-6.7-17.7-7.3-26.7-1.4-18.4-3.9-37.1,2.3-55.4,1.3-3.9,1.8-8.8.9-12.8-2.5-10.3-.9-19.8,4.1-28.9,1.9-3.5,2-6.5,1-10.9-2.3-10.1-5.5-20.6-2.3-31.3.5-1.8.1-4.1-.6-5.8-2.6-7.1-2.5-14.1-1.3-21.5,1.1-7.5.2-15.5,2-22.8,1.6-6.3,1.2-11.8-1.2-17.4-7-15.8-6.5-32.3-5.6-48.6,3-2.1,5.7-3.8,7.6-5.1-.7-7.3-1.7-13.5-1.8-19.7-.2-10.9-.3-21.7,2.7-32.6,4-14.6,1.2-29.7.5-44.6-.4-7.9-2.1-15.8-2.1-23.6,0-11.2,1.4-22.3,1.2-33.5,0-6.2-.3-11.9,5.1-16.2-1.2-2.5-1.8-4.8-3.1-6.6-7.8-11-10.6-23.4-10.5-36.6.1-14-.2-28,.2-42,.1-4.4,2.1-8.8,3.3-13.2.8-2.8,2.9-5.8,2.2-8.2-3.2-11.6-1.4-23.1-.5-34.7.2-2.6,1.3-5.7.4-7.9-6.8-15.2-2.7-31.6-5.5-47.3-2.4-13.8,3.2-26.7,5.5-40,1.1-6.3,1.4-12.3-1-18.6-2.3-5.8-4-12.1-4.2-18.3-.6-16-.3-32,0-47.9,0-4.2,1.5-8.4,2-12.7,1.2-11.5,2.7-23,3.1-34.5.5-14.2-6.6-27.8-3.7-42.3.1-.6-.1-1.3-.1-2,0-5.9.2-11.8-.2-17.7-.9-15.7,6.4-31.5-.7-47.3-1.4-3.1-.5-7.2-.5-10.9,0-66,0-131.9-.3-197.9,0-9.8,1.2-19.2,4.5-28.4,1.1-3,2.4-6.9,1.4-9.6-2.5-6.6-2.3-12.9-.8-19.6.3-1.5-.3-3.2-.5-4.8-1.4-8.5-3.5-16.9-4-25.4-.8-11.6-.2-23.3-.5-34.9-.2-8.2.8-15.8,6.8-22.2,2-2.1,3.2-5,4.6-7.3-6.4-12.6-11.8-25-11.4-39.1.2-7.7,0-15.3,0-23,.3-23.6.9-47.3,1-70.9,0-22.9-.6-45.9-.9-68.8h1222.1c-.1,8.7-.1,17.3-.4,25.9-.3,9.2-1.1,18.5-1.1,27.7,0,7.9,1.3,15.9,1.5,23.8.3,10.3-.3,20.7,0,31,.3,10.5-2.2,20.7-1.5,31.5,1.6,26.6,1.1,53.2,1.4,79.8,0,6.1,1.9,13-6.8,15.4-.7.2-1.3,1.6-1.4,2.5-.7,5.2-2.8,11-1.5,15.7,4.2,15.1.7,30.9,4.9,46,.9,3.3-1.3,7.7-2.7,11.3-3.9,9.4-8.2,18.7-12.2,27.6.8,1.3,1.1,2,1.5,2.4,12.4,12.8,17.9,27.3,11.6,45.1-1.2,3.5-1.5,8-.5,11.5,1.5,5,.9,9-1.3,13.4-4.3,8.8-6.5,17.9-6.1,27.9.2,5.1-2,10.3-3,15.5-.9,5.1-2.9,10.6-2,15.4,1.8,9.8,1.6,19.6-1.3,28.6-4,12.3-.6,24.3-.4,36.3.3,16.4,6,32.6,4.9,49.4-.1,1.9.5,4,1,5.8,4.2,13.9,8.7,27.7,12.6,41.7.9,3.3.1,7.2-.4,10.8-1,6.6-3.3,13.1-3.3,19.6.1,11.3-2,21.7-7.2,31.7-1.2,2.4-1.9,6.5-.7,8.3,3.5,5.1,5.2,12.6,14.1,12.4v11.4c0,30.5,0,61.1,0,91.6,0,9.7.4,19.3,0,29-1,19.8-2.6,39.6-3.7,59.5-.3,5.6-.1,11.3.2,17,1,17.2,2.6,34.4,3.2,51.7.2,6.2-1.8,12.4-2.4,18.7-1,11.2-1.6,22.5-2.6,33.7-.3,4-1.2,7.9-5.6,9.8-1,.5-2.2,1.9-2.3,3-.6,5.3-4.9,6.6-8.6,8.8-5.1,2.9-10.1,6.1-12.7,11.5,4.8,2.8,9.4,4.8,13.1,7.8,5.5,4.3,10.6,9.2,15.4,14.2,1.9,2,3.7,4.9,3.8,7.4.5,7.2.2,14.4.2,21.7-3.5,1-6.6,1.8-9.7,2.6-.2,2.2-.6,3.8-.5,5.5,1.9,18.2,1.2,36.3-.7,54.4-.4,4.3-2.1,8.6-1.9,12.8.3,4.4.9,9.8,3.6,12.8,6.7,7.6,9.9,16.6,9.7,26-.5,19.6-2.7,39.1-3.7,58.7-.5,10.8-1.9,22,.4,32.3,2.2,9.8,1.5,18.4-2.2,27.1-5.4,12.8-8.6,25.8-7.4,39.7.4,4.6-.6,9.3,4,12.7,1.2.9,1.7,3.7,1.5,5.5-1.1,8.2-1.7,16.6-4.1,24.5-1.5,5-1.4,8.7.7,13.2,1.8,3.9,2.1,8.4,3.5,12.5,1.4,4,2.8,8.3,5.4,11.5,3,3.7,2.5,6.6,1.5,10.9-1.8,7.6-3.4,15.6-2.7,23.2.8,9.9.9,18.6-12.2,24.8,4.9,2.8,8.4,4.8,12.1,6.9-3,4.6-4.9,7.6-6,9.3,1.7,9.7,3,18.1,4.6,26.6.7,3.9,2,7.7,2.7,11.7,1.2,6.5,3,13,3,19.5.2,123.6.2,247.2.2,370.9,0,9,1,18.1-3.7,24,1.6,5.8,3.5,9.8,3.5,13.7.2,31.3.1,62.6,0,94,0,2.9-.3,6.2-1.7,8.7-3.3,6-2.8,12.1-2.5,18.5.3,8.2,1.3,16.9-.8,24.7-3.8,14-2,27.8-.2,41.3,3.5,27.1,5.5,54.2,5.5,81.4-.1,45.9,0,91.8,0,137.6s0,20.7,0,31c.1,22.2-.7,44.4-3.8,66.5-.7,5.2-.5,10.7.1,15.9,2.7,21.1,5.8,42.1,1.3,63.4-.7,3.2,0,6.6-.3,9.9-1.1,15.1,1.6,30.8-10.1,43.9-3,3.4-5.4,6.9-9.5,9.2-4.8,2.7-9.5,5.8-12.2,10.8,4.7,2.9,9.2,5,12.9,8,5.2,4.2,9.6,9.3,14.8,13.4,3.5,2.8,5.1,6,5,10.2-.2,5.3-2.1,11.3-.2,15.6,5,11.5-3.1,23.2,1.6,34.4.5,1.2-1.3,3.6-2.2,5.3-3.3,6-3.6,12.9-.5,18.2,3,5.1,3.1,9.9,3.1,15.1,0,105.9,0,211.9,0,317.8,0,14.9,3,12.9-12.6,21.3-.5.3-.7,1.1-1.3,2.1,11.7,9.7,14.3,23,13.8,37.3-.4,9.9-1.5,19.7-1.4,29.6.4,46.5-1.6,92.9.8,139.4,0,.7-.2,1.3-.3,2-.2,11.5-2.2,23.3-.2,34.4,2.6,14.1-.5,26.5-5.9,38.7-5.2,11.7-2.5,23.6-3.1,35.4,0,1.4,1.2,3.2,2.3,4.1,3.1,2.5,3.4,5.6,2.8,9-1.7,8.7-3.6,17.4-5.3,26.2-.3,1.6-.6,3.4-.2,4.8,2.3,7.6,4,15.6,7.5,22.6,2.8,5.5,3.2,10.7,3,16.4-.2,7.6-1.7,15.2-.9,22.7.7,6.4,1,12.4-.9,18.6-1.1,3.6-.1,7.8-.6,11.7-.3,3.1-.5,6.9-2.3,9.1-4.5,5.4-4.8,10.7-1.7,16.6,3.4,6.4,4.6,13.1,3.5,20.2-.2,1-.5,2.3,0,2.9,4.9,6.6,2.5,14.1,2.8,21.2h0Z" fill="#000" stroke-width="0"/>
</svg>
