<?xml version="1.0" encoding="UTF-8"?>
<svg width="24px" height="24px" viewBox="0 0 24 24" version="1.1" xmlns="http://www.w3.org/2000/svg" xmlns:xlink="http://www.w3.org/1999/xlink">
    <title>Icon-Dark-Mode</title>
    <g id="Symbols" stroke="none" stroke-width="1" fill="none" fill-rule="evenodd">
        <g id="Nav/Desktop" transform="translate(-1296.000000, -28.000000)" fill="#000000" fill-rule="nonzero">
            <g id="Nav">
                <g id="Icon-Dark-Mode" transform="translate(1296.000000, 28.000000)">
                    <path d="M11.6751198,0.00440628224 C14.9171768,-0.0833748366 18.0567441,1.14353288 20.3785703,3.40561719 C22.7003966,5.6677015 24.006737,8.77230589 24.0000352,12.0121441 C24.0000352,16.2949333 21.7130229,20.2524697 18.0001532,22.3939156 C14.2872835,24.5353615 9.71278802,24.5353615 5.9999183,22.3939156 C2.28704859,20.2524697 3.52294099e-05,16.2949333 3.52294099e-05,12.0121441 C-0.0134631783,5.50846797 5.16698347,0.180392847 11.6751198,0.00440628224 Z M12.0000352,2 C6.46289593,2.04868777 2.00003523,6.51154847 2.00003523,12 C2.00003523,17.4884515 6.46289593,21.9513122 12.0000352,22 L12.0000352,22 Z" id="Combined-Shape"></path>
                </g>
            </g>
        </g>
    </g>
</svg>