<?xml version="1.0" encoding="UTF-8"?>
<svg width="80px" height="80px" viewBox="0 0 80 80" version="1.1" xmlns="http://www.w3.org/2000/svg" xmlns:xlink="http://www.w3.org/1999/xlink">
    <!-- Generator: Sketch 55.2 (78181) - https://sketchapp.com -->
    <title>Icon</title>
    <desc>Created with Sketch.</desc>
    <defs>
        <polygon id="path-1" points="0 0 47.4855 0 47.4855 49.25775 0 49.25775"></polygon>
    </defs>
    <g id="UBI19_INT01_ReDesign" stroke="none" stroke-width="1" fill="none" fill-rule="evenodd">
        <g id="UBI19_INT01_ReDesign_Desktop_1-2" transform="translate(-784.000000, -1200.000000)">
            <g id="USPs" transform="translate(744.000000, 1024.000000)">
                <g id="USP-Copy-6" transform="translate(0.000000, 176.000000)">
                    <g id="Icon" transform="translate(40.000000, 0.000000)">
                        <circle id="Oval" fill="#F0F0F0" cx="40" cy="40" r="40"></circle>
                        <g id="Group-3" transform="translate(16.000000, 15.000000)">
                            <mask id="mask-2" fill="white">
                                <use xlink:href="#path-1"></use>
                            </mask>
                            <g id="Clip-2"></g>
                            <path d="M24.473775,24.313875 L35.931525,24.313875 L35.931525,28.813875 L19.973775,28.813875 L19.973775,10.937625 L24.473775,10.937625 L24.473775,24.313875 Z M43.584525,25.051875 C43.585275,25.321875 43.578525,25.592625 43.568775,25.864125 C43.566525,25.909125 43.565775,25.954125 43.563525,25.999125 C43.460025,28.428375 42.944775,30.909375 41.956275,33.355875 C40.795275,35.986125 39.210525,38.181375 37.339275,39.945375 C33.807525,43.386375 29.052525,45.540375 23.794275,45.716625 C17.165025,45.939375 11.291775,42.462375 7.639275,37.249125 C6.530025,35.770875 5.641275,34.120125 5.011275,32.345625 C4.830525,31.885875 4.584525,31.126875 4.385025,30.153375 C4.102275,28.867125 3.948525,27.532875 3.948525,26.161875 C3.948525,23.051625 4.739775,19.946625 6.095775,17.374875 L4.022025,16.042125 L6.169275,12.728625 C6.836775,11.682375 7.601775,10.723125 8.445525,9.856125 C13.197525,4.975125 20.491275,3.003375 27.506025,4.764375 C36.487275,7.006125 42.505275,14.304375 43.454025,22.749375 C43.461525,22.816875 43.471275,22.883625 43.478775,22.951875 C43.489275,23.050125 43.495275,23.149125 43.504275,23.247375 C43.529775,23.519625 43.550775,23.795625 43.563525,24.077625 C43.568775,24.183375 43.569525,24.290625 43.573275,24.397125 C43.578525,24.562875 43.587525,24.724875 43.588275,24.892875 C43.588275,24.946875 43.585275,24.998625 43.584525,25.051875 L43.584525,25.051875 Z M47.465025,24.601875 C46.946025,-0.628125 13.383525,-10.031625 0.461775,13.610625 C1.032525,14.023875 1.823025,14.581875 2.393775,14.994375 C1.403775,17.070375 0.743775,19.184625 0.383025,21.292875 C0.131775,22.673625 -0.000225,24.097125 -0.000225,25.550625 C-0.000225,38.643375 10.630275,49.258125 23.742525,49.258125 C36.856275,49.258125 47.486025,38.643375 47.486025,25.550625 C47.486025,25.233375 47.477775,24.916875 47.465025,24.601875 L47.465025,24.601875 Z" id="Fill-1" fill="#052132" mask="url(#mask-2)"></path>
                        </g>
                    </g>
                </g>
            </g>
        </g>
    </g>
</svg>