<?xml version="1.0" encoding="UTF-8"?>
<svg width="80px" height="80px" viewBox="0 0 80 80" version="1.1" xmlns="http://www.w3.org/2000/svg" xmlns:xlink="http://www.w3.org/1999/xlink">
    <!-- Generator: Sketch 55.2 (78181) - https://sketchapp.com -->
    <title>Icon</title>
    <desc>Created with Sketch.</desc>
    <defs>
        <polygon id="path-1" points="0.000232258065 -5.27989864e-05 47.8624258 -5.27989864e-05 47.8624258 49.6488 0.000232258065 49.6488"></polygon>
    </defs>
    <g id="UBI19_INT01_ReDesign" stroke="none" stroke-width="1" fill="none" fill-rule="evenodd">
        <g id="UBI19_INT01_ReDesign_Desktop_1-2" transform="translate(-1200.000000, -1200.000000)">
            <g id="USPs" transform="translate(744.000000, 1024.000000)">
                <g id="USP-Copy-8" transform="translate(416.000000, 176.000000)">
                    <g id="Icon" transform="translate(40.000000, 0.000000)">
                        <circle id="Oval" fill="#F0F0F0" cx="40" cy="40" r="40"></circle>
                        <g id="Group-3" transform="translate(16.000000, 15.000000)">
                            <mask id="mask-2" fill="white">
                                <use xlink:href="#path-1"></use>
                            </mask>
                            <g id="Clip-2"></g>
                            <path d="M13.347329,24.2631484 C12.3308129,24.2631484 11.5024258,23.4355355 11.5024258,22.4182452 C11.5024258,21.401729 12.3308129,20.5733419 13.347329,20.5733419 C14.3638452,20.5733419 15.1922323,21.401729 15.1922323,22.4182452 C15.1922323,23.4355355 14.3638452,24.2631484 13.347329,24.2631484 M13.347329,16.7023742 C10.1955871,16.7023742 7.63145806,19.2665032 7.63145806,22.4182452 C7.63145806,25.5699871 10.1955871,28.1341161 13.347329,28.1341161 C16.499071,28.1341161 19.0632,25.5699871 19.0632,22.4182452 C19.0632,19.2665032 16.499071,16.7023742 13.347329,16.7023742 M34.5161032,24.353729 C35.5326194,24.353729 36.3610065,25.1821161 36.3610065,26.1986323 C36.3610065,27.2151484 35.5326194,28.0435355 34.5161032,28.0435355 C33.4988129,28.0435355 32.6712,27.2151484 32.6712,26.1986323 C32.6712,25.1821161 33.4988129,24.353729 34.5161032,24.353729 M34.5161032,31.9145032 C37.6678452,31.9145032 40.2319742,29.3503742 40.2319742,26.1986323 C40.2319742,23.0468903 37.6678452,20.4827613 34.5161032,20.4827613 C31.3635871,20.4827613 28.8002323,23.0468903 28.8002323,26.1986323 C28.8002323,29.3503742 31.3635871,31.9145032 34.5161032,31.9145032 M23.9832,46.0799226 C17.3003613,46.3044387 11.3808774,42.7988903 7.6995871,37.5452129 C6.58242581,36.0548903 5.68590968,34.3911484 5.05107097,32.6019871 C4.86836129,32.1382452 4.62139355,31.3741161 4.42010323,30.3924387 C4.1352,29.0964387 3.9795871,27.7516645 3.9795871,26.369729 C3.9795871,23.7157935 4.55713548,21.0680516 5.56126452,18.7446968 C7.11507097,16.5901161 9.63971613,15.1803097 12.4926194,15.1803097 C20.3847484,15.1803097 21.0714581,19.2997935 22.0221677,25.0009548 C22.9914581,30.8190194 24.1984258,38.057729 35.3708129,38.057729 C37.2079742,38.057729 38.9770065,37.5630194 40.5826839,36.713729 C39.7101677,38.0376 38.7292645,39.2321806 37.6361032,40.2618581 C34.0755871,43.7310194 29.2841032,45.9010839 23.9832,46.0799226 M8.51249032,9.9336 C13.3016516,5.01514839 20.6541677,3.02624516 27.7241032,4.80147097 C36.7767484,7.06134194 42.8425548,14.417729 43.7986839,22.9299871 C43.8072,22.9981161 43.8157161,23.065471 43.8234581,23.1336 C43.8342968,23.233471 43.8412645,23.3325677 43.8490065,23.4324387 C43.875329,23.7065032 43.8962323,23.9844387 43.9101677,24.2685677 C43.9140387,24.3754065 43.9155871,24.4830194 43.9186839,24.5914065 C43.9202323,24.6231484 43.9210065,24.6548903 43.9217806,24.6866323 L43.9202323,24.6866323 C43.9202323,29.6592774 39.8456516,34.1867613 35.3708129,34.1867613 C27.4771355,34.1867613 26.7904258,30.0672774 25.8404903,24.3653419 C24.8704258,18.5480516 23.6634581,11.3093419 12.4926194,11.3093419 C10.1127484,11.3093419 7.89623226,11.9929548 6.00565161,13.1581161 L6.21855484,12.8290839 C6.89132903,11.7746323 7.66165161,10.8084387 8.51249032,9.9336 M47.8422968,24.7965677 C47.3189419,-0.633367742 13.4897806,-10.1110452 0.464748387,13.7194065 C1.04074839,14.1351484 1.83739355,14.6979871 2.41261935,15.113729 C1.70190968,16.6032774 1.16771613,18.113729 0.782941935,19.6265032 C0.330812903,20.9139871 0.0722322581,22.2912774 0.0722322581,23.7312774 L0.087716129,23.7312774 C0.0319741935,24.3986323 0.000232258065,25.0721806 0.000232258065,25.7542452 C0.000232258065,38.9511484 10.715071,49.6489548 23.931329,49.6489548 C37.1483613,49.6489548 47.8624258,38.9511484 47.8624258,25.7542452 C47.8624258,25.433729 47.8546839,25.1147613 47.8422968,24.7965677" id="Fill-1" fill="#052132" mask="url(#mask-2)"></path>
                        </g>
                    </g>
                </g>
            </g>
        </g>
    </g>
</svg>