<?xml version="1.0" encoding="UTF-8"?>
<svg width="80px" height="80px" viewBox="0 0 80 80" version="1.1" xmlns="http://www.w3.org/2000/svg" xmlns:xlink="http://www.w3.org/1999/xlink">
    <!-- Generator: Sketch 55.2 (78181) - https://sketchapp.com -->
    <title>Icon</title>
    <desc>Created with Sketch.</desc>
    <defs>
        <polygon id="path-1" points="0 -4.07089606e-05 47.612671 -4.07089606e-05 47.612671 49.3889806 0 49.3889806"></polygon>
    </defs>
    <g id="UBI19_INT01_ReDesign" stroke="none" stroke-width="1" fill="none" fill-rule="evenodd">
        <g id="UBI19_INT01_ReDesign_Desktop_1-2" transform="translate(-992.000000, -1024.000000)">
            <g id="USPs" transform="translate(744.000000, 1024.000000)">
                <g id="USP-Copy-4" transform="translate(208.000000, 0.000000)">
                    <g id="Icon" transform="translate(40.000000, 0.000000)">
                        <circle id="Oval" fill="#F0F0F0" cx="40" cy="40" r="40"></circle>
                        <g id="Group-3" transform="translate(16.000000, 15.000000)">
                            <mask id="mask-2" fill="white">
                                <use xlink:href="#path-1"></use>
                            </mask>
                            <g id="Clip-2"></g>
                            <path d="M28.5311226,45.1386581 C30.0098323,42.8547871 31.2454452,40.5507871 32.2518968,38.2429161 L39.1050581,38.2429161 C38.5778323,38.8831742 38.028929,39.4971097 37.4397677,40.0522065 C34.9801548,42.4467871 31.9306065,44.2189161 28.5311226,45.1386581 L28.5311226,45.1386581 Z M8.32312258,38.2429161 L15.3698323,38.2429161 C16.412671,40.6344 17.7032516,43.0212387 19.2531871,45.3864 C14.8913806,44.3784 11.0777032,41.7709161 8.32312258,38.2429161 L8.32312258,38.2429161 Z M3.99925161,27.4042065 L12.3791226,27.4042065 C12.6454452,29.7113032 13.1463484,32.0393032 13.8965419,34.3719484 L5.85421935,34.3719484 C5.54609032,33.7417548 5.2611871,33.0991742 5.02505806,32.4325935 C4.84234839,31.9704 4.59692903,31.2101419 4.3964129,30.2338839 C4.19434839,29.3141419 4.06196129,28.3688516 3.99925161,27.4042065 L3.99925161,27.4042065 Z M18.4836387,4.52988387 C16.6000258,7.1304 15.1375742,9.86407742 14.0955097,12.694529 L6.23434839,12.694529 C6.8931871,11.6725935 7.64105806,10.7327226 8.46867097,9.88188387 C11.1613161,7.11569032 14.6715097,5.2824 18.4836387,4.52988387 L18.4836387,4.52988387 Z M39.5858323,12.694529 L33.5285419,12.694529 C32.6103484,10.2024 31.3631226,7.78536774 29.7922839,5.46665806 C33.8521548,6.93917419 37.1982194,9.4824 39.5858323,12.694529 L39.5858323,12.694529 Z M35.4740903,23.5332387 C35.4702194,21.1727226 35.1992516,18.8454968 34.6782194,16.5654968 L41.8534452,16.5654968 C42.7368,18.5273032 43.3244129,20.6292387 43.5698323,22.8101419 C43.5783484,22.878271 43.5868645,22.9448516 43.5946065,23.0129806 C43.6054452,23.1120774 43.6116387,23.2111742 43.6201548,23.310271 C43.6271226,23.3830452 43.6302194,23.4589161 43.6364129,23.5332387 L35.4740903,23.5332387 Z M23.7195097,4.18227097 C23.7860903,4.18691613 23.852671,4.19465806 23.9192516,4.19930323 C26.2875097,6.88188387 28.1115097,9.72781935 29.3912516,12.694529 L18.2312516,12.694529 C19.5148645,9.72085161 21.3442839,6.86949677 23.7195097,4.18227097 L23.7195097,4.18227097 Z M16.8864774,16.5654968 L30.7360258,16.5654968 C31.340671,18.8369806 31.6495742,21.1649806 31.6557677,23.5332387 L15.9667355,23.5332387 C15.9721548,21.1649806 16.2818323,18.8369806 16.8864774,16.5654968 L16.8864774,16.5654968 Z M4.7804129,16.5654968 L12.9442839,16.5654968 C12.4224774,18.8454968 12.1530581,21.1727226 12.1484129,23.5332387 L4.16105806,23.5332387 C4.47460645,21.3531097 5.14660645,19.2511742 6.11202581,17.4209806 L4.7804129,16.5654968 Z M28.0108645,38.2429161 C26.8758968,40.5546581 25.4761548,42.870271 23.8100903,45.1750452 C22.1440258,42.870271 20.7435097,40.5546581 19.6100903,38.2429161 L28.0108645,38.2429161 Z M17.9540903,34.3719484 C17.1024774,32.0315613 16.524929,29.7043355 16.2222194,27.4042065 L31.3995097,27.4042065 C31.0960258,29.7043355 30.5184774,32.0315613 29.6676387,34.3719484 L17.9540903,34.3719484 Z M41.6033806,34.3719484 L33.7251871,34.3719484 C34.4753806,32.0393032 34.9755097,29.7120774 35.2433806,27.4042065 L43.5775742,27.4042065 C43.3677677,29.4101419 42.8792516,31.438529 42.0678968,33.4452387 C41.9262194,33.7673032 41.7582194,34.062271 41.6033806,34.3719484 L41.6033806,34.3719484 Z M47.5917677,24.6682065 C47.0715097,-0.630116129 13.4188645,-10.0582452 0.462735484,13.6475613 C1.03486452,14.0609806 1.82763871,14.6207226 2.39976774,15.0341419 C1.40725161,17.1159484 0.745316129,19.2364645 0.383767742,21.3492387 C0.132154839,22.7350452 -0.000232258065,24.1611097 -0.000232258065,25.6196903 C-0.000232258065,38.7469161 10.6580903,49.3889806 23.8062194,49.3889806 C36.9543484,49.3889806 47.612671,38.7469161 47.612671,25.6196903 C47.612671,25.3007226 47.604929,24.9840774 47.5917677,24.6682065 L47.5917677,24.6682065 Z" id="Fill-1" fill="#052132" mask="url(#mask-2)"></path>
                        </g>
                    </g>
                </g>
            </g>
        </g>
    </g>
</svg>