<?xml version="1.0" encoding="UTF-8"?>
<svg width="80px" height="80px" viewBox="0 0 80 80" version="1.1" xmlns="http://www.w3.org/2000/svg" xmlns:xlink="http://www.w3.org/1999/xlink">
    <!-- Generator: Sketch 55.2 (78181) - https://sketchapp.com -->
    <title>Icon</title>
    <desc>Created with Sketch.</desc>
    <defs>
        <polygon id="path-1" points="0 0 48 0 48 32 0 32"></polygon>
    </defs>
    <g id="UBI19_INT01_ReDesign" stroke="none" stroke-width="1" fill="none" fill-rule="evenodd">
        <g id="UBI19_INT01_ReDesign_Desktop_1-2" transform="translate(-784.000000, -1024.000000)">
            <g id="USPs" transform="translate(744.000000, 1024.000000)">
                <g id="USP-Copy-3">
                    <g id="Icon" transform="translate(40.000000, 0.000000)">
                        <circle id="Oval" fill="#F0F0F0" cx="40" cy="40" r="40"></circle>
                        <g id="Group-3" transform="translate(16.000000, 24.000000)">
                            <mask id="mask-2" fill="white">
                                <use xlink:href="#path-1"></use>
                            </mask>
                            <g id="Clip-2"></g>
                            <path d="M14.2892562,27.727998 L14.2407713,27.6969842 C14.0837466,27.5963253 13.9763085,27.440712 13.9371901,27.259526 C13.8986226,27.0777958 13.9333333,26.8922569 14.0363636,26.7377318 L14.0402204,26.7317467 L14.0573003,26.7050857 C14.0655647,26.6914831 14.0716253,26.6778806 14.0787879,26.664278 C14.6203857,25.8356102 15.1730028,25.0009572 15.7294766,24.1684807 L17.0396694,22.1819632 C17.1702479,21.984454 17.3900826,21.8663838 17.6292011,21.8663838 C17.7652893,21.8663838 17.8969697,21.9050151 18.0115702,21.979013 L18.0589532,22.0094827 C18.2165289,22.1106857 18.3245179,22.2657549 18.3630854,22.446941 C18.4016529,22.6275829 18.3669421,22.8131218 18.2650138,22.9676469 L18.1261708,23.1782145 C18.092562,23.2337129 18.0655647,23.2772411 18.0363636,23.3196811 L17.9735537,23.4121785 L17.9134986,23.5008672 L15.2600551,27.525592 C15.1294766,27.722557 14.9096419,27.8406272 14.6710744,27.8406272 C14.5355372,27.8406272 14.4033058,27.8014519 14.2892562,27.727998 L14.2892562,27.727998 Z M7.83746556,21.31412 L9.92011019,18.1545178 C10.0512397,17.9570087 10.2710744,17.8394826 10.5101928,17.8394826 C10.64573,17.8394826 10.7779614,17.8781138 10.892011,17.9515677 L10.9393939,17.9820374 C11.0969697,18.0832404 11.2049587,18.2388537 11.2440771,18.4194956 C11.2826446,18.6006817 11.2473829,18.7856765 11.1460055,18.9407457 L9.06170799,22.101436 C8.93112948,22.298401 8.71129477,22.4164713 8.47272727,22.4164713 C8.33719008,22.4164713 8.20495868,22.37784 8.09090909,22.3038421 L8.04242424,22.2728282 C7.7184573,22.0644371 7.62644628,21.6345962 7.83746556,21.31412 L7.83746556,21.31412 Z M23.7201102,5.14013456 L23.5151515,5.00519719 L23.3564738,5.19182428 L19.6859504,9.51526127 L16.7614325,9.51526127 L21.8600551,3.03772322 L29.4060606,3.04860527 L36.1752066,4.66186863 L36.2512397,4.68036811 L36.3256198,4.6558835 L38.9471074,3.80381928 L44.7206612,12.6890101 L41.1322314,16.5951206 L23.7201102,5.14013456 Z M10.4258953,24.6293354 L14.677135,18.1811788 C14.8071625,17.9842138 15.0275482,17.8661436 15.2661157,17.8661436 C15.4022039,17.8661436 15.5338843,17.905319 15.6484848,17.9787728 L15.6964187,18.0092425 C16.0209366,18.2181778 16.1129477,18.6485627 15.9013774,18.9684949 L11.6501377,25.4166514 C11.5206612,25.6141606 11.3002755,25.7316867 11.061708,25.7316867 C10.9261708,25.7316867 10.7933884,25.6930554 10.6793388,25.6196016 L10.631405,25.5885877 C10.3068871,25.3796525 10.214876,24.9498116 10.4258953,24.6293354 L10.4258953,24.6293354 Z M21.0176309,26.1598952 L18.9961433,29.2259117 C18.8666667,29.4228768 18.64573,29.540947 18.4077135,29.540947 C18.2721763,29.540947 18.1393939,29.5017716 18.0253444,29.4283178 L17.9768595,29.3973039 C17.7669421,29.2623666 17.6473829,29.0224174 17.6644628,28.7704981 C17.6721763,28.6350166 17.9090909,28.2427188 18.1719008,27.9102723 L18.1801653,27.8988462 L18.1884298,27.8868759 C18.7757576,26.9586374 19.7432507,25.4395037 19.8413223,25.3149043 C19.9785124,25.1516736 20.1774105,25.0591762 20.3867769,25.0591762 C20.5212121,25.0591762 20.6512397,25.0978075 20.7641873,25.1701731 L20.8126722,25.2011869 C21.1366391,25.4095781 21.2286501,25.839963 21.0176309,26.1598952 L21.0176309,26.1598952 Z M33.5096419,18.0935784 L33.2793388,17.9537441 L33.1327824,18.1779142 L32.0650138,19.8194709 L31.9140496,20.0512585 L32.1504132,20.197622 C32.1504132,20.197622 36.4815427,22.8697085 37.522314,23.510661 C37.1013774,24.2354053 36.569697,24.6026743 35.9393939,24.6026743 C35.5322314,24.6026743 35.0798898,24.4514139 34.5961433,24.1527017 C32.9355372,23.1281571 31.6672176,22.212977 31.6550964,22.2042713 L31.414876,22.0301586 L31.2578512,22.2799016 L30.1917355,23.9780449 L30.0545455,24.1962299 L30.2672176,24.3436816 C30.2853994,24.3567401 32.0842975,25.6081754 34.1961433,26.9210943 C33.8512397,27.4151392 33.338843,27.6937196 32.7597796,27.6937196 C32.4033058,27.6937196 32.0391185,27.5919725 31.6760331,27.3906546 C30.1856749,26.5652514 29.6842975,26.2665392 29.6798898,26.2638187 L29.4380165,26.1190875 L29.2980716,26.3617571 L28.2909091,28.1045168 L28.1553719,28.3384808 L28.3911846,28.4745064 L29.6424242,29.1959861 C29.2187328,30.0300949 28.7928375,30.1492533 28.4286501,30.1492533 C28.1823691,30.1492533 27.8953168,30.0855934 27.5498623,29.9555529 L24.0297521,28.6219581 L22.75427,28.1382512 C23.322865,27.3139362 23.815978,26.2404223 23.3889807,24.9302239 C22.9955923,23.7244932 22.1333333,22.9632941 20.8258953,22.6662142 C20.5030303,20.9403217 19.9917355,20.2694435 18.5129477,19.6573284 C18.7829201,17.8661436 18.0820937,16.5554011 16.476584,15.8584061 C16.0231405,15.661441 15.569697,15.5613262 15.1289256,15.5613262 C14.3052342,15.5613262 13.5195592,15.9030224 12.7889807,16.5777093 C12.1168044,15.9481829 11.4325069,15.6266185 10.6550964,15.57112 C10.5597796,15.5640467 10.4655647,15.5607821 10.3724518,15.5607821 C9.62644628,15.5607821 8.9553719,15.7740702 8.37465565,16.1962936 C7.45013774,15.3948309 6.04187328,14.1450279 5.5322314,13.6934229 L12.3151515,3.41859484 L16.8247934,5.0541664 L13.3002755,9.72474067 C12.9735537,10.1540374 12.9217631,10.7199038 13.1647383,11.2008902 C13.4077135,11.6818767 13.8975207,11.981133 14.4424242,11.981133 L20.9669421,11.9980001 L21.0969697,11.9980001 L21.1807163,11.8989735 L24.0352617,8.48309918 C25.630854,9.52505512 36.0137741,16.3083787 40.6727273,19.3792921 C41.3961433,19.8559258 41.5796143,20.527348 41.1652893,21.1748298 C40.8969697,21.5943327 40.5333333,21.8157823 40.1146006,21.8157823 C39.8495868,21.8157823 39.569146,21.7298141 39.2798898,21.5595101 C36.7173554,20.0479939 33.5410468,18.113166 33.5096419,18.0935784 L33.5096419,18.0935784 Z M36.1878788,2.27217126 L36.2931129,2.23626051 L36.1878788,2.27217126 Z M48,13.1199391 L47.8831956,12.9371207 L40.1564738,0.849887815 L40.0391185,0.667069437 L39.8330579,0.737802738 L36.1741047,1.98923806 L29.5889807,0.443443386 L29.5575758,0.435825954 L29.5250689,0.435825954 L20.4688705,0.418958782 L20.3311295,0.41841468 L20.2479339,0.527235143 L18.5482094,2.76023104 L11.5112948,0.0799830402 L11.3013774,-2.13162821e-14 L11.1801653,0.186627094 C11.1316804,0.261169111 0,17.2164854 0,17.2164854 L2.24683196,18.6708709 L4.0137741,16.039048 C4.97630854,16.8905681 6.08099174,17.8775697 6.65785124,18.4303777 C6.59449036,18.527772 6.52947658,18.6262545 6.46280992,18.7263694 C6.21212121,19.1061528 5.95206612,19.4989946 5.70523416,19.9076155 C5.16198347,20.8048402 5.06831956,21.8680161 5.44848485,22.8234598 C5.82975207,23.7810799 6.63305785,24.4982067 7.65123967,24.7914779 L7.82369146,24.839903 C8.14600551,27.1409116 9.21983471,28.0979876 11.5917355,28.2002789 C12.4236915,29.7928663 13.1834711,30.2346774 15.0066116,30.2346774 C15.1498623,30.2346774 15.3002755,30.232501 15.4578512,30.22706 C16.246281,31.4034092 17.1702479,31.9997453 18.2060606,31.9997453 C19.1972452,31.9997453 20.2451791,31.4436727 21.322314,30.3462184 C21.7917355,30.5230516 22.261157,30.7015172 22.7305785,30.8799828 C24.1030303,31.4017769 25.522314,31.9415264 26.9344353,32.4355713 C27.4192837,32.6058753 27.95427,32.6956522 28.4809917,32.6956522 C28.5862259,32.6956522 28.6903581,32.6918435 28.7928375,32.6847701 C30.1107438,32.5895522 31.1327824,31.865352 31.9195592,30.4713619 C32.0369146,30.2624266 32.1300275,30.2052959 32.3515152,30.2052959 C32.3741047,30.2052959 32.3977961,30.20584 32.4225895,30.2074723 C32.5013774,30.2118251 32.5801653,30.2140015 32.6589532,30.2140015 C34.0975207,30.2140015 35.5030303,29.4876249 36.4181818,28.2710122 C36.5917355,28.0397687 36.7581267,27.8036283 36.9250689,27.5669438 C37.0512397,27.38739 37.1774105,27.2078362 37.3068871,27.031003 L37.3250689,27.0065184 C37.3559229,26.9640784 37.4137741,26.8851836 37.4413223,26.8683164 C38.584022,26.4499017 39.2958678,25.5646472 39.8947658,24.670143 C40.0358127,24.4590313 40.1713499,24.3779601 40.430854,24.3491227 C42.2236915,24.1499812 43.584573,22.9039869 43.8964187,21.1748298 C44.0892562,20.1083892 43.8407713,19.0974471 43.1575758,18.1664881 C44.3449036,16.7665128 47.8093664,13.3098308 47.8451791,13.2739201 L48,13.1199391 Z" id="Fill-1" fill="#052132" mask="url(#mask-2)"></path>
                        </g>
                    </g>
                </g>
            </g>
        </g>
    </g>
</svg>