<?xml version="1.0" encoding="UTF-8"?>
<svg width="80px" height="80px" viewBox="0 0 80 80" version="1.1" xmlns="http://www.w3.org/2000/svg" xmlns:xlink="http://www.w3.org/1999/xlink">
    <!-- Generator: Sketch 55.2 (78181) - https://sketchapp.com -->
    <title>Icon</title>
    <desc>Created with Sketch.</desc>
    <defs>
        <polygon id="path-1" points="0 0.4782 47.5800304 0.4782 47.5800304 47.99976 0 47.99976"></polygon>
    </defs>
    <g id="UBI19_INT01_ReDesign" stroke="none" stroke-width="1" fill="none" fill-rule="evenodd">
        <g id="UBI19_INT01_ReDesign_Desktop_1-2" transform="translate(-992.000000, -1200.000000)">
            <g id="USPs" transform="translate(744.000000, 1024.000000)">
                <g id="USP-Copy-7" transform="translate(208.000000, 176.000000)">
                    <g id="Icon" transform="translate(40.000000, 0.000000)">
                        <circle id="Oval" fill="#F0F0F0" cx="40" cy="40" r="40"></circle>
                        <g id="Group-6" transform="translate(16.000000, 16.000000)">
                            <g id="Group-3" transform="translate(0.395062, 0.000000)">
                                <mask id="mask-2" fill="white">
                                    <use xlink:href="#path-1"></use>
                                </mask>
                                <g id="Clip-2"></g>
                                <path d="M36.4853468,36.48576 L34.9323342,40.97076 L32.2200304,36.57096 C34.7087392,35.42916 36.8966886,33.75876 38.6325873,31.70136 L41.8619544,37.01676 L36.4853468,36.48576 Z M11.9397266,29.05236 C11.7659544,28.82376 11.6049418,28.58676 11.4457519,28.34796 L11.4518278,28.33656 L11.4275241,28.32276 C10.8029165,27.38316 10.2852456,26.36796 9.89820759,25.29096 C9.75724557,24.93756 9.56646076,24.35616 9.41152405,23.60916 C9.19218228,22.62216 9.07248608,21.59856 9.07248608,20.54676 C9.07248608,18.16116 9.68737215,15.77916 10.7403342,13.80636 L9.1296,12.78396 L10.7980557,10.24236 C11.3163342,9.43956 11.9099544,8.70396 12.566157,8.03856 C16.2572962,4.29456 21.9237266,2.78196 27.372638,4.13256 C34.349043,5.85216 39.0238785,11.45136 39.7608911,17.92956 C39.7669671,17.98116 39.7742582,18.03216 39.7803342,18.08436 C39.7882329,18.15996 39.7930937,18.23556 39.8003848,18.31116 C39.8198278,18.52056 39.8362329,18.73176 39.8459544,18.94776 C39.8502076,19.02936 39.8508152,19.11156 39.8538532,19.19316 C39.8574987,19.32036 39.8647899,19.44456 39.8653975,19.57356 C39.8653975,19.61436 39.8629671,19.65456 39.8629671,19.69536 C39.8635747,19.90236 39.8574987,20.11056 39.8502076,20.31876 C39.8483848,20.35296 39.8477772,20.38776 39.8459544,20.42196 C39.7657519,22.28556 39.3653468,24.18876 38.5973468,26.06556 C37.6956759,28.08396 36.4646886,29.76756 35.0113215,31.11996 C32.2674228,33.75996 28.5738532,35.41236 24.4889924,35.54796 C19.3390177,35.71836 14.7765873,33.05136 11.9397266,29.05236 L11.9397266,29.05236 Z M12.8553722,41.16576 L11.2349165,36.36636 L6.06003038,37.38816 L9.79552405,31.11756 C11.4992203,33.31236 13.6981063,35.11236 16.2287392,36.35736 L12.8553722,41.16576 Z M40.5264608,28.98756 C42.0308658,26.35416 42.893043,23.31636 42.893043,20.07876 C42.893043,19.83456 42.8869671,19.59216 42.8772456,19.35036 C42.4738025,-0.00384 16.4012962,-7.21704 6.36382785,10.91916 C6.80737215,11.23596 7.42104304,11.66376 7.86519494,11.98056 C7.09537215,13.57296 6.58316962,15.19476 6.30246076,16.81116 C6.10742278,17.87136 6.00534684,18.96336 6.00534684,20.07876 C6.00534684,23.02056 6.7180557,25.79676 7.97577722,28.25556 L-0.000121518987,41.64456 L9.2012962,39.82716 L11.894157,47.80476 L19.1281823,37.49256 C20.8136506,37.99236 22.5987646,38.26416 24.4488911,38.26416 C26.1325367,38.26416 27.7614987,38.03736 29.3108658,37.62096 L35.7100557,47.99976 L38.5803342,39.70776 L47.5800304,40.59636 L40.5264608,28.98756 Z" id="Fill-1" fill="#052132" mask="url(#mask-2)"></path>
                            </g>
                            <path d="M26.4665745,22.0133476 L24.8947598,21.0343033 L23.3235489,22.0133476 L23.912904,20.2546716 L22.7341939,19.2780299 L24.1097582,19.2780299 L24.8947598,17.7151628 L25.6809691,19.2780299 L27.0559295,19.2780299 L25.8772195,20.2546716 L26.4665745,22.0133476 Z M35.3950617,16.2748265 L27.5468575,16.2748265 L24.8947598,11 L22.243266,16.2748265 L14.3950617,16.2748265 L20.3973046,21.2499333 L17.7995532,29 L24.8947598,24.5780833 L31.9905703,29 L29.3934227,21.2499333 L35.3950617,16.2748265 Z" id="Fill-4" fill="#052132"></path>
                        </g>
                    </g>
                </g>
            </g>
        </g>
    </g>
</svg>