<?xml version="1.0" encoding="UTF-8"?>
<svg width="80px" height="80px" viewBox="0 0 80 80" version="1.1" xmlns="http://www.w3.org/2000/svg" xmlns:xlink="http://www.w3.org/1999/xlink">
    <!-- Generator: Sketch 55.2 (78181) - https://sketchapp.com -->
    <title>Icon</title>
    <desc>Created with Sketch.</desc>
    <defs>
        <polygon id="path-1" points="0.000232258065 -0.00015483871 47.8624258 -0.00015483871 47.8624258 49.6486452 0.000232258065 49.6486452"></polygon>
    </defs>
    <g id="UBI19_INT01_ReDesign" stroke="none" stroke-width="1" fill="none" fill-rule="evenodd">
        <g id="UBI19_INT01_ReDesign_Desktop_1-2" transform="translate(-1200.000000, -1024.000000)">
            <g id="USPs" transform="translate(744.000000, 1024.000000)">
                <g id="USP-Copy-5" transform="translate(416.000000, 0.000000)">
                    <g id="Icon" transform="translate(40.000000, 0.000000)">
                        <circle id="Oval" fill="#F0F0F0" cx="40" cy="40" r="40"></circle>
                        <g id="Group-3" transform="translate(16.000000, 15.000000)">
                            <mask id="mask-2" fill="white">
                                <use xlink:href="#path-1"></use>
                            </mask>
                            <g id="Clip-2"></g>
                            <path d="M34.7801032,28.6308387 L38.4714581,29.7967742 C37.4495226,33.0298065 33.1481032,39.1436129 24.1736516,39.1436129 C13.0136516,39.1436129 9.68694194,30.2473548 9.55068387,29.8687742 L11.3723613,29.2138065 L13.1893935,28.5487742 C13.2915871,28.8228387 15.7968774,35.2726452 24.1736516,35.2726452 C32.5844903,35.2726452 34.7592,28.6974194 34.7801032,28.6308387 M28.6531355,18.9789677 C28.6531355,17.3500645 29.9785548,16.0246452 31.6066839,16.0246452 C33.2355871,16.0246452 34.5610065,17.3500645 34.5610065,18.9789677 C34.5610065,20.607871 33.2355871,21.9332903 31.6066839,21.9332903 C29.9785548,21.9332903 28.6531355,20.607871 28.6531355,18.9789677 M13.2683613,18.9789677 C13.2683613,17.3500645 14.5937806,16.0246452 16.2219097,16.0246452 C17.8515871,16.0246452 19.1770065,17.3500645 19.1770065,18.9789677 C19.1770065,20.607871 17.8515871,21.9332903 16.2219097,21.9332903 C14.5937806,21.9332903 13.2683613,20.607871 13.2683613,18.9789677 M43.931071,25.2507097 C43.931071,25.5224516 43.9248774,25.7965161 43.9148129,26.0690323 C43.9124903,26.1147097 43.9117161,26.1603871 43.9093935,26.2052903 C43.8048774,28.6540645 43.2853935,31.1547097 42.2890065,33.6205161 C41.1192,36.272129 39.5220387,38.4855484 37.635329,40.2615484 C34.0755871,43.7307097 29.283329,45.9023226 23.9832,46.0796129 C17.3011355,46.304129 11.3808774,42.7993548 7.6995871,37.5456774 C6.58242581,36.0553548 5.68590968,34.3908387 5.05107097,32.6024516 C4.8675871,32.1379355 4.62061935,31.3745806 4.42010323,30.392129 C4.13442581,29.0969032 3.9795871,27.7513548 3.9795871,26.3694194 C3.9795871,23.2347097 4.77700645,20.1046452 6.14423226,17.5134194 L4.05390968,16.1686452 L6.21778065,12.8295484 C6.89210323,11.7750968 7.66165161,10.808129 8.51249032,9.93406452 C13.3024258,5.01483871 20.6541677,3.02670968 27.7248774,4.80193548 C36.7767484,7.06180645 42.8425548,14.4181935 43.7979097,22.9304516 C43.8064258,22.9985806 43.8164903,23.0651613 43.8242323,23.1340645 C43.8342968,23.2331613 43.8404903,23.3330323 43.8497806,23.432129 C43.875329,23.7069677 43.8962323,23.984129 43.9093935,24.2682581 C43.9148129,24.3750968 43.9155871,24.4834839 43.9194581,24.5910968 C43.9248774,24.7575484 43.9333935,24.9209032 43.9341677,25.0912258 C43.9341677,25.1446452 43.931071,25.1965161 43.931071,25.2507097 M47.8422968,24.7970323 C47.3181677,-0.633677419 13.4897806,-10.1113548 0.465522581,13.7190968 C1.04074839,14.1348387 1.83661935,14.6976774 2.41261935,15.1134194 C1.41468387,17.2060645 0.749651613,19.3374194 0.385780645,21.4610323 C0.132619355,22.8545806 0.000232258065,24.2883871 0.000232258065,25.7539355 C0.000232258065,38.9508387 10.7142968,49.6486452 23.931329,49.6486452 C37.1483613,49.6486452 47.8624258,38.9508387 47.8624258,25.7539355 C47.8624258,25.4334194 47.8546839,25.1144516 47.8422968,24.7970323" id="Fill-1" fill="#052132" mask="url(#mask-2)"></path>
                        </g>
                    </g>
                </g>
            </g>
        </g>
    </g>
</svg>