<?xml version="1.0" encoding="UTF-8"?>
<svg width="22px" height="24px" viewBox="0 0 22 24" version="1.1" xmlns="http://www.w3.org/2000/svg" xmlns:xlink="http://www.w3.org/1999/xlink">
    <title>icon/Event</title>
    <defs>
        <path d="M29.4568285,12 C29.914364,12 30.2852803,12.4243878 30.2852803,12.9478819 L30.2852803,12.9478819 L30.2852803,14.0417375 L32.3305439,14.0417375 C33.8024728,14.0417375 35,15.4118481 35,17.0960235 L35,17.0960235 L35,32.945714 C35,34.6298368 33.8024728,36 32.3305439,36 L32.3305439,36 L15.6694561,36 C14.1975272,36 13,34.6298368 13,32.945714 L13,32.945714 L13,17.0959708 C13,15.4118481 14.1975272,14.0416849 15.6694561,14.0416849 L15.6694561,14.0416849 L17.7147197,14.0416849 L17.7147197,12.9478819 C17.7147197,12.4243878 18.085636,12 18.5431715,12 C19.0007071,12 19.3716234,12.4243878 19.3716234,12.9478819 L19.3716234,12.9478819 L19.3716234,14.0416849 L28.6283766,14.0416849 L28.6283766,12.9478819 C28.6283766,12.4243878 28.9992929,12 29.4568285,12 Z M33.3430962,23.0511966 L14.6569038,23.0511966 L14.6569038,32.9457667 C14.6569038,33.5845864 15.1111255,34.1042889 15.6694561,34.1042889 L15.6694561,34.1042889 L32.3305439,34.1042889 C32.8888745,34.1042889 33.3430962,33.5845864 33.3430962,32.9457667 L33.3430962,32.9457667 L33.3430962,23.0511966 Z M26.7319433,25.0273145 C27.0720964,24.714316 27.6112402,24.726025 27.9362502,25.0533294 C28.2613549,25.3806793 28.249335,25.8997921 27.9092764,26.2127907 L27.9092764,26.2127907 L23.6075786,30.1726546 C23.4427548,30.3244156 23.2307979,30.4 23.018983,30.4 C22.8007322,30.4 22.5827654,30.3197685 22.4166166,30.1598067 L22.4166166,30.1598067 L20.0770934,27.907402 C19.7444171,27.5871594 19.7444171,27.0679099 20.0770934,26.7476673 C20.4097223,26.4274247 20.9490553,26.4274247 21.2816843,26.7476673 L21.2816843,26.7476673 L23.0322333,28.4329843 Z M17.7147197,15.9375012 L15.6694561,15.9375012 C15.1111255,15.9375012 14.6569038,16.4572038 14.6569038,17.0960235 L14.6569038,17.0960235 L14.6569038,21.1554855 L33.3430962,21.1554855 L33.3430962,17.0960235 C33.3430962,16.4572038 32.8888745,15.9375012 32.3305439,15.9375012 L32.3305439,15.9375012 L30.2852343,15.9375012 L30.2852343,18.2563889 C30.2852343,18.779883 29.914318,19.2042707 29.4567824,19.2042707 C28.9992469,19.2042707 28.6283305,18.779883 28.6283305,18.2563889 L28.6283305,18.2563889 L28.6283305,15.9375012 L19.3716234,15.9375012 L19.3716234,18.2563889 C19.3716234,18.779883 19.0007071,19.2042707 18.5431715,19.2042707 C18.085636,19.2042707 17.7147197,18.779883 17.7147197,18.2563889 L17.7147197,18.2563889 L17.7147197,15.9375012 Z" id="path-1"></path>
        <rect id="path-3" x="0" y="0" width="48" height="48"></rect>
    </defs>
    <g id="Symbols" stroke="none" stroke-width="1" fill="none" fill-rule="evenodd">
        <g id="Desktop/Teaser/Event" transform="translate(-173.000000, -188.000000)">
            <g id="Desktop/Teaser/Image">
                <g id="icon/Event" transform="translate(160.000000, 176.000000)">
                    <mask id="mask-2" fill="white">
                        <use xlink:href="#path-1"></use>
                    </mask>
                    <use id="Combined-Shape" fill="#1A1A1A" fill-rule="nonzero" xlink:href="#path-1"></use>
                    <g id="color/white" mask="url(#mask-2)">
                        <mask id="mask-4" fill="white">
                            <use xlink:href="#path-3"></use>
                        </mask>
                        <use id="Rectangle-Copy" fill="#FFFFFF" fill-rule="evenodd" xlink:href="#path-3"></use>
                    </g>
                </g>
            </g>
        </g>
    </g>
</svg>