<?xml version="1.0" encoding="UTF-8"?>
<svg width="48px" height="36px" viewBox="0 0 48 36" version="1.1" xmlns="http://www.w3.org/2000/svg" xmlns:xlink="http://www.w3.org/1999/xlink">
    <title>icon/live</title>
    <defs>
        <path d="M37.907034,0.656887299 C38.7665466,-0.218962433 40.1316549,-0.218962433 40.9911675,0.656887299 C50.3446871,10.1881932 50.3446871,25.7474061 40.9406079,35.3302326 C40.5361314,35.7939177 39.9799762,36 39.423821,36 C38.8676658,36 38.3115105,35.7423971 37.907034,35.3302326 C37.0475214,34.4543828 37.0475214,33.0633274 37.907034,32.1874776 C45.5920879,24.3563506 45.5920879,11.6307692 37.907034,3.79964222 C37.0475214,2.92379249 37.0475214,1.53273703 37.907034,0.656887299 Z M7.01513967,0.656887299 C7.87465228,-0.218962433 9.23976054,-0.218962433 10.0992732,0.656887299 C10.9587858,1.53273703 10.9587858,2.92379249 10.0992732,3.79964222 C2.41421924,11.6307692 2.41421924,24.3563506 10.0487136,32.1359571 C10.9082262,33.0118068 10.9082262,34.4028623 10.0487136,35.278712 C9.64423706,35.7423971 9.08808185,35.9484794 8.53192663,35.9484794 C7.97577141,35.9484794 7.41961619,35.6908766 7.01513967,35.278712 C-2.33837989,25.7474061 -2.33837989,10.1881932 7.01513967,0.656887299 Z M30.6770162,7.97280859 C31.5365288,7.09695886 32.9016371,7.09695886 33.7611497,7.97280859 C39.1710231,13.4855098 39.2215827,22.4500894 33.7105901,27.9627907 C33.3061136,28.4264758 32.7499584,28.6325581 32.1938031,28.6325581 C31.6376479,28.6325581 31.0814927,28.3749553 30.6770162,27.9627907 C29.8175036,27.086941 29.8175036,25.6958855 30.6770162,24.8200358 C34.418424,21.059034 34.3678645,14.8765653 30.6770162,11.1155635 C29.8175036,10.2397138 29.8175036,8.84865832 30.6770162,7.97280859 Z M14.1945979,7.97280859 C15.0541105,7.09695886 16.4192188,7.09695886 17.2787314,7.97280859 C18.138244,8.84865832 18.138244,10.2397138 17.2787314,11.1155635 C13.5878832,14.8765653 13.5878832,21.059034 17.2281718,24.8200358 C18.0876845,25.6958855 18.0876845,27.086941 17.2281718,27.9627907 C16.8236953,28.4264758 16.2675401,28.6325581 15.7113849,28.6325581 C15.1552297,28.6325581 14.5990745,28.3749553 14.1945979,27.9627907 C8.78472446,22.4500894 8.78472446,13.4855098 14.1945979,7.97280859 Z M24.0031536,14.5867621 C25.830859,14.5867621 27.3125069,16.1005042 27.3125069,17.9677996 C27.3125069,19.8350951 25.830859,21.3488372 24.0031536,21.3488372 C22.1754482,21.3488372 20.6938002,19.8350951 20.6938002,17.9677996 C20.6938002,16.1005042 22.1754482,14.5867621 24.0031536,14.5867621 Z" id="path-1"></path>
        <rect id="path-3" x="0" y="0" width="72" height="72"></rect>
    </defs>
    <g id="UBI19_INT01_ReDesign_Desktop" stroke="none" stroke-width="1" fill="none" fill-rule="evenodd">
        <g id="UBI19_INT01_ReDesign_Desktop_1-4" transform="translate(-964.000000, -434.000000)">
            <g id="icon/live" transform="translate(952.000000, 416.000000)">
                <g id="Group" transform="translate(12.000000, 18.000000)">
                    <mask id="mask-2" fill="white">
                        <use xlink:href="#path-1"></use>
                    </mask>
                    <use id="Combined-Shape" fill="#000000" fill-rule="nonzero" xlink:href="#path-1"></use>
                    <g id="color/black" mask="url(#mask-2)">
                        <g transform="translate(-12.000000, -18.000000)">
                            <mask id="mask-4" fill="white">
                                <use xlink:href="#path-3"></use>
                            </mask>
                            <use id="Rectangle-Copy" stroke="none" fill="#000000" fill-rule="evenodd" xlink:href="#path-3"></use>
                        </g>
                    </g>
                </g>
            </g>
        </g>
    </g>
</svg>