<?xml version="1.0" encoding="UTF-8"?>
<svg width="32px" height="24px" viewBox="0 0 32 24" version="1.1" xmlns="http://www.w3.org/2000/svg" xmlns:xlink="http://www.w3.org/1999/xlink">
    <title>icon/Event</title>
    <defs>
        <path d="M25.271356,0.437924866 C25.8443644,-0.145974955 26.7544366,-0.145974955 27.327445,0.437924866 C33.5631247,6.7921288 33.5631247,17.1649374 27.2937386,23.5534884 C27.0240876,23.8626118 26.6533175,24 26.2825473,24 C25.9117772,24 25.541007,23.8282648 25.271356,23.5534884 C24.6983476,22.9695886 24.6983476,22.0422182 25.271356,21.4583184 C30.3947253,16.2375671 30.3947253,7.75384615 25.271356,2.53309481 C24.6983476,1.94919499 24.6983476,1.02182469 25.271356,0.437924866 Z M4.67675978,0.437924866 C5.24976819,-0.145974955 6.15984036,-0.145974955 6.73284877,0.437924866 C7.30585717,1.02182469 7.30585717,1.94919499 6.73284877,2.53309481 C1.60947949,7.75384615 1.60947949,16.2375671 6.69914239,21.4239714 C7.2721508,22.0078712 7.2721508,22.9352415 6.69914239,23.5191413 C6.42949138,23.8282648 6.05872123,23.965653 5.68795109,23.965653 C5.31718094,23.965653 4.9464108,23.7939177 4.67675978,23.5191413 C-1.55891993,17.1649374 -1.55891993,6.7921288 4.67675978,0.437924866 Z M20.4513441,5.31520572 C21.0243525,4.7313059 21.9344247,4.7313059 22.5074331,5.31520572 C26.1140154,8.99033989 26.1477218,14.9667263 22.4737267,18.6418605 C22.2040757,18.9509839 21.8333056,19.0883721 21.4625354,19.0883721 C21.0917653,19.0883721 20.7209951,18.9166369 20.4513441,18.6418605 C19.8783357,18.0579606 19.8783357,17.1305903 20.4513441,16.5466905 C22.945616,14.039356 22.9119096,9.9177102 20.4513441,7.41037567 C19.8783357,6.82647585 19.8783357,5.89910555 20.4513441,5.31520572 Z M9.46306529,5.31520572 C10.0360737,4.7313059 10.9461459,4.7313059 11.5191543,5.31520572 C12.0921627,5.89910555 12.0921627,6.82647585 11.5191543,7.41037567 C9.05858877,9.9177102 9.05858877,14.039356 11.4854479,16.5466905 C12.0584563,17.1305903 12.0584563,18.0579606 11.4854479,18.6418605 C11.2157969,18.9509839 10.8450267,19.0883721 10.4742566,19.0883721 C10.1034864,19.0883721 9.7327163,18.9166369 9.46306529,18.6418605 C5.85648297,14.9667263 5.85648297,8.99033989 9.46306529,5.31520572 Z M16.0021024,9.72450805 C17.2205727,9.72450805 18.208338,10.7336694 18.208338,11.9785331 C18.208338,13.2233968 17.2205727,14.2325581 16.0021024,14.2325581 C14.7836321,14.2325581 13.7958668,13.2233968 13.7958668,11.9785331 C13.7958668,10.7336694 14.7836321,9.72450805 16.0021024,9.72450805 Z" id="path-1"></path>
        <rect id="path-3" x="0" y="0" width="48" height="48"></rect>
    </defs>
    <g id="Symbols" stroke="none" stroke-width="1" fill="none" fill-rule="evenodd">
        <g id="Desktop/Teaser/Event" transform="translate(-168.000000, -188.000000)">
            <g id="Desktop/Teaser/Image">
                <g id="icon/live" transform="translate(160.000000, 176.000000)">
                    <g id="Group" transform="translate(8.000000, 12.000000)">
                        <mask id="mask-2" fill="white">
                            <use xlink:href="#path-1"></use>
                        </mask>
                        <use id="Combined-Shape" fill="#000000" fill-rule="nonzero" xlink:href="#path-1"></use>
                        <g id="color/white" mask="url(#mask-2)">
                            <g transform="translate(-8.000000, -12.000000)">
                                <mask id="mask-4" fill="white">
                                    <use xlink:href="#path-3"></use>
                                </mask>
                                <use id="Rectangle-Copy" stroke="none" fill="#FFFFFF" fill-rule="evenodd" xlink:href="#path-3"></use>
                            </g>
                        </g>
                    </g>
                </g>
            </g>
        </g>
    </g>
</svg>