<?xml version="1.0" encoding="UTF-8"?>
<svg width="24px" height="24px" viewBox="0 0 24 24" version="1.1" xmlns="http://www.w3.org/2000/svg" xmlns:xlink="http://www.w3.org/1999/xlink">
    <!-- Generator: Sketch 55.2 (78181) - https://sketchapp.com -->
    <title>Group 8</title>
    <desc>Created with Sketch.</desc>
    <defs>
        <polygon id="path-1" points="0.0006 0.0004 24 0.0004 24 24 0.0006 24"></polygon>
        <polygon id="path-3" points="0 24 24 24 24 0 0 0"></polygon>
    </defs>
    <g id="Symbols" stroke="none" stroke-width="1" fill="none" fill-rule="evenodd">
        <g id="Desktop/Footer" transform="translate(-472.000000, -384.000000)">
            <g id="Footer">
                <g id="Icons" transform="translate(432.000000, 384.000000)">
                    <g id="Group-8" transform="translate(40.000000, 0.000000)">
                        <g id="Group-3">
                            <mask id="mask-2" fill="white">
                                <use xlink:href="#path-1"></use>
                            </mask>
                            <g id="Clip-2"></g>
                            <path d="M20.4846,0.0004 L3.5156,0.0004 C1.5776,0.0004 0.000599999999,1.5774 0.000599999999,3.5164 L0.000599999999,20.4844 C0.000599999999,22.4234 1.5776,24.0004 3.5156,24.0004 L20.4846,24.0004 C22.4226,24.0004 24.0006,22.4234 24.0006,20.4844 L24.0006,3.5164 C24.0006,1.5774 22.4226,0.0004 20.4846,0.0004" id="Fill-1" fill="#FFFFFF" mask="url(#mask-2)"></path>
                        </g>
                        <mask id="mask-4" fill="white">
                            <use xlink:href="#path-3"></use>
                        </mask>
                        <g id="Clip-5"></g>
                        <polygon id="Fill-4" fill="#000000" mask="url(#mask-4)" points="5.672 19.032 8.485 19.032 8.485 9.188 5.672 9.188"></polygon>
                        <polygon id="Fill-6" fill="#000000" mask="url(#mask-4)" points="5.672 7.782 8.485 7.782 8.485 4.969 5.672 4.969"></polygon>
                        <path d="M18.3283,19.0316 L15.5153,19.0316 L15.5153,13.4066 C15.5153,12.6316 14.8853,12.0006 14.1093,12.0006 C13.3343,12.0006 12.7033,12.6316 12.7033,13.4066 L12.7033,19.0316 L9.8903,19.0316 L9.8903,9.1876 L12.7033,9.1876 L12.7033,9.7176 C13.4393,9.4886 13.9183,9.1876 14.8123,9.1876 C16.7203,9.1896 18.3283,10.9006 18.3283,12.9236 L18.3283,19.0316 Z" id="Fill-7" fill="#000000" mask="url(#mask-4)"></path>
                    </g>
                </g>
            </g>
        </g>
    </g>
</svg>