<?xml version="1.0" encoding="UTF-8"?>
<svg width="24px" height="24px" viewBox="0 0 24 24" version="1.1" xmlns="http://www.w3.org/2000/svg" xmlns:xlink="http://www.w3.org/1999/xlink">
    <!-- Generator: Sketch 55.2 (78181) - https://sketchapp.com -->
    <title>Group 6</title>
    <desc>Created with Sketch.</desc>
    <defs>
        <polygon id="path-1" points="1.26298971e-12 0.0004 23.9999 0.0004 23.9999 24 1.26298971e-12 24"></polygon>
    </defs>
    <g id="Symbols" stroke="none" stroke-width="1" fill="none" fill-rule="evenodd">
        <g id="Desktop/Footer" transform="translate(-552.000000, -384.000000)">
            <g id="Footer">
                <g id="Icons" transform="translate(432.000000, 384.000000)">
                    <g id="Group-6" transform="translate(120.000000, 0.000000)">
                        <g id="Group-3">
                            <mask id="mask-2" fill="white">
                                <use xlink:href="#path-1"></use>
                            </mask>
                            <g id="Clip-2"></g>
                            <path d="M20.4839,0.0004 L3.5149,0.0004 C1.5779,0.0004 -0.000100000001,1.5774 -0.000100000001,3.5164 L-0.000100000001,20.4844 C-0.000100000001,22.4234 1.5779,24.0004 3.5149,24.0004 L20.4839,24.0004 C22.4219,24.0004 23.9999,22.4234 23.9999,20.4844 L23.9999,3.5164 C23.9999,1.5774 22.4219,0.0004 20.4839,0.0004" id="Fill-1" fill="#FFFFFF" mask="url(#mask-2)"></path>
                        </g>
                        <path d="M8.3306,12.6107 C8.3486,12.5667 8.5236,11.8897 8.5366,11.8437 C8.2616,11.4297 7.9556,10.0757 8.1896,8.9767 C8.4426,7.3637 10.1516,6.5707 11.7666,6.5707 L11.7666,6.5677 C13.7866,6.5687 15.2996,7.6927 15.3016,9.6297 C15.3026,11.1447 14.3896,13.1477 12.8306,13.1477 L12.8296,13.1477 C12.2726,13.1477 11.5676,12.8957 11.3836,12.6477 C11.1706,12.3627 11.1176,12.0097 11.2306,11.6327 C11.5066,10.7527 11.8586,9.6967 11.8996,8.9927 C11.9376,8.3287 11.4666,7.8967 10.8546,7.8967 C10.3946,7.8967 9.7986,8.1637 9.5006,8.9147 C9.2546,9.5387 9.2596,10.1907 9.5166,10.9107 C9.6166,11.1917 9.0726,13.0247 8.8986,13.6217 C8.4656,15.1047 7.8726,16.9807 7.9996,18.0257 L8.1216,19.0317 L8.7356,18.2257 C9.5866,17.1137 10.4656,14.2347 10.6996,13.5337 C11.3926,14.4307 12.8346,14.4567 13.0026,14.4567 C15.0666,14.4567 17.4086,12.4057 17.3426,9.5517 C17.2836,7.0487 15.4526,4.9687 12.1616,4.9687 L12.1616,4.9717 C9.0306,4.9717 7.2036,6.6427 6.7566,8.7547 C6.3476,10.7117 7.2576,12.2017 8.3306,12.6107" id="Fill-4" fill="#000000"></path>
                    </g>
                </g>
            </g>
        </g>
    </g>
</svg>