<?xml version="1.0" encoding="UTF-8"?>
<svg width="39px" height="32px" viewBox="0 0 39 32" version="1.1" xmlns="http://www.w3.org/2000/svg" xmlns:xlink="http://www.w3.org/1999/xlink">
    <title>Icon_Twitter</title>
    <g id="UBI19_INT01_ReDesign_Desktop" stroke="none" stroke-width="1" fill="none" fill-rule="evenodd">
        <g id="UBI19_INT01_ReDesign_Desktop_1-0" transform="translate(-140.000000, -3560.000000)" fill="#000000">
            <g id="Icon_Twitter_Speechbubble" transform="translate(120.000000, 3536.000000)">
                <path d="M34.5503754,56 C32.863803,56 31.1272918,55.8611918 29.3817007,55.5881265 C26.3036494,55.1034355 23.1915488,53.4900746 22.3085385,53.0099348 L20,51.7424566 L22.4992142,50.9187096 C25.2345032,50.0153185 26.9006461,49.4555346 28.9594901,48.57945 C26.8961062,47.5804861 25.3094116,45.778255 24.5421687,43.4503731 L23.9610616,41.6799997 L24.437751,41.7505415 C23.9860311,41.2954327 23.6273791,40.8312216 23.3504453,40.4079704 C22.3652872,38.9083867 21.8431989,37.0765735 21.9544264,35.5041724 L22.063384,33.9568023 L22.9872534,34.3186138 C22.5968221,33.5790619 22.3153483,32.7917236 22.151912,31.965701 C21.747861,29.9541198 22.0860835,27.8151082 23.1007508,25.9446108 L23.9065829,24.4655069 L24.9825389,25.7602917 C28.382923,29.858547 32.6935568,32.2865527 37.8077528,32.9987981 C37.5989174,31.556103 37.7555439,30.1634699 38.2730924,28.9141961 C38.874629,27.4601233 39.948315,26.2267782 41.3761131,25.3484181 C42.9582679,24.3744852 44.878645,23.901172 46.7831325,24.0172247 C48.8011175,24.1423797 50.6352366,24.9001359 52.0925441,26.2108494 C52.8030382,26.0265303 53.3251266,25.828558 54.0356207,25.5623193 C54.4601013,25.4007557 54.9436005,25.2187121 55.549677,25.009362 L57.7764973,24.2402281 L56.3259997,28.3999231 C56.4213375,28.3908209 56.5189453,28.3839943 56.623363,28.3794432 L59,28.2724926 L57.5949013,30.1998786 C57.5154531,30.3091047 57.4927536,30.3409624 57.4655142,30.3841977 C57.3520168,30.5548635 57.2112799,30.7687647 55.2818229,33.353783 C54.7983237,34.0000376 54.5554391,34.841989 54.6008381,35.7271757 C54.7710843,39.0813281 54.3624935,42.1191797 53.3796054,44.7565356 C52.4511961,47.245981 51.0097782,49.3849927 49.1007508,51.1098553 C46.7377335,53.2420403 43.7232408,54.7029397 40.1435306,55.4493183 C38.3865898,55.8156809 36.5002619,56 34.5503754,56" id="Icon_Twitter"></path>
            </g>
        </g>
    </g>
</svg>