<?xml version="1.0" standalone="no"?>
<!DOCTYPE svg PUBLIC "-//W3C//DTD SVG 1.1//EN" "http://www.w3.org/Graphics/SVG/1.1/DTD/svg11.dtd" >
<svg>
<metadata>
Created by FontForge 20090622 at Fri Aug  2 18:42:59 2019
 By deploy user
Copyright &#194;&#169; 2017 by The Entente (AS&#38;EH). All rights reserved.
</metadata>
<defs>
<font id="UbisoftSans-Regular" horiz-adv-x="780" >
  <font-face 
    font-family="Ubisoft Sans"
    font-weight="400"
    font-stretch="normal"
    units-per-em="1000"
    panose-1="2 0 5 4 3 0 0 2 0 4"
    ascent="800"
    descent="-200"
    x-height="490"
    cap-height="700"
    bbox="-357 -223 1092 946"
    underline-thickness="50"
    underline-position="-50"
    unicode-range="U+0020-U+FB02"
  />
<missing-glyph horiz-adv-x="505" 
d="M414 800v-1010h-320v1010h320zM336 732h-166v-33h65v-37h-66v-34h167v34h-66v37h66v33zM270 602h-101v-105h167v34h-66v71zM235 568v-37h-33v37h33zM336 470h-167v-34h66v-37h-66v-33h101v70h66v34zM336 409h-33v-67h-134v-34h167v101zM336 286h-101v-57h35v24h33v-48
h-101v81h-33v-114h167v114zM336 111h-167v-114h167v114zM303 78v-48h-101v48h101zM336 -26h-167v-34h70l-70 -47v-33h167v33h-103l71 47h32v34z" />
    <glyph glyph-name="fi" unicode="fi" horiz-adv-x="528" 
d="M456 490v-490h-84v418h-190v-418h-84v418h-60v72h60v60q0 75 41.5 118.5t103.5 43.5q34 0 58 -12v-80q-22 11 -45 11q-74 0 -74 -81v-60h274zM414 588q-23 0 -39.5 16.5t-16.5 39.5t16.5 39.5t39.5 16.5t39.5 -16.5t16.5 -39.5t-16.5 -39.5t-39.5 -16.5z" />
    <glyph glyph-name="fl" unicode="fl" horiz-adv-x="498" 
d="M98 0v418h-60v72h60v60q0 75 41.5 118.5t103.5 43.5h205v-712h-84v631h-108q-74 0 -74 -81v-60h104v-72h-104v-418h-84z" />
    <glyph glyph-name=".notdef" horiz-adv-x="505" 
d="M414 800v-1010h-320v1010h320zM336 732h-166v-33h65v-37h-66v-34h167v34h-66v37h66v33zM270 602h-101v-105h167v34h-66v71zM235 568v-37h-33v37h33zM336 470h-167v-34h66v-37h-66v-33h101v70h66v34zM336 409h-33v-67h-134v-34h167v101zM336 286h-101v-57h35v24h33v-48
h-101v81h-33v-114h167v114zM336 111h-167v-114h167v114zM303 78v-48h-101v48h101zM336 -26h-167v-34h70l-70 -47v-33h167v33h-103l71 47h32v34z" />
    <glyph glyph-name=".null" horiz-adv-x="0" 
 />
    <glyph glyph-name="nonmarkingreturn" horiz-adv-x="333" 
 />
    <glyph glyph-name="space" unicode=" " horiz-adv-x="230" 
 />
    <glyph glyph-name="exclam" unicode="!" horiz-adv-x="250" 
d="M97 198l-16 216v286h88v-286l-16 -216h-56zM125 -12q-24 0 -41.5 17.5t-17.5 41.5t17.5 41.5t41.5 17.5t41.5 -17.5t17.5 -41.5t-17.5 -41.5t-41.5 -17.5z" />
    <glyph glyph-name="quotedbl" unicode="&#x22;" horiz-adv-x="312" 
d="M52 480l-12 154v66h82v-66l-12 -154h-58zM202 480l-12 154v66h82v-66l-12 -154h-58z" />
    <glyph glyph-name="numbersign" unicode="#" horiz-adv-x="676" 
d="M628 463h-123v-226h123v-74h-123v-163h-74v163h-186v-163h-74v163h-123v74h123v226h-123v74h123v163h74v-163h186v163h74v-163h123v-74zM431 237v226h-186v-226h186z" />
    <glyph glyph-name="dollar" unicode="$" horiz-adv-x="545" 
d="M505 195q0 -85 -55.5 -140t-137.5 -65v-90h-60v89q-73 6 -128.5 44t-83.5 106l78 58q38 -106 134 -121v254q-79 29 -132 78t-53 121q0 75 53 124t132 58v89h60v-89q127 -12 181 -126l-73 -52q-36 77 -108 92v-227q2 -1 6.5 -2.5t6.5 -2.5q180 -65 180 -198zM155 533
q0 -36 23 -61.5t74 -49.5v204q-42 -6 -69.5 -29.5t-27.5 -63.5zM312 76q101 13 101 112q0 42 -22.5 68.5t-78.5 50.5v-231z" />
    <glyph glyph-name="percent" unicode="%" horiz-adv-x="722" 
d="M206 402q-66 0 -111 43.5t-45 112.5q0 67 45 110.5t111 43.5t111 -43.5t45 -110.5q0 -69 -45 -112.5t-111 -43.5zM206 465q39 0 62.5 25.5t23.5 67.5q0 41 -23.5 66t-62.5 25t-62.5 -25t-23.5 -66q0 -42 23.5 -67.5t62.5 -25.5zM133 147l-38 57l494 349l38 -57zM516 -12
q-66 0 -111 43.5t-45 112.5q0 67 45 110.5t111 43.5t111 -43.5t45 -110.5q0 -69 -45 -112.5t-111 -43.5zM516 51q39 0 62.5 25.5t23.5 67.5q0 41 -23.5 66t-62.5 25t-62.5 -25t-23.5 -66q0 -42 23.5 -67.5t62.5 -25.5z" />
    <glyph glyph-name="ampersand" unicode="&#x26;" horiz-adv-x="687" 
d="M292 -12q-108 0 -173.5 54.5t-65.5 153.5q0 61 32 105.5t79 62.5q-40 18 -68 61t-28 94q0 85 58.5 133t148.5 48h105v-86h-83q-77 0 -107 -30.5t-30 -73.5q0 -106 137 -106h162v106h92v-106h76v-86h-76q0 -151 -64.5 -240.5t-194.5 -89.5zM288 74q82 0 126.5 54.5
t44.5 189.5h-165q-74 0 -111.5 -32t-37.5 -90q0 -54 39 -88t104 -34z" />
    <glyph glyph-name="quotesingle" unicode="'" horiz-adv-x="162" 
d="M52 480l-12 154v66h82v-66l-12 -154h-58z" />
    <glyph glyph-name="parenleft" unicode="(" horiz-adv-x="337" 
d="M126 350q0 -211 171 -369l-56 -60q-201 171 -201 429t201 429l56 -60q-171 -158 -171 -369z" />
    <glyph glyph-name="parenright" unicode=")" horiz-adv-x="337" 
d="M96 779q201 -171 201 -429t-201 -429l-56 60q171 158 171 369t-171 369z" />
    <glyph glyph-name="asterisk" unicode="*" horiz-adv-x="426" 
d="M245 522l89 -35l48 -28l-30 -52l-48 28l-75 59l14 -94v-56h-60v56l14 94l-75 -59l-48 -28l-30 52l48 28l89 35l-89 35l-48 28l30 52l48 -28l75 -59l-14 94v56h60v-56l-14 -94l75 59l48 28l30 -52l-48 -28z" />
    <glyph glyph-name="plus" unicode="+" horiz-adv-x="555" 
d="M503 355v-76h-187v-186h-76v186h-188v76h188v189h76v-189h187z" />
    <glyph glyph-name="comma" unicode="," horiz-adv-x="207" 
d="M20 -62l67 186h90l-67 -186h-90z" />
    <glyph glyph-name="hyphen" unicode="-" horiz-adv-x="435" 
d="M60 269v74h315v-74h-315z" />
    <glyph glyph-name="period" unicode="." horiz-adv-x="224" 
d="M112 -12q-24 0 -41.5 17.5t-17.5 41.5t17.5 41.5t41.5 17.5t41.5 -17.5t17.5 -41.5t-17.5 -41.5t-41.5 -17.5z" />
    <glyph glyph-name="slash" unicode="/" horiz-adv-x="481" 
d="M26 -100l327 900h86l-327 -900h-86z" />
    <glyph glyph-name="zero" unicode="0" horiz-adv-x="636" 
d="M318 -12q-127 0 -197.5 102t-70.5 260t70.5 260t197.5 102t197.5 -102t70.5 -260t-70.5 -260t-197.5 -102zM318 74q74 0 124 70.5t50 205.5t-50 205.5t-124 70.5t-124 -70.5t-50 -205.5t50 -205.5t124 -70.5z" />
    <glyph glyph-name="one" unicode="1" horiz-adv-x="346" 
d="M196 0v551l-95 -96l-61 61l183 184h65v-700h-92z" />
    <glyph glyph-name="two" unicode="2" horiz-adv-x="579" 
d="M213 86h293v-86h-441v47l249 282q57 65 77 102t20 83q0 44 -33.5 78t-97.5 34q-100 0 -144 -109l-71 45q22 65 80.5 107.5t134.5 42.5q93 0 158.5 -54.5t65.5 -146.5q0 -57 -24 -102t-75 -104z" />
    <glyph glyph-name="three" unicode="3" horiz-adv-x="600" 
d="M322 433q93 5 152 -56.5t59 -154.5q0 -104 -68 -169t-171 -65q-79 0 -139 38.5t-91 104.5l71 51q57 -108 159 -108q64 0 104.5 37t40.5 111q0 64 -38.5 99.5t-94.5 35.5q-59 0 -107 -44l-45 49l222 252h-285v86h405v-63z" />
    <glyph glyph-name="four" unicode="4" horiz-adv-x="600" 
d="M457 234h92v-86h-92v-148h-94v148h-331v70l381 482h44v-466zM147 234h216v275z" />
    <glyph glyph-name="five" unicode="5" horiz-adv-x="571" 
d="M286 -12q-88 0 -145.5 39.5t-82.5 97.5l76 55q43 -106 152 -106q66 0 108.5 42.5t42.5 114.5q0 69 -43.5 108t-108.5 39q-74 0 -120 -59l-89 33l64 348h358v-86h-287l-40 -198q52 46 136 46q102 0 163 -64t61 -167q0 -102 -70 -172.5t-175 -70.5z" />
    <glyph glyph-name="six" unicode="6" horiz-adv-x="626" 
d="M342 462q108 0 171 -61.5t63 -169.5t-69 -175.5t-180 -67.5q-53 0 -101 19t-88 58.5t-64 108.5t-24 159q0 174 86.5 276.5t217.5 102.5q59 0 115.5 -23.5t90.5 -72.5l-64 -61q-51 71 -147 71q-61 0 -107 -40t-69 -98t-28 -126q76 100 197 100zM325 74q81 0 119 48t38 109
q0 74 -42.5 111.5t-103.5 37.5q-54 0 -105 -32t-80 -99q15 -81 60.5 -128t113.5 -47z" />
    <glyph glyph-name="seven" unicode="7" horiz-adv-x="504" 
d="M36 700h438v-65l-246 -635h-97l246 614h-341v86z" />
    <glyph glyph-name="eight" unicode="8" horiz-adv-x="600" 
d="M445 374q101 -52 101 -173q0 -92 -69 -152.5t-171 -60.5q-105 0 -178 57t-73 148q0 117 104 173q-81 55 -81 149q0 86 65.5 141.5t151.5 55.5q96 0 159 -54.5t63 -143.5q0 -77 -72 -140zM297 626q-62 0 -93.5 -33t-31.5 -69q0 -48 37.5 -77.5t104.5 -36.5q30 -4 45 -7
q34 27 49 51.5t15 58.5q0 46 -32 79.5t-94 33.5zM306 74q71 0 108.5 37.5t37.5 89.5q0 42 -29.5 70t-62.5 37.5t-72 13.5q-32 4 -47 9q-92 -41 -92 -133q0 -51 40 -87.5t117 -36.5z" />
    <glyph glyph-name="nine" unicode="9" horiz-adv-x="626" 
d="M299 712q53 0 101 -19t88 -58.5t64 -108.5t24 -159q0 -174 -86.5 -276.5t-217.5 -102.5q-59 0 -115.5 23.5t-90.5 72.5l64 61q51 -71 147 -71q61 0 107 40t69 98t28 126q-76 -100 -197 -100q-108 0 -171 61.5t-63 169.5t69 175.5t180 67.5zM290 320q54 0 105 32t80 99
q-15 81 -60.5 128t-113.5 47q-81 0 -119 -48t-38 -109q0 -74 42.5 -111.5t103.5 -37.5z" />
    <glyph glyph-name="colon" unicode=":" horiz-adv-x="238" 
d="M119 380q-24 0 -41.5 17.5t-17.5 41.5t17.5 41.5t41.5 17.5t41.5 -17.5t17.5 -41.5t-17.5 -41.5t-41.5 -17.5zM119 -12q-24 0 -41.5 17.5t-17.5 41.5t17.5 41.5t41.5 17.5t41.5 -17.5t17.5 -41.5t-17.5 -41.5t-41.5 -17.5z" />
    <glyph glyph-name="semicolon" unicode=";" horiz-adv-x="238" 
d="M126 380q-24 0 -41.5 17.5t-17.5 41.5t17.5 41.5t41.5 17.5t41.5 -17.5t17.5 -41.5t-17.5 -41.5t-41.5 -17.5zM22 -85l67 186h90l-67 -186h-90z" />
    <glyph glyph-name="less" unicode="&#x3c;" horiz-adv-x="543" 
d="M493 103l-443 177v90l443 177v-92l-272 -108l-60 -19v-6l60 -19l272 -108v-92z" />
    <glyph glyph-name="equal" unicode="=" horiz-adv-x="555" 
d="M52 389v76h451v-76h-451zM52 185v76h451v-76h-451z" />
    <glyph glyph-name="greater" unicode="&#x3e;" horiz-adv-x="543" 
d="M50 103v92l272 108l60 19v6l-60 19l-272 108v92l443 -177v-90z" />
    <glyph glyph-name="question" unicode="?" horiz-adv-x="454" 
d="M183 191v58q0 34 11.5 63.5t29 49l38 40.5l38 38t29 40.5t11.5 50.5q0 50 -31.5 76t-83.5 27q-47 1 -81 -26t-49 -69l-65 39q21 63 72.5 98.5t120.5 35.5q90 0 145.5 -47.5t55.5 -131.5q0 -42 -16 -75.5t-39 -56t-46.5 -43t-39.5 -46.5t-16 -57v-64h-84zM225 -12
q-24 0 -41.5 17.5t-17.5 41.5t17.5 41.5t41.5 17.5t41.5 -17.5t17.5 -41.5t-17.5 -41.5t-41.5 -17.5z" />
    <glyph glyph-name="at" unicode="@" horiz-adv-x="818" 
d="M402 -58q-163 0 -267.5 106.5t-104.5 277.5q0 165 108.5 275.5t275.5 110.5q165 0 269.5 -100.5t104.5 -266.5q0 -108 -41 -167t-115 -59q-86 0 -115 65q-48 -56 -127 -56q-75 0 -125 56t-50 140t51 140t127 56q73 0 115 -47v38h74v-272q0 -32 16.5 -43.5t33.5 -11.5
q83 0 83 163q0 131 -84.5 210t-216.5 79q-142 0 -221 -92.5t-79 -226.5q0 -120 80 -209.5t214 -89.5q93 0 169 57l39 -63q-90 -70 -214 -70zM398 198q50 0 82 35t32 91q0 55 -31.5 89.5t-80.5 34.5q-50 0 -81.5 -34.5t-31.5 -89.5t31 -90.5t80 -35.5z" />
    <glyph glyph-name="A" unicode="A" horiz-adv-x="702" 
d="M579 0l-59 159h-333l-58 -159h-97l263 700h112l263 -700h-91zM214 233h279l-113 305l-24 84h-6l-24 -84z" />
    <glyph glyph-name="B" unicode="B" horiz-adv-x="545" 
d="M58 0v700h212q99 0 156.5 -50.5t57.5 -128.5q0 -55 -27 -95t-67 -59q121 -49 121 -169q0 -85 -65.5 -141.5t-168.5 -56.5h-219zM150 400h123q57 0 89 28t32 79t-32 79t-89 28h-123v-214zM150 86h137q60 0 96 33.5t36 86.5t-36 86.5t-96 33.5h-137v-240z" />
    <glyph glyph-name="C" unicode="C" horiz-adv-x="712" 
d="M386 -12q-147 1 -243.5 102t-96.5 260t97 260.5t243 101.5q202 0 280 -160l-72 -49q-33 62 -81.5 92.5t-123.5 30.5q-110 0 -179.5 -77t-69.5 -199q0 -125 67.5 -200.5t181.5 -75.5q77 0 122 30t81 98l74 -52q-89 -163 -280 -162z" />
    <glyph glyph-name="D" unicode="D" horiz-adv-x="661" 
d="M58 0v700h203q160 0 257 -96.5t97 -253.5t-97 -253.5t-257 -96.5h-203zM150 86h111q121 0 191.5 72t70.5 192t-70.5 192t-191.5 72h-111v-528z" />
    <glyph glyph-name="E" unicode="E" horiz-adv-x="557" 
d="M150 86h359v-86h-451v700h445v-86h-353v-226h319v-76h-319v-226z" />
    <glyph glyph-name="F" unicode="F" horiz-adv-x="559" 
d="M511 614h-361v-235h327v-76h-327v-303h-92v700h453v-86z" />
    <glyph glyph-name="G" unicode="G" horiz-adv-x="738" 
d="M391 -12q-146 0 -245.5 102t-99.5 260t102 260t250 102q100 0 172 -44.5t110 -119.5l-72 -52q-64 130 -210 130q-117 0 -187.5 -80t-70.5 -196t69.5 -196t186.5 -80q121 0 192 79v134h-148v76h240v-247q-56 -62 -124.5 -95t-164.5 -33z" />
    <glyph glyph-name="H" unicode="H" horiz-adv-x="674" 
d="M524 700h92v-700h-92v309h-374v-309h-92v700h92v-305h374v305z" />
    <glyph glyph-name="I" unicode="I" horiz-adv-x="208" 
d="M58 0v700h92v-700h-92z" />
    <glyph glyph-name="J" unicode="J" horiz-adv-x="473" 
d="M223 -12q-76 0 -129 41t-68 110l82 35q22 -100 115 -100q51 0 78.5 31.5t27.5 92.5v502h92v-496q0 -106 -54 -161t-144 -55z" />
    <glyph glyph-name="K" unicode="K" horiz-adv-x="601" 
d="M58 0v700h92v-374h6l49 80l214 294h105l-206 -288v-6l253 -406h-108l-209 328l-104 -138v-190h-92z" />
    <glyph glyph-name="L" unicode="L" horiz-adv-x="555" 
d="M150 86h359v-86h-451v700h92v-614z" />
    <glyph glyph-name="M" unicode="M" horiz-adv-x="844" 
d="M58 0v700h116l248 -615l248 615h116v-700h-92v447l6 103h-6l-226 -550h-92l-226 550h-6l6 -103v-447h-92z" />
    <glyph glyph-name="N" unicode="N" horiz-adv-x="668" 
d="M58 0v700h126l334 -592h6l-6 83v509h92v-700h-126l-334 592h-6l6 -83v-509h-92z" />
    <glyph glyph-name="O" unicode="O" 
d="M390 -12q-151 0 -247.5 102.5t-96.5 259.5t96.5 259.5t247.5 102.5t247.5 -102.5t96.5 -259.5t-96.5 -259.5t-247.5 -102.5zM390 74q111 0 180.5 77.5t69.5 198.5t-69.5 198.5t-180.5 77.5t-180.5 -77.5t-69.5 -198.5t69.5 -198.5t180.5 -77.5z" />
    <glyph glyph-name="P" unicode="P" horiz-adv-x="541" 
d="M58 0v700h215q108 0 171 -55t63 -152t-63 -152t-171 -55h-123v-286h-92zM150 372h128q64 0 100.5 32t36.5 89t-36.5 89t-100.5 32h-128v-242z" />
    <glyph glyph-name="Q" unicode="Q" horiz-adv-x="804" 
d="M758 62l-75 -70l-73 73q-91 -77 -220 -77q-151 0 -247.5 102.5t-96.5 259.5t96.5 259.5t247.5 102.5t247.5 -102.5t96.5 -259.5q0 -117 -56 -206zM140 350q0 -121 69.5 -198.5t180.5 -77.5t180.5 77.5t69.5 198.5t-69.5 198.5t-180.5 77.5t-180.5 -77.5t-69.5 -198.5z
" />
    <glyph glyph-name="R" unicode="R" horiz-adv-x="587" 
d="M543 0h-107l-157 290h-129v-290h-92v700h241q104 0 167 -56.5t63 -148.5q0 -72 -40 -123.5t-109 -71.5zM150 614v-248h148q63 0 101 31t38 93t-38 93t-101 31h-148z" />
    <glyph glyph-name="S" unicode="S" horiz-adv-x="545" 
d="M280 -12q-82 0 -145.5 38t-94.5 113l78 58q20 -57 62 -90t100 -33q133 0 133 114q0 50 -34 80t-123 61q-80 28 -134.5 77t-54.5 123q0 81 62.5 132t149.5 51q153 0 214 -127l-73 -52q-44 95 -143 95q-50 0 -86 -24.5t-36 -70.5q0 -47 39 -77t131 -63q180 -65 180 -198
q0 -93 -67 -150t-158 -57z" />
    <glyph glyph-name="T" unicode="T" horiz-adv-x="583" 
d="M545 700v-84h-207v-616h-92v616h-208v84h507z" />
    <glyph glyph-name="U" unicode="U" horiz-adv-x="646" 
d="M323 -12q-124 0 -197.5 76t-73.5 201v435h92v-425q0 -98 49 -149.5t130 -51.5t130 51.5t49 149.5v425h92v-435q0 -125 -73.5 -201t-197.5 -76z" />
    <glyph glyph-name="V" unicode="V" horiz-adv-x="679" 
d="M279 0l-249 700h103l179 -525l24 -92h6l24 92l175 525h107l-249 -700h-120z" />
    <glyph glyph-name="W" unicode="W" horiz-adv-x="954" 
d="M209 0l-179 700h99l127 -515l14 -89h6l14 89l132 515h109l135 -515l14 -89h6l14 89l122 515h102l-179 -700h-126l-139 570h-6l-135 -570h-130z" />
    <glyph glyph-name="X" unicode="X" horiz-adv-x="624" 
d="M28 0l220 369l-200 331h110l119 -206l33 -78h4l33 78l119 206h110l-200 -331l220 -369h-106l-139 235l-36 77h-6l-36 -77l-139 -235h-106z" />
    <glyph glyph-name="Y" unicode="Y" horiz-adv-x="575" 
d="M160 0l88 210l-220 490h96l166 -378h6l158 378h93l-294 -700h-93z" />
    <glyph glyph-name="Z" unicode="Z" horiz-adv-x="562" 
d="M520 -1l-477 1v42h-1l333 565v6l-320 1v86l447 -1v-42l-333 -565v-6l351 -1v-86z" />
    <glyph glyph-name="bracketleft" unicode="[" horiz-adv-x="281" 
d="M58 -100v900h185v-80h-99v-740h107v-80h-193z" />
    <glyph glyph-name="backslash" unicode="\" horiz-adv-x="481" 
d="M357 -100l-327 900h98l327 -900h-98z" />
    <glyph glyph-name="bracketright" unicode="]" horiz-adv-x="281" 
d="M30 -100v80h107v740h-99v80h185v-900h-193z" />
    <glyph glyph-name="asciicircum" unicode="^" horiz-adv-x="458" 
d="M40 451l158 249h62l158 -249h-90l-81 126l-12 39h-12l-12 -39l-81 -126h-90z" />
    <glyph glyph-name="underscore" unicode="_" horiz-adv-x="505" 
d="M60 -86v74h385v-74h-385z" />
    <glyph glyph-name="grave" unicode="`" horiz-adv-x="222" 
d="M111 578l-81 142h111l51 -142h-81z" />
    <glyph glyph-name="a" unicode="a" horiz-adv-x="584" 
d="M274 -12q-96 0 -163 73t-67 184q0 113 67.5 185t166.5 72q53 0 97.5 -21.5t66.5 -56.5v66h84v-490h-78v72h-6q-21 -37 -66.5 -60.5t-101.5 -23.5zM286 68q70 0 116 49t46 128t-45.5 128t-114.5 49q-70 0 -115 -49t-45 -128t45 -128t113 -49z" />
    <glyph glyph-name="b" unicode="b" horiz-adv-x="588" 
d="M312 -12q-56 0 -102.5 24t-67.5 60h-6v-72h-78v700h84v-280q22 34 71.5 58t99.5 24q98 0 164.5 -72t66.5 -185q0 -111 -68 -184t-164 -73zM300 68q69 0 114.5 49t45.5 128t-46 128t-116 49q-69 0 -115.5 -49t-46.5 -128t47 -128t117 -49z" />
    <glyph glyph-name="c" unicode="c" horiz-adv-x="551" 
d="M290 -12q-106 0 -176 73.5t-70 183.5t70 183.5t176 73.5q144 0 213 -120l-69 -47q-42 87 -144 87q-70 0 -116 -47.5t-46 -129.5t46 -129.5t116 -47.5q48 0 87.5 24.5t62.5 65.5l67 -47q-32 -55 -90 -89t-127 -34z" />
    <glyph glyph-name="d" unicode="d" horiz-adv-x="580" 
d="M276 -12q-96 0 -164 73t-68 184q0 113 66.5 185t164.5 72q50 0 100 -22.5t71 -56.5v277h84v-700h-78v72h-6q-21 -36 -67.5 -60t-102.5 -24zM288 68q70 0 117 49t47 128t-46.5 128t-115.5 49q-70 0 -116 -49t-46 -128t45.5 -128t114.5 -49z" />
    <glyph glyph-name="e" unicode="e" horiz-adv-x="555" 
d="M508 234l-12 -13h-367q7 -73 52 -113t110 -40q94 0 138 86l69 -37q-25 -55 -76.5 -92t-130.5 -37q-110 0 -178.5 72t-68.5 185q0 111 68.5 184t169.5 73q109 0 169 -67t60 -168q0 -18 -3 -33zM133 295h291q-6 62 -46 94.5t-96 32.5t-96 -34t-53 -93z" />
    <glyph glyph-name="f" unicode="f" horiz-adv-x="320" 
d="M256 631q-74 0 -74 -81v-60h114v-72h-114v-418h-84v418h-60v72h60v60q0 75 41.5 118.5t103.5 43.5q34 0 58 -12v-80q-22 11 -45 11z" />
    <glyph glyph-name="g" unicode="g" horiz-adv-x="576" 
d="M285 -223q-74 0 -134 34t-86 86l74 49q41 -89 146 -89q149 0 149 167v63q-22 -39 -68.5 -63t-100.5 -24q-99 0 -164 69t-65 182q0 111 67 181t163 70q56 0 101.5 -23.5t66.5 -60.5h6v72h78v-473q0 -118 -65 -179t-168 -61zM280 80q67 0 113.5 46.5t46.5 124.5t-47 124.5
t-115 46.5q-67 0 -112.5 -46.5t-45.5 -124.5t46 -124.5t114 -46.5z" />
    <glyph glyph-name="h" unicode="h" horiz-adv-x="535" 
d="M58 0v700h78v-279h6q52 81 157 81q84 0 131 -52.5t47 -143.5v-306h-84v292q0 62 -31.5 96t-88.5 34q-56 0 -93.5 -41.5t-37.5 -104.5v-276h-84z" />
    <glyph glyph-name="i" unicode="i" horiz-adv-x="228" 
d="M114 588q-23 0 -39.5 16.5t-16.5 39.5t16.5 39.5t39.5 16.5t39.5 -16.5t16.5 -39.5t-16.5 -39.5t-39.5 -16.5zM72 0v490h84v-490h-84z" />
    <glyph glyph-name="j" unicode="j" horiz-adv-x="241" 
d="M127 588q-23 0 -39.5 16.5t-16.5 39.5t16.5 39.5t39.5 16.5t39.5 -16.5t16.5 -39.5t-16.5 -39.5t-39.5 -16.5zM85 490h84v-567q0 -68 -36 -106.5t-92 -38.5q-55 0 -86 20l27 80q20 -12 46 -12q57 0 57 67v557z" />
    <glyph glyph-name="k" unicode="k" horiz-adv-x="459" 
d="M441 490l-212 -230l212 -260h-99l-200 243v-243h-84v700h84v-425l200 215h99z" />
    <glyph glyph-name="l" unicode="l" horiz-adv-x="192" 
d="M58 0v700h84v-700h-84z" />
    <glyph glyph-name="m" unicode="m" horiz-adv-x="778" 
d="M569 502q73 0 112 -46t39 -127v-329h-84v310q0 112 -95 112q-44 0 -77 -35.5t-33 -95.5v-291h-84v310q0 112 -95 112q-44 0 -77 -35.5t-33 -95.5v-291h-84v490h78v-70h6q18 37 54.5 59.5t83.5 22.5q103 0 137 -88q20 41 61 64.5t91 23.5z" />
    <glyph glyph-name="n" unicode="n" horiz-adv-x="523" 
d="M58 0v490h78v-74h6q18 37 58.5 61.5t94.5 24.5q79 0 124.5 -53t45.5 -143v-306h-84v292q0 62 -29 96t-85 34q-55 0 -90 -41.5t-35 -104.5v-276h-84z" />
    <glyph glyph-name="o" unicode="o" horiz-adv-x="592" 
d="M296 -12q-107 0 -179.5 73.5t-72.5 183.5t72.5 183.5t179.5 73.5t179.5 -73.5t72.5 -183.5t-72.5 -183.5t-179.5 -73.5zM296 68q70 0 119 48t49 129t-49 129t-119 48t-119 -48t-49 -129t49 -129t119 -48z" />
    <glyph glyph-name="p" unicode="p" horiz-adv-x="588" 
d="M58 -210v700h78v-72h6q21 36 67.5 60t102.5 24q96 0 164 -73t68 -184q0 -113 -66.5 -185t-164.5 -72q-51 0 -99 20t-72 55v-273h-84zM298 68q70 0 116 49t46 128t-45.5 128t-114.5 49q-70 0 -117 -49t-47 -128t46.5 -128t115.5 -49z" />
    <glyph glyph-name="q" unicode="q" horiz-adv-x="588" 
d="M446 -210v277q-23 -35 -71 -57t-100 -22q-98 0 -164.5 72t-66.5 185q0 111 68 184t164 73q56 0 102.5 -24t67.5 -60h6v72h78v-700h-84zM290 68q69 0 115.5 49t46.5 128t-47 128t-117 49q-69 0 -114.5 -49t-45.5 -128t46 -128t116 -49z" />
    <glyph glyph-name="r" unicode="r" horiz-adv-x="356" 
d="M58 0v490h78v-71h6q41 83 145 83q31 0 51 -10l-19 -81q-26 11 -51 11q-56 0 -91 -44.5t-35 -108.5v-269h-84z" />
    <glyph glyph-name="s" unicode="s" horiz-adv-x="446" 
d="M228 -12q-67 0 -118 31.5t-70 79.5l70 49q16 -34 46 -57t70 -23q42 0 67.5 18t25.5 52q0 35 -27 53t-99 38q-133 36 -133 138q0 63 50 99t115 36q120 0 167 -91l-61 -44q-39 57 -109 57q-37 0 -59.5 -17t-22.5 -42q0 -16 8.5 -27.5t29.5 -21.5t37.5 -15.5t51.5 -15.5
q136 -40 136 -141q0 -69 -49 -112.5t-126 -43.5z" />
    <glyph glyph-name="t" unicode="t" horiz-adv-x="348" 
d="M304 418h-126v-269q0 -78 67 -78q28 0 53 13v-82q-32 -14 -74 -14q-60 0 -95 41.5t-35 113.5v275h-54v72h54v116l84 32v-148h126v-72z" />
    <glyph glyph-name="u" unicode="u" horiz-adv-x="523" 
d="M228 -12q-79 0 -124.5 53t-45.5 143v306h84v-292q0 -62 29 -96t85 -34q55 0 90 41.5t35 104.5v276h84v-490h-78v74h-6q-18 -37 -58.5 -61.5t-94.5 -24.5z" />
    <glyph glyph-name="v" unicode="v" horiz-adv-x="532" 
d="M220 0l-202 490h92l153 -384h6l153 384h92l-202 -490h-92z" />
    <glyph glyph-name="w" unicode="w" horiz-adv-x="740" 
d="M170 0l-152 490h84l111 -378h6l107 378h88l107 -378h6l111 378h84l-152 -490h-96l-101 366h-6l-101 -366h-96z" />
    <glyph glyph-name="x" unicode="x" horiz-adv-x="486" 
d="M14 0l181 251v6l-172 233h97l123 -178l123 178h97l-172 -233v-6l181 -251h-98l-131 189l-131 -189h-98z" />
    <glyph glyph-name="y" unicode="y" horiz-adv-x="496" 
d="M131 -210l76 210l-195 490h92l146 -379h6l136 379h92l-270 -700h-83z" />
    <glyph glyph-name="z" unicode="z" horiz-adv-x="440" 
d="M42 0v60l240 344v6h-232v80h338v-60l-240 -344v-6h250v-80h-356z" />
    <glyph glyph-name="braceleft" unicode="{" horiz-adv-x="339" 
d="M293 -96q-92 0 -138.5 44.5t-46.5 140.5v159q0 55 -55 55h-13v98h13q55 0 55 55v159q0 96 46.5 140.5t138.5 44.5h16v-80h-30q-85 0 -85 -85v-188q0 -43 -17 -65.5t-58 -29.5q41 -7 58 -29.5t17 -65.5v-188q0 -85 85 -85h30v-80h-16z" />
    <glyph glyph-name="bar" unicode="|" horiz-adv-x="176" 
d="M46 -80v880h84v-880h-84z" />
    <glyph glyph-name="braceright" unicode="}" horiz-adv-x="339" 
d="M30 -96v80h30q85 0 85 85v188q0 43 17 65.5t58 29.5q-41 7 -58 29.5t-17 65.5v188q0 85 -85 85h-30v80h16q92 0 138.5 -44.5t46.5 -140.5v-159q0 -55 55 -55h13v-98h-13q-55 0 -55 -55v-159q0 -96 -46.5 -140.5t-138.5 -44.5h-16z" />
    <glyph glyph-name="asciitilde" unicode="~" horiz-adv-x="482" 
d="M316 264q-36 0 -77.5 26.5t-64.5 26.5q-22 0 -36.5 -12.5t-14.5 -33.5h-79q0 60 34 96.5t86 36.5q37 0 78 -26.5t65 -26.5q21 0 35.5 12.5t14.5 33.5h81q0 -60 -34.5 -96.5t-87.5 -36.5z" />
    <glyph glyph-name="exclamdown" unicode="&#xa1;" horiz-adv-x="250" 
d="M125 502q24 0 41.5 -17.5t17.5 -41.5t-17.5 -41.5t-41.5 -17.5t-41.5 17.5t-17.5 41.5t17.5 41.5t41.5 17.5zM97 292h56l16 -216v-286h-88v286z" />
    <glyph glyph-name="sterling" unicode="&#xa3;" horiz-adv-x="608" 
d="M199 267q0 -121 -31 -180l382 -1v-86h-343q-75 0 -118 -12l-29 47q18 18 28 37.5t14 54.5t4.5 56t0.5 82v52h-57v74h57v73q0 120 60 184.5t168 64.5q85 0 136.5 -37.5t83.5 -113.5l-80 -45q-42 110 -140 110q-136 0 -136 -159v-77h179v-74h-179v-50z" />
    <glyph glyph-name="yen" unicode="&#xa5;" horiz-adv-x="600" 
d="M572 700l-194 -357h129v-64h-161v-66h161v-64h-161v-149h-92v149h-161v64h161v66h-161v64h129l-194 357h96l150 -289l23 -56h6l23 56l150 289h96z" />
    <glyph glyph-name="brokenbar" unicode="&#xa6;" horiz-adv-x="176" 
d="M46 444v356h84v-356h-84zM46 -80v356h84v-356h-84z" />
    <glyph glyph-name="section" unicode="&#xa7;" horiz-adv-x="443" 
d="M228 -12q-67 0 -118 31.5t-70 79.5l70 49q16 -34 46 -57t70 -23q42 0 67.5 18t25.5 52q0 35 -27 53t-99 38q-133 36 -133 138q0 66 58 104q-58 40 -58 106q0 63 50 99t115 36q120 0 167 -91l-61 -44q-39 57 -109 57q-37 0 -59.5 -17t-22.5 -42q0 -16 8.5 -27.5
t29.5 -21.5t37.5 -15.5t51.5 -15.5q136 -40 136 -141q0 -65 -43 -115q43 -35 43 -95q0 -69 -49 -112.5t-126 -43.5zM289 279q30 34 30 69q0 23 -17.5 40t-41.5 26.5t-63 21.5q-7 2 -11 3q-46 -25 -46 -67q0 -24 19.5 -41t41 -25t67.5 -21z" />
    <glyph glyph-name="dieresis" unicode="&#xa8;" horiz-adv-x="345" 
d="M89 600q-24 0 -41.5 17.5t-17.5 41.5t17.5 41.5t41.5 17.5t41.5 -17.5t17.5 -41.5t-17.5 -41.5t-41.5 -17.5zM256 600q-24 0 -41.5 17.5t-17.5 41.5t17.5 41.5t41.5 17.5t41.5 -17.5t17.5 -41.5t-17.5 -41.5t-41.5 -17.5z" />
    <glyph glyph-name="copyright" unicode="&#xa9;" horiz-adv-x="824" 
d="M412 -12q-152 0 -257 105t-105 257t105 257t257 105t257 -105t105 -257t-105 -257t-257 -105zM412 51q124 0 209.5 87t85.5 212t-85.5 212t-209.5 87t-209.5 -87t-85.5 -212t85.5 -212t209.5 -87zM414 165q-83 0 -136 52t-53 133t54 133.5t137 52.5q100 0 149 -69
l-59 -40q-33 42 -89 42q-51 0 -85 -33.5t-34 -85.5q0 -51 33 -85t83 -34q66 0 96 44l55 -40q-52 -70 -151 -70z" />
    <glyph glyph-name="ordfeminine" unicode="&#xaa;" horiz-adv-x="393" 
d="M178 347q-67 0 -112 51t-45 130q0 80 45 130.5t114 50.5q73 0 105 -51v43h74v-346h-69v49h-5q-33 -57 -107 -57zM190 414q45 0 72.5 31.5t27.5 82.5t-27.5 82.5t-71.5 31.5t-71 -31.5t-27 -82.5t27 -82.5t70 -31.5z" />
    <glyph glyph-name="guillemotleft" unicode="&#xab;" horiz-adv-x="431" 
d="M147 100l-97 168v12l97 168h84l-101 -174l101 -174h-84zM297 100l-97 168v12l97 168h84l-101 -174l101 -174h-84z" />
    <glyph glyph-name="registered" unicode="&#xae;" horiz-adv-x="824" 
d="M412 -12q-152 0 -257 105t-105 257t105 257t257 105t257 -105t105 -257t-105 -257t-257 -105zM412 51q124 0 209.5 87t85.5 212t-85.5 212t-209.5 87t-209.5 -87t-85.5 -212t85.5 -212t209.5 -87zM553 169h-77l-69 148h-51v-148h-72v362h145q52 0 84.5 -29.5t32.5 -77.5
q0 -33 -18 -60t-50 -37zM356 379h73q21 0 34 12t13 33t-13 33t-34 12h-73v-90z" />
    <glyph glyph-name="macron" unicode="&#xaf;" horiz-adv-x="342" 
d="M30 636v64h282v-64h-282z" />
    <glyph glyph-name="degree" unicode="&#xb0;" horiz-adv-x="358" 
d="M179 433q-58 0 -98.5 41t-40.5 99t40.5 98.5t98.5 40.5t98.5 -40.5t40.5 -98.5t-40.5 -99t-98.5 -41zM179 504q31 0 50 19t19 50t-19 49.5t-50 18.5t-50 -18.5t-19 -49.5t19 -50t50 -19z" />
    <glyph glyph-name="plusminus" unicode="&#xb1;" horiz-adv-x="555" 
d="M316 397h187v-76h-187v-140h-76v140h-188v76h188v139h76v-139zM52 0v76h451v-76h-451z" />
    <glyph glyph-name="acute" unicode="&#xb4;" horiz-adv-x="222" 
d="M30 578l51 142h111l-81 -142h-81z" />
    <glyph glyph-name="paragraph" unicode="&#xb6;" horiz-adv-x="573" 
d="M515 700v-772h-84v692h-116v-692h-84v444q-83 0 -134.5 45t-52.5 119t50.5 119t136.5 45h284z" />
    <glyph glyph-name="periodcentered" unicode="&#xb7;" horiz-adv-x="218" 
d="M83 266q-24 0 -41.5 17.5t-17.5 41.5t17.5 41.5t41.5 17.5t41.5 -17.5t17.5 -41.5t-17.5 -41.5t-41.5 -17.5z" />
    <glyph glyph-name="cedilla" unicode="&#xb8;" horiz-adv-x="231" 
d="M104 -204q-46 0 -74 30l28 34q24 -20 46 -20t34.5 13t12.5 30q0 16 -8.5 26t-23.5 10q-23 0 -35 -23l-9 -4l-36 14l26 116l51 -6l-23 -67q10 13 36 13q32 0 52 -22.5t20 -57.5q0 -39 -27 -62.5t-70 -23.5z" />
    <glyph glyph-name="ordmasculine" unicode="&#xba;" horiz-adv-x="393" 
d="M196 347q-76 0 -125.5 51t-49.5 130q0 78 49.5 129.5t125.5 51.5t126 -51.5t50 -129.5q0 -79 -49.5 -130t-126.5 -51zM196 415q45 0 74 30t29 83t-29 83t-74 30t-74 -30t-29 -83t29 -83t74 -30z" />
    <glyph glyph-name="guillemotright" unicode="&#xbb;" horiz-adv-x="431" 
d="M134 100h-84l101 174l-101 174h84l97 -168v-12zM284 100h-84l101 174l-101 174h84l97 -168v-12z" />
    <glyph glyph-name="questiondown" unicode="&#xbf;" horiz-adv-x="478" 
d="M253 502q24 0 41.5 -17.5t17.5 -41.5t-17.5 -41.5t-41.5 -17.5t-41.5 17.5t-17.5 41.5t17.5 41.5t41.5 17.5zM295 299v-58q0 -34 -11.5 -63.5t-29 -49l-38 -40.5l-38 -38t-29 -40.5t-11.5 -50.5q0 -50 31.5 -76t83.5 -27q47 -1 81 26t49 69l65 -39q-21 -63 -72.5 -98.5
t-120.5 -35.5q-90 0 -145.5 47.5t-55.5 131.5q0 42 16 75.5t39 56t46.5 43t39.5 46.5t16 57v64h84z" />
    <glyph glyph-name="Agrave" unicode="&#xc0;" horiz-adv-x="702" 
d="M391 788h-81l-81 142h111zM579 0l-59 159h-333l-58 -159h-97l263 700h112l263 -700h-91zM214 233h279l-113 305l-24 84h-6l-24 -84z" />
    <glyph glyph-name="Aacute" unicode="&#xc1;" horiz-adv-x="702" 
d="M472 930l-81 -142h-81l51 142h111zM579 0l-59 159h-333l-58 -159h-97l263 700h112l263 -700h-91zM214 233h279l-113 305l-24 84h-6l-24 -84z" />
    <glyph glyph-name="Acircumflex" unicode="&#xc2;" horiz-adv-x="702" 
d="M351 848l-53 -59h-86l114 134h50l114 -134h-86zM579 0l-59 159h-333l-58 -159h-97l263 700h112l263 -700h-91zM214 233h279l-113 305l-24 84h-6l-24 -84z" />
    <glyph glyph-name="Atilde" unicode="&#xc3;" horiz-adv-x="702" 
d="M293 819q-18 0 -31 -11t-13 -29h-69q0 52 29.5 83.5t74.5 31.5q32 0 67.5 -23t56.5 -23q18 0 30.5 11t12.5 29h70q0 -52 -30 -83.5t-75 -31.5q-31 0 -67 23t-56 23zM579 0l-59 159h-333l-58 -159h-97l263 700h112l263 -700h-91zM214 233h279l-113 305l-24 84h-6l-24 -84z
" />
    <glyph glyph-name="Adieresis" unicode="&#xc4;" horiz-adv-x="702" 
d="M267 797q-24 0 -41.5 17.5t-17.5 41.5t17.5 41.5t41.5 17.5t41.5 -17.5t17.5 -41.5t-17.5 -41.5t-41.5 -17.5zM434 797q-24 0 -41.5 17.5t-17.5 41.5t17.5 41.5t41.5 17.5t41.5 -17.5t17.5 -41.5t-17.5 -41.5t-41.5 -17.5zM579 0l-59 159h-333l-58 -159h-97l263 700h112
l263 -700h-91zM214 233h279l-113 305l-24 84h-6l-24 -84z" />
    <glyph glyph-name="Aring" unicode="&#xc5;" horiz-adv-x="702" 
d="M351 764q-37 0 -64 27t-27 64t27 64t64 27t64 -27t27 -64t-27 -64t-64 -27zM351 902q-19 0 -33 -14t-14 -33t14 -33t33 -14t33 14t14 33t-14 33t-33 14zM579 0l-59 159h-333l-58 -159h-97l263 700h112l263 -700h-91zM214 233h279l-113 305l-24 84h-6l-24 -84z" />
    <glyph glyph-name="AE" unicode="&#xc6;" horiz-adv-x="911" 
d="M504 86h359v-86h-451v159h-211l-72 -159h-97l323 700h502v-86h-353v-226h319v-76h-319v-226zM235 233h177v389h-14l-24 -84z" />
    <glyph glyph-name="Ccedilla" unicode="&#xc7;" horiz-adv-x="712" 
d="M389 74q77 0 122 30t81 98l74 -52q-89 -162 -278 -162l-13 -39q10 13 36 13q32 0 52 -22.5t20 -57.5q0 -39 -27 -62.5t-70 -23.5q-46 0 -74 30l28 34q24 -20 46 -20t34.5 13t12.5 30q0 16 -8.5 26t-23.5 10q-23 0 -35 -23l-9 -4l-36 14l19 85q-130 17 -212 115t-82 244
q0 159 97 260.5t243 101.5q202 0 280 -160l-72 -49q-33 62 -81.5 92.5t-123.5 30.5q-110 0 -179.5 -77t-69.5 -199q0 -125 67.5 -200.5t181.5 -75.5z" />
    <glyph glyph-name="Egrave" unicode="&#xc8;" horiz-adv-x="557" 
d="M330 788h-81l-81 142h111zM150 86h359v-86h-451v700h445v-86h-353v-226h319v-76h-319v-226z" />
    <glyph glyph-name="Eacute" unicode="&#xc9;" horiz-adv-x="557" 
d="M411 930l-81 -142h-81l51 142h111zM150 86h359v-86h-451v700h445v-86h-353v-226h319v-76h-319v-226z" />
    <glyph glyph-name="Ecircumflex" unicode="&#xca;" horiz-adv-x="557" 
d="M290 848l-53 -59h-86l114 134h50l114 -134h-86zM150 86h359v-86h-451v700h445v-86h-353v-226h319v-76h-319v-226z" />
    <glyph glyph-name="Edieresis" unicode="&#xcb;" horiz-adv-x="557" 
d="M206 797q-24 0 -41.5 17.5t-17.5 41.5t17.5 41.5t41.5 17.5t41.5 -17.5t17.5 -41.5t-17.5 -41.5t-41.5 -17.5zM373 797q-24 0 -41.5 17.5t-17.5 41.5t17.5 41.5t41.5 17.5t41.5 -17.5t17.5 -41.5t-17.5 -41.5t-41.5 -17.5zM150 86h359v-86h-451v700h445v-86h-353v-226
h319v-76h-319v-226z" />
    <glyph glyph-name="Igrave" unicode="&#xcc;" horiz-adv-x="208" 
d="M63 788l-81 142h111l51 -142h-81zM58 0v700h92v-700h-92z" />
    <glyph glyph-name="Iacute" unicode="&#xcd;" horiz-adv-x="208" 
d="M63 788l51 142h111l-81 -142h-81zM58 0v700h92v-700h-92z" />
    <glyph glyph-name="Icircumflex" unicode="&#xce;" horiz-adv-x="208" 
d="M-35 789l114 134h50l114 -134h-86l-53 59l-53 -59h-86zM58 0v700h92v-700h-92z" />
    <glyph glyph-name="Idieresis" unicode="&#xcf;" horiz-adv-x="208" 
d="M20 797q-24 0 -41.5 17.5t-17.5 41.5t17.5 41.5t41.5 17.5t41.5 -17.5t17.5 -41.5t-17.5 -41.5t-41.5 -17.5zM187 797q-24 0 -41.5 17.5t-17.5 41.5t17.5 41.5t41.5 17.5t41.5 -17.5t17.5 -41.5t-17.5 -41.5t-41.5 -17.5zM58 0v700h92v-700h-92z" />
    <glyph glyph-name="Eth" unicode="&#xd0;" horiz-adv-x="692" 
d="M292 700q160 0 257 -96.5t97 -253.5t-97 -253.5t-257 -96.5h-203v313h-65v76h65v311h203zM292 86q121 0 191.5 72t70.5 192t-70.5 192t-191.5 72h-111v-225h158v-76h-158v-227h111z" />
    <glyph glyph-name="Ntilde" unicode="&#xd1;" horiz-adv-x="668" 
d="M399 773q-31 0 -67 23t-56 23q-18 0 -31 -11t-13 -29h-69q0 52 29.5 83.5t74.5 31.5q32 0 67.5 -23t56.5 -23q18 0 30.5 11t12.5 29h70q0 -52 -30 -83.5t-75 -31.5zM58 0v700h126l334 -592h6l-6 83v509h92v-700h-126l-334 592h-6l6 -83v-509h-92z" />
    <glyph glyph-name="Ograve" unicode="&#xd2;" 
d="M349 788l-81 142h111l51 -142h-81zM390 -12q-151 0 -247.5 102.5t-96.5 259.5t96.5 259.5t247.5 102.5t247.5 -102.5t96.5 -259.5t-96.5 -259.5t-247.5 -102.5zM390 74q111 0 180.5 77.5t69.5 198.5t-69.5 198.5t-180.5 77.5t-180.5 -77.5t-69.5 -198.5t69.5 -198.5
t180.5 -77.5z" />
    <glyph glyph-name="Oacute" unicode="&#xd3;" 
d="M349 788l51 142h111l-81 -142h-81zM390 -12q-151 0 -247.5 102.5t-96.5 259.5t96.5 259.5t247.5 102.5t247.5 -102.5t96.5 -259.5t-96.5 -259.5t-247.5 -102.5zM390 74q111 0 180.5 77.5t69.5 198.5t-69.5 198.5t-180.5 77.5t-180.5 -77.5t-69.5 -198.5t69.5 -198.5
t180.5 -77.5z" />
    <glyph glyph-name="Ocircumflex" unicode="&#xd4;" 
d="M251 789l114 134h50l114 -134h-86l-53 59l-53 -59h-86zM390 -12q-151 0 -247.5 102.5t-96.5 259.5t96.5 259.5t247.5 102.5t247.5 -102.5t96.5 -259.5t-96.5 -259.5t-247.5 -102.5zM390 74q111 0 180.5 77.5t69.5 198.5t-69.5 198.5t-180.5 77.5t-180.5 -77.5
t-69.5 -198.5t69.5 -198.5t180.5 -77.5z" />
    <glyph glyph-name="Otilde" unicode="&#xd5;" 
d="M455 773q-31 0 -67 23t-56 23q-18 0 -31 -11t-13 -29h-69q0 52 29.5 83.5t74.5 31.5q32 0 67.5 -23t56.5 -23q18 0 30.5 11t12.5 29h70q0 -52 -30 -83.5t-75 -31.5zM390 -12q-151 0 -247.5 102.5t-96.5 259.5t96.5 259.5t247.5 102.5t247.5 -102.5t96.5 -259.5
t-96.5 -259.5t-247.5 -102.5zM390 74q111 0 180.5 77.5t69.5 198.5t-69.5 198.5t-180.5 77.5t-180.5 -77.5t-69.5 -198.5t69.5 -198.5t180.5 -77.5z" />
    <glyph glyph-name="Odieresis" unicode="&#xd6;" 
d="M306 797q-24 0 -41.5 17.5t-17.5 41.5t17.5 41.5t41.5 17.5t41.5 -17.5t17.5 -41.5t-17.5 -41.5t-41.5 -17.5zM473 797q-24 0 -41.5 17.5t-17.5 41.5t17.5 41.5t41.5 17.5t41.5 -17.5t17.5 -41.5t-17.5 -41.5t-41.5 -17.5zM390 -12q-151 0 -247.5 102.5t-96.5 259.5
t96.5 259.5t247.5 102.5t247.5 -102.5t96.5 -259.5t-96.5 -259.5t-247.5 -102.5zM390 74q111 0 180.5 77.5t69.5 198.5t-69.5 198.5t-180.5 77.5t-180.5 -77.5t-69.5 -198.5t69.5 -198.5t180.5 -77.5z" />
    <glyph glyph-name="multiply" unicode="&#xd7;" horiz-adv-x="538" 
d="M456 186l-54 -54l-133 133l-134 -133l-53 53l134 134l-133 132l54 54l133 -132l131 131l53 -54l-131 -131z" />
    <glyph glyph-name="Oslash" unicode="&#xd8;" 
d="M606 638q61 -49 94.5 -123.5t33.5 -164.5q0 -157 -96.5 -259.5t-247.5 -102.5q-77 0 -143 29l-48 -84l-81 46l50 87q-58 49 -90 123t-32 161q0 157 96.5 259.5t247.5 102.5q73 0 136 -26l47 81l81 -46zM140 350q0 -127 75 -204l267 463q-43 17 -92 17
q-111 0 -180.5 -77.5t-69.5 -198.5zM390 74q111 0 180.5 77.5t69.5 198.5q0 132 -80 209l-269 -466q47 -19 99 -19z" />
    <glyph glyph-name="Ugrave" unicode="&#xd9;" horiz-adv-x="646" 
d="M282 788l-81 142h111l51 -142h-81zM323 -12q-124 0 -197.5 76t-73.5 201v435h92v-425q0 -98 49 -149.5t130 -51.5t130 51.5t49 149.5v425h92v-435q0 -125 -73.5 -201t-197.5 -76z" />
    <glyph glyph-name="Uacute" unicode="&#xda;" horiz-adv-x="646" 
d="M282 788l51 142h111l-81 -142h-81zM323 -12q-124 0 -197.5 76t-73.5 201v435h92v-425q0 -98 49 -149.5t130 -51.5t130 51.5t49 149.5v425h92v-435q0 -125 -73.5 -201t-197.5 -76z" />
    <glyph glyph-name="Ucircumflex" unicode="&#xdb;" horiz-adv-x="646" 
d="M184 789l114 134h50l114 -134h-86l-53 59l-53 -59h-86zM323 -12q-124 0 -197.5 76t-73.5 201v435h92v-425q0 -98 49 -149.5t130 -51.5t130 51.5t49 149.5v425h92v-435q0 -125 -73.5 -201t-197.5 -76z" />
    <glyph glyph-name="Udieresis" unicode="&#xdc;" horiz-adv-x="646" 
d="M239 797q-24 0 -41.5 17.5t-17.5 41.5t17.5 41.5t41.5 17.5t41.5 -17.5t17.5 -41.5t-17.5 -41.5t-41.5 -17.5zM406 797q-24 0 -41.5 17.5t-17.5 41.5t17.5 41.5t41.5 17.5t41.5 -17.5t17.5 -41.5t-17.5 -41.5t-41.5 -17.5zM323 -12q-124 0 -197.5 76t-73.5 201v435h92
v-425q0 -98 49 -149.5t130 -51.5t130 51.5t49 149.5v425h92v-435q0 -125 -73.5 -201t-197.5 -76z" />
    <glyph glyph-name="Yacute" unicode="&#xdd;" horiz-adv-x="575" 
d="M248 788l51 142h111l-81 -142h-81zM160 0l88 210l-220 490h96l166 -378h6l158 378h93l-294 -700h-93z" />
    <glyph glyph-name="Thorn" unicode="&#xde;" horiz-adv-x="541" 
d="M58 0v700h92v-143h123q108 0 171 -55t63 -152t-63 -152t-171 -55h-123v-143h-92zM150 229h128q64 0 100.5 32t36.5 89t-36.5 89t-100.5 32h-128v-242z" />
    <glyph glyph-name="germandbls" unicode="&#xdf;" horiz-adv-x="563" 
d="M379 363q62 -7 102 -53.5t40 -128.5q0 -87 -53.5 -140t-140.5 -53q-76 0 -129 32v87q58 -39 124 -39q49 0 82 28t33 85q0 58 -38 95.5t-117 37.5h-37v80q74 0 114 31.5t40 83.5q0 64 -37 93.5t-88 29.5q-55 0 -93.5 -34.5t-38.5 -117.5v-480h-84v480q0 112 58 172t155 60
q99 0 155.5 -54.5t56.5 -143.5q0 -115 -104 -151z" />
    <glyph glyph-name="agrave" unicode="&#xe0;" horiz-adv-x="584" 
d="M241 578l-81 142h111l51 -142h-81zM274 -12q-96 0 -163 73t-67 184q0 113 67.5 185t166.5 72q53 0 97.5 -21.5t66.5 -56.5v66h84v-490h-78v72h-6q-21 -37 -66.5 -60.5t-101.5 -23.5zM286 68q70 0 116 49t46 128t-45.5 128t-114.5 49q-70 0 -115 -49t-45 -128t45 -128
t113 -49z" />
    <glyph glyph-name="aacute" unicode="&#xe1;" horiz-adv-x="584" 
d="M241 578l51 142h111l-81 -142h-81zM274 -12q-96 0 -163 73t-67 184q0 113 67.5 185t166.5 72q53 0 97.5 -21.5t66.5 -56.5v66h84v-490h-78v72h-6q-21 -37 -66.5 -60.5t-101.5 -23.5zM286 68q70 0 116 49t46 128t-45.5 128t-114.5 49q-70 0 -115 -49t-45 -128t45 -128
t113 -49z" />
    <glyph glyph-name="acircumflex" unicode="&#xe2;" horiz-adv-x="584" 
d="M143 579l114 134h50l114 -134h-86l-53 59l-53 -59h-86zM274 -12q-96 0 -163 73t-67 184q0 113 67.5 185t166.5 72q53 0 97.5 -21.5t66.5 -56.5v66h84v-490h-78v72h-6q-21 -37 -66.5 -60.5t-101.5 -23.5zM286 68q70 0 116 49t46 128t-45.5 128t-114.5 49q-70 0 -115 -49
t-45 -128t45 -128t113 -49z" />
    <glyph glyph-name="atilde" unicode="&#xe3;" horiz-adv-x="584" 
d="M347 563q-31 0 -67 23t-56 23q-18 0 -31 -11t-13 -29h-69q0 52 29.5 83.5t74.5 31.5q32 0 67.5 -23t56.5 -23q18 0 30.5 11t12.5 29h70q0 -52 -30 -83.5t-75 -31.5zM274 -12q-96 0 -163 73t-67 184q0 113 67.5 185t166.5 72q53 0 97.5 -21.5t66.5 -56.5v66h84v-490h-78
v72h-6q-21 -37 -66.5 -60.5t-101.5 -23.5zM286 68q70 0 116 49t46 128t-45.5 128t-114.5 49q-70 0 -115 -49t-45 -128t45 -128t113 -49z" />
    <glyph glyph-name="adieresis" unicode="&#xe4;" horiz-adv-x="584" 
d="M202 587q-24 0 -41.5 17.5t-17.5 41.5t17.5 41.5t41.5 17.5t41.5 -17.5t17.5 -41.5t-17.5 -41.5t-41.5 -17.5zM369 587q-24 0 -41.5 17.5t-17.5 41.5t17.5 41.5t41.5 17.5t41.5 -17.5t17.5 -41.5t-17.5 -41.5t-41.5 -17.5zM274 -12q-96 0 -163 73t-67 184q0 113 67.5 185
t166.5 72q53 0 97.5 -21.5t66.5 -56.5v66h84v-490h-78v72h-6q-21 -37 -66.5 -60.5t-101.5 -23.5zM286 68q70 0 116 49t46 128t-45.5 128t-114.5 49q-70 0 -115 -49t-45 -128t45 -128t113 -49z" />
    <glyph glyph-name="aring" unicode="&#xe5;" horiz-adv-x="584" 
d="M282 554q-38 0 -64.5 27t-26.5 64t26.5 64t64.5 27t64.5 -27t26.5 -64t-26.5 -64t-64.5 -27zM282 598q20 0 33.5 14t13.5 33t-13.5 33t-33.5 14t-33.5 -14t-13.5 -33t13.5 -33t33.5 -14zM274 -12q-96 0 -163 73t-67 184q0 113 67.5 185t166.5 72q53 0 97.5 -21.5
t66.5 -56.5v66h84v-490h-78v72h-6q-21 -37 -66.5 -60.5t-101.5 -23.5zM286 68q70 0 116 49t46 128t-45.5 128t-114.5 49q-70 0 -115 -49t-45 -128t45 -128t113 -49z" />
    <glyph glyph-name="ae" unicode="&#xe6;" horiz-adv-x="959" 
d="M274 -12q-96 0 -163 73t-67 184q0 113 67.5 185t166.5 72q53 0 97.5 -21.5t66.5 -56.5v66h84v-52q66 64 160 64q109 0 169 -67t60 -168q0 -18 -3 -33l-12 -13h-367q7 -73 52 -113t110 -40q94 0 138 86l69 -37q-25 -55 -76.5 -92t-130.5 -37q-101 0 -169 63v-51h-78v72h-6
q-21 -37 -66.5 -60.5t-101.5 -23.5zM286 68q70 0 116 49t46 128t-45.5 128t-114.5 49q-70 0 -115 -49t-45 -128t45 -128t113 -49zM537 295h291q-6 62 -46 94.5t-96 32.5t-96 -34t-53 -93z" />
    <glyph glyph-name="ccedilla" unicode="&#xe7;" horiz-adv-x="551" 
d="M507 111q-32 -55 -89.5 -88.5t-125.5 -34.5l-13 -39q10 13 36 13q32 0 52 -22.5t20 -57.5q0 -39 -27 -62.5t-70 -23.5q-46 0 -74 30l28 34q24 -20 46 -20t34.5 13t12.5 30q0 16 -8.5 26t-23.5 10q-23 0 -35 -23l-9 -4l-36 14l19 86q-89 16 -144.5 85.5t-55.5 167.5
q0 110 70 183.5t176 73.5q144 0 213 -120l-69 -47q-42 87 -144 87q-70 0 -116 -47.5t-46 -129.5t46 -129.5t116 -47.5q48 0 87.5 24.5t62.5 65.5z" />
    <glyph glyph-name="egrave" unicode="&#xe8;" horiz-adv-x="555" 
d="M319 578h-81l-81 142h111zM508 234l-12 -13h-367q7 -73 52 -113t110 -40q94 0 138 86l69 -37q-25 -55 -76.5 -92t-130.5 -37q-110 0 -178.5 72t-68.5 185q0 111 68.5 184t169.5 73q109 0 169 -67t60 -168q0 -18 -3 -33zM133 295h291q-6 62 -46 94.5t-96 32.5t-96 -34
t-53 -93z" />
    <glyph glyph-name="eacute" unicode="&#xe9;" horiz-adv-x="555" 
d="M400 720l-81 -142h-81l51 142h111zM508 234l-12 -13h-367q7 -73 52 -113t110 -40q94 0 138 86l69 -37q-25 -55 -76.5 -92t-130.5 -37q-110 0 -178.5 72t-68.5 185q0 111 68.5 184t169.5 73q109 0 169 -67t60 -168q0 -18 -3 -33zM133 295h291q-6 62 -46 94.5t-96 32.5
t-96 -34t-53 -93z" />
    <glyph glyph-name="ecircumflex" unicode="&#xea;" horiz-adv-x="555" 
d="M279 638l-53 -59h-86l114 134h50l114 -134h-86zM508 234l-12 -13h-367q7 -73 52 -113t110 -40q94 0 138 86l69 -37q-25 -55 -76.5 -92t-130.5 -37q-110 0 -178.5 72t-68.5 185q0 111 68.5 184t169.5 73q109 0 169 -67t60 -168q0 -18 -3 -33zM133 295h291q-6 62 -46 94.5
t-96 32.5t-96 -34t-53 -93z" />
    <glyph glyph-name="edieresis" unicode="&#xeb;" horiz-adv-x="555" 
d="M195 587q-24 0 -41.5 17.5t-17.5 41.5t17.5 41.5t41.5 17.5t41.5 -17.5t17.5 -41.5t-17.5 -41.5t-41.5 -17.5zM362 587q-24 0 -41.5 17.5t-17.5 41.5t17.5 41.5t41.5 17.5t41.5 -17.5t17.5 -41.5t-17.5 -41.5t-41.5 -17.5zM508 234l-12 -13h-367q7 -73 52 -113t110 -40
q94 0 138 86l69 -37q-25 -55 -76.5 -92t-130.5 -37q-110 0 -178.5 72t-68.5 185q0 111 68.5 184t169.5 73q109 0 169 -67t60 -168q0 -18 -3 -33zM133 295h291q-6 62 -46 94.5t-96 32.5t-96 -34t-53 -93z" />
    <glyph glyph-name="igrave" unicode="&#xec;" horiz-adv-x="200" 
d="M59 578l-81 142h111l51 -142h-81zM58 0v490h84v-490h-84z" />
    <glyph glyph-name="iacute" unicode="&#xed;" horiz-adv-x="200" 
d="M59 578l51 142h111l-81 -142h-81zM58 0v490h84v-490h-84z" />
    <glyph glyph-name="icircumflex" unicode="&#xee;" horiz-adv-x="200" 
d="M-39 579l114 134h50l114 -134h-86l-53 59l-53 -59h-86zM58 0v490h84v-490h-84z" />
    <glyph glyph-name="idieresis" unicode="&#xef;" horiz-adv-x="200" 
d="M16 587q-24 0 -41.5 17.5t-17.5 41.5t17.5 41.5t41.5 17.5t41.5 -17.5t17.5 -41.5t-17.5 -41.5t-41.5 -17.5zM183 587q-24 0 -41.5 17.5t-17.5 41.5t17.5 41.5t41.5 17.5t41.5 -17.5t17.5 -41.5t-17.5 -41.5t-41.5 -17.5zM58 0v490h84v-490h-84z" />
    <glyph glyph-name="eth" unicode="&#xf0;" horiz-adv-x="594" 
d="M421 636q120 -122 120 -305q0 -343 -254 -343q-106 0 -174.5 71.5t-68.5 185.5q0 111 68 184t164 73q56 0 102.5 -24t67.5 -60h6q0 72 -83 164l-48 -50l-54 46l50 52q-26 22 -68 49l54 50q40 -27 65 -46l48 50l54 -46zM290 68q69 0 115.5 49t46.5 128t-47 128t-117 49
q-69 0 -114.5 -49t-45.5 -128t46 -128t116 -49z" />
    <glyph glyph-name="ntilde" unicode="&#xf1;" horiz-adv-x="523" 
d="M327 563q-31 0 -67 23t-56 23q-18 0 -31 -11t-13 -29h-69q0 52 29.5 83.5t74.5 31.5q32 0 67.5 -23t56.5 -23q18 0 30.5 11t12.5 29h70q0 -52 -30 -83.5t-75 -31.5zM58 0v490h78v-74h6q18 37 58.5 61.5t94.5 24.5q79 0 124.5 -53t45.5 -143v-306h-84v292q0 62 -29 96
t-85 34q-55 0 -90 -41.5t-35 -104.5v-276h-84z" />
    <glyph glyph-name="ograve" unicode="&#xf2;" horiz-adv-x="592" 
d="M255 578l-81 142h111l51 -142h-81zM296 -12q-107 0 -179.5 73.5t-72.5 183.5t72.5 183.5t179.5 73.5t179.5 -73.5t72.5 -183.5t-72.5 -183.5t-179.5 -73.5zM296 68q70 0 119 48t49 129t-49 129t-119 48t-119 -48t-49 -129t49 -129t119 -48z" />
    <glyph glyph-name="oacute" unicode="&#xf3;" horiz-adv-x="592" 
d="M255 578l51 142h111l-81 -142h-81zM296 -12q-107 0 -179.5 73.5t-72.5 183.5t72.5 183.5t179.5 73.5t179.5 -73.5t72.5 -183.5t-72.5 -183.5t-179.5 -73.5zM296 68q70 0 119 48t49 129t-49 129t-119 48t-119 -48t-49 -129t49 -129t119 -48z" />
    <glyph glyph-name="ocircumflex" unicode="&#xf4;" horiz-adv-x="592" 
d="M157 579l114 134h50l114 -134h-86l-53 59l-53 -59h-86zM296 -12q-107 0 -179.5 73.5t-72.5 183.5t72.5 183.5t179.5 73.5t179.5 -73.5t72.5 -183.5t-72.5 -183.5t-179.5 -73.5zM296 68q70 0 119 48t49 129t-49 129t-119 48t-119 -48t-49 -129t49 -129t119 -48z" />
    <glyph glyph-name="otilde" unicode="&#xf5;" horiz-adv-x="592" 
d="M361 563q-31 0 -67 23t-56 23q-18 0 -31 -11t-13 -29h-69q0 52 29.5 83.5t74.5 31.5q32 0 67.5 -23t56.5 -23q18 0 30.5 11t12.5 29h70q0 -52 -30 -83.5t-75 -31.5zM296 -12q-107 0 -179.5 73.5t-72.5 183.5t72.5 183.5t179.5 73.5t179.5 -73.5t72.5 -183.5t-72.5 -183.5
t-179.5 -73.5zM296 68q70 0 119 48t49 129t-49 129t-119 48t-119 -48t-49 -129t49 -129t119 -48z" />
    <glyph glyph-name="odieresis" unicode="&#xf6;" horiz-adv-x="592" 
d="M212 587q-24 0 -41.5 17.5t-17.5 41.5t17.5 41.5t41.5 17.5t41.5 -17.5t17.5 -41.5t-17.5 -41.5t-41.5 -17.5zM379 587q-24 0 -41.5 17.5t-17.5 41.5t17.5 41.5t41.5 17.5t41.5 -17.5t17.5 -41.5t-17.5 -41.5t-41.5 -17.5zM296 -12q-107 0 -179.5 73.5t-72.5 183.5
t72.5 183.5t179.5 73.5t179.5 -73.5t72.5 -183.5t-72.5 -183.5t-179.5 -73.5zM296 68q70 0 119 48t49 129t-49 129t-119 48t-119 -48t-49 -129t49 -129t119 -48z" />
    <glyph glyph-name="divide" unicode="&#xf7;" horiz-adv-x="555" 
d="M278 418q-24 0 -41.5 17.5t-17.5 41.5t17.5 41.5t41.5 17.5t41.5 -17.5t17.5 -41.5t-17.5 -41.5t-41.5 -17.5zM52 279v76h451v-76h-451zM278 97q-24 0 -41.5 17.5t-17.5 41.5t17.5 41.5t41.5 17.5t41.5 -17.5t17.5 -41.5t-17.5 -41.5t-41.5 -17.5z" />
    <glyph glyph-name="oslash" unicode="&#xf8;" horiz-adv-x="592" 
d="M457 445q91 -75 91 -200q0 -110 -72.5 -183.5t-179.5 -73.5q-50 0 -93 17l-40 -69l-68 39l40 70q-91 75 -91 200q0 110 72.5 183.5t179.5 73.5q50 0 93 -17l40 69l68 -39zM128 245q0 -78 49 -129l171 298q-26 8 -52 8q-70 0 -119 -48t-49 -129zM296 68q70 0 119 48
t49 129q0 78 -49 129l-171 -298q26 -8 52 -8z" />
    <glyph glyph-name="ugrave" unicode="&#xf9;" horiz-adv-x="523" 
d="M221 578l-81 142h111l51 -142h-81zM228 -12q-79 0 -124.5 53t-45.5 143v306h84v-292q0 -62 29 -96t85 -34q55 0 90 41.5t35 104.5v276h84v-490h-78v74h-6q-18 -37 -58.5 -61.5t-94.5 -24.5z" />
    <glyph glyph-name="uacute" unicode="&#xfa;" horiz-adv-x="523" 
d="M221 578l51 142h111l-81 -142h-81zM228 -12q-79 0 -124.5 53t-45.5 143v306h84v-292q0 -62 29 -96t85 -34q55 0 90 41.5t35 104.5v276h84v-490h-78v74h-6q-18 -37 -58.5 -61.5t-94.5 -24.5z" />
    <glyph glyph-name="ucircumflex" unicode="&#xfb;" horiz-adv-x="523" 
d="M123 579l114 134h50l114 -134h-86l-53 59l-53 -59h-86zM228 -12q-79 0 -124.5 53t-45.5 143v306h84v-292q0 -62 29 -96t85 -34q55 0 90 41.5t35 104.5v276h84v-490h-78v74h-6q-18 -37 -58.5 -61.5t-94.5 -24.5z" />
    <glyph glyph-name="udieresis" unicode="&#xfc;" horiz-adv-x="523" 
d="M178 587q-24 0 -41.5 17.5t-17.5 41.5t17.5 41.5t41.5 17.5t41.5 -17.5t17.5 -41.5t-17.5 -41.5t-41.5 -17.5zM345 587q-24 0 -41.5 17.5t-17.5 41.5t17.5 41.5t41.5 17.5t41.5 -17.5t17.5 -41.5t-17.5 -41.5t-41.5 -17.5zM228 -12q-79 0 -124.5 53t-45.5 143v306h84
v-292q0 -62 29 -96t85 -34q55 0 90 41.5t35 104.5v276h84v-490h-78v74h-6q-18 -37 -58.5 -61.5t-94.5 -24.5z" />
    <glyph glyph-name="yacute" unicode="&#xfd;" horiz-adv-x="496" 
d="M210 578l51 142h111l-81 -142h-81zM131 -210l76 210l-195 490h92l146 -379h6l136 379h92l-270 -700h-83z" />
    <glyph glyph-name="thorn" unicode="&#xfe;" horiz-adv-x="588" 
d="M58 -210v910h78v-282h6q21 36 67.5 60t102.5 24q96 0 164 -73t68 -184q0 -113 -66.5 -185t-164.5 -72q-51 0 -99 20t-72 55v-273h-84zM298 68q70 0 116 49t46 128t-45.5 128t-114.5 49q-70 0 -117 -49t-47 -128t46.5 -128t115.5 -49z" />
    <glyph glyph-name="ydieresis" unicode="&#xff;" horiz-adv-x="496" 
d="M167 587q-24 0 -41.5 17.5t-17.5 41.5t17.5 41.5t41.5 17.5t41.5 -17.5t17.5 -41.5t-17.5 -41.5t-41.5 -17.5zM334 587q-24 0 -41.5 17.5t-17.5 41.5t17.5 41.5t41.5 17.5t41.5 -17.5t17.5 -41.5t-17.5 -41.5t-41.5 -17.5zM131 -210l76 210l-195 490h92l146 -379h6
l136 379h92l-270 -700h-83z" />
    <glyph glyph-name="dotlessi" unicode="&#x131;" horiz-adv-x="200" 
d="M58 0v490h84v-490h-84z" />
    <glyph glyph-name="Lslash" unicode="&#x141;" horiz-adv-x="555" 
d="M150 86h359v-86h-451v230l-48 -28v88l48 28v382h92v-329l180 105v-88l-180 -105v-197z" />
    <glyph glyph-name="lslash" unicode="&#x142;" horiz-adv-x="300" 
d="M280 439v-88l-94 -55v-296h-84v248l-82 -48v88l82 48v364h84v-316z" />
    <glyph glyph-name="OE" unicode="&#x152;" horiz-adv-x="1140" 
d="M390 -12q-151 0 -247.5 102.5t-96.5 259.5t96.5 259.5t247.5 102.5q145 0 242 -97h9v85h445v-86h-353v-226h319v-76h-319v-226h359v-86h-451v85h-9q-97 -97 -242 -97zM390 74q111 0 180.5 77.5t69.5 198.5t-69.5 198.5t-180.5 77.5t-180.5 -77.5t-69.5 -198.5
t69.5 -198.5t180.5 -77.5z" />
    <glyph glyph-name="oe" unicode="&#x153;" horiz-adv-x="975" 
d="M296 -12q-107 0 -179.5 73.5t-72.5 183.5t72.5 183.5t179.5 73.5q66 0 120.5 -29.5t88.5 -83.5q32 53 83.5 83t113.5 30q109 0 169 -67t60 -168q0 -18 -3 -33l-12 -13h-367q7 -73 52 -113t110 -40q94 0 138 86l69 -37q-25 -55 -76.5 -92t-130.5 -37q-140 0 -207 113
q-34 -54 -88 -83.5t-120 -29.5zM296 68q70 0 119 48t49 129t-49 129t-119 48t-119 -48t-49 -129t49 -129t119 -48zM553 295h291q-6 62 -46 94.5t-96 32.5t-96 -34t-53 -93z" />
    <glyph glyph-name="Scaron" unicode="&#x160;" horiz-adv-x="545" 
d="M253 788l-114 134h86l53 -59l53 59h86l-114 -134h-50zM280 -12q-82 0 -145.5 38t-94.5 113l78 58q20 -57 62 -90t100 -33q133 0 133 114q0 50 -34 80t-123 61q-80 28 -134.5 77t-54.5 123q0 81 62.5 132t149.5 51q153 0 214 -127l-73 -52q-44 95 -143 95q-50 0 -86 -24.5
t-36 -70.5q0 -47 39 -77t131 -63q180 -65 180 -198q0 -93 -67 -150t-158 -57z" />
    <glyph glyph-name="scaron" unicode="&#x161;" horiz-adv-x="446" 
d="M197 578l-114 134h86l53 -59l53 59h86l-114 -134h-50zM228 -12q-67 0 -118 31.5t-70 79.5l70 49q16 -34 46 -57t70 -23q42 0 67.5 18t25.5 52q0 35 -27 53t-99 38q-133 36 -133 138q0 63 50 99t115 36q120 0 167 -91l-61 -44q-39 57 -109 57q-37 0 -59.5 -17t-22.5 -42
q0 -16 8.5 -27.5t29.5 -21.5t37.5 -15.5t51.5 -15.5q136 -40 136 -141q0 -69 -49 -112.5t-126 -43.5z" />
    <glyph glyph-name="Ydieresis" unicode="&#x178;" horiz-adv-x="575" 
d="M205 797q-24 0 -41.5 17.5t-17.5 41.5t17.5 41.5t41.5 17.5t41.5 -17.5t17.5 -41.5t-17.5 -41.5t-41.5 -17.5zM372 797q-24 0 -41.5 17.5t-17.5 41.5t17.5 41.5t41.5 17.5t41.5 -17.5t17.5 -41.5t-17.5 -41.5t-41.5 -17.5zM160 0l88 210l-220 490h96l166 -378h6l158 378
h93l-294 -700h-93z" />
    <glyph glyph-name="Zcaron" unicode="&#x17d;" horiz-adv-x="562" 
d="M245 788l-114 134h86l53 -59l53 59h86l-114 -134h-50zM520 -1l-477 1v42h-1l333 565v6l-320 1v86l447 -1v-42l-333 -565v-6l351 -1v-86z" />
    <glyph glyph-name="zcaron" unicode="&#x17e;" horiz-adv-x="440" 
d="M193 578l-114 134h86l53 -59l53 59h86l-114 -134h-50zM42 0v60l240 344v6h-232v80h338v-60l-240 -344v-6h250v-80h-356z" />
    <glyph glyph-name="circumflex" unicode="&#x2c6;" horiz-adv-x="338" 
d="M30 579l114 134h50l114 -134h-86l-53 59l-53 -59h-86z" />
    <glyph glyph-name="caron" unicode="&#x2c7;" horiz-adv-x="338" 
d="M144 578l-114 134h86l53 -59l53 59h86l-114 -134h-50z" />
    <glyph glyph-name="breve" unicode="&#x2d8;" horiz-adv-x="257" 
d="M129 572q-44 0 -70.5 25.5t-28.5 67.5h55q2 -17 14 -29t30 -12t30 12t14 29h54q-2 -41 -29 -67t-69 -26z" />
    <glyph glyph-name="dotaccent" unicode="&#x2d9;" horiz-adv-x="172" 
d="M86 588q-23 0 -39.5 16.5t-16.5 39.5t16.5 39.5t39.5 16.5t39.5 -16.5t16.5 -39.5t-16.5 -39.5t-39.5 -16.5z" />
    <glyph glyph-name="ring" unicode="&#x2da;" horiz-adv-x="242" 
d="M121 554q-37 0 -64 27t-27 64t27 64t64 27t64 -27t27 -64t-27 -64t-64 -27zM121 598q19 0 33 14t14 33t-14 33t-33 14t-33 -14t-14 -33t14 -33t33 -14z" />
    <glyph glyph-name="ogonek" unicode="&#x2db;" horiz-adv-x="242" 
d="M134 -222q-48 0 -76 27t-28 68q0 44 29.5 77.5t76.5 49.5h52q-3 -2 -18 -13t-19 -14.5l-15 -13t-15 -15.5l-10 -15.5t-8 -19.5t-2 -21q0 -23 13 -36.5t33 -13.5q21 0 46 13l19 -53q-37 -20 -78 -20z" />
    <glyph glyph-name="tilde" unicode="&#x2dc;" horiz-adv-x="401" 
d="M266 563q-31 0 -67 23t-56 23q-18 0 -31 -11t-13 -29h-69q0 52 29.5 83.5t74.5 31.5q32 0 67.5 -23t56.5 -23q18 0 30.5 11t12.5 29h70q0 -52 -30 -83.5t-75 -31.5z" />
    <glyph glyph-name="hungarumlaut" unicode="&#x2dd;" horiz-adv-x="358" 
d="M30 578l51 142h105l-81 -142h-75zM172 578l51 142h105l-81 -142h-75z" />
    <glyph glyph-name="gravecomb" unicode="&#x300;" horiz-adv-x="0" 
d="M-95 578l-81 142h111l51 -142h-81z" />
    <glyph glyph-name="acutecomb" unicode="&#x301;" horiz-adv-x="0" 
d="M-176 578l51 142h111l-81 -142h-81z" />
    <glyph glyph-name="uni0302" unicode="&#x302;" horiz-adv-x="0" 
d="M-278 579l114 134h50l114 -134h-86l-53 59l-53 -59h-86z" />
    <glyph glyph-name="tildecomb" unicode="&#x303;" horiz-adv-x="0" 
d="M-121 563q-31 0 -67 23t-56 23q-18 0 -31 -11t-13 -29h-69q0 52 29.5 83.5t74.5 31.5q32 0 67.5 -23t56.5 -23q18 0 30.5 11t12.5 29h70q0 -52 -30 -83.5t-75 -31.5z" />
    <glyph glyph-name="uni0304" unicode="&#x304;" horiz-adv-x="0" 
d="M-272 636v64h282v-64h-282z" />
    <glyph glyph-name="uni0306" unicode="&#x306;" horiz-adv-x="0" 
d="M-88 572q-44 0 -70.5 25.5t-28.5 67.5h55q2 -17 14 -29t30 -12t30 12t14 29h54q-2 -41 -29 -67t-69 -26z" />
    <glyph glyph-name="uni0307" unicode="&#x307;" horiz-adv-x="0" 
d="M-46 588q-23 0 -39.5 16.5t-16.5 39.5t16.5 39.5t39.5 16.5t39.5 -16.5t16.5 -39.5t-16.5 -39.5t-39.5 -16.5z" />
    <glyph glyph-name="uni0308" unicode="&#x308;" horiz-adv-x="0" 
d="M-226 600q-24 0 -41.5 17.5t-17.5 41.5t17.5 41.5t41.5 17.5t41.5 -17.5t17.5 -41.5t-17.5 -41.5t-41.5 -17.5zM-59 600q-24 0 -41.5 17.5t-17.5 41.5t17.5 41.5t41.5 17.5t41.5 -17.5t17.5 -41.5t-17.5 -41.5t-41.5 -17.5z" />
    <glyph glyph-name="uni030A" unicode="&#x30a;" horiz-adv-x="0" 
d="M-81 554q-37 0 -64 27t-27 64t27 64t64 27t64 -27t27 -64t-27 -64t-64 -27zM-81 598q19 0 33 14t14 33t-14 33t-33 14t-33 -14t-14 -33t14 -33t33 -14z" />
    <glyph glyph-name="uni030B" unicode="&#x30b;" horiz-adv-x="0" 
d="M-288 578l51 142h105l-81 -142h-75zM-146 578l51 142h105l-81 -142h-75z" />
    <glyph glyph-name="uni030C" unicode="&#x30c;" horiz-adv-x="0" 
d="M-164 578l-114 134h86l53 -59l53 59h86l-114 -134h-50z" />
    <glyph glyph-name="uni0327" unicode="&#x327;" horiz-adv-x="0" 
d="M-87 -204q-45 0 -74 30l28 34q24 -20 46 -20q21 0 34 13t13 30q0 16 -8.5 26t-23.5 10q-24 0 -35 -23l-9 -4l-36 14l26 116l51 -6l-23 -67q10 13 36 13q32 0 52 -22.5t20 -57.5q0 -39 -27 -62.5t-70 -23.5z" />
    <glyph glyph-name="uni0328" unicode="&#x328;" horiz-adv-x="0" 
d="M-68 -222q-48 0 -76 27t-28 68q0 44 29.5 77.5t76.5 49.5h52q-3 -2 -18 -13t-19 -14.5l-15 -13t-15 -15.5l-10 -15.5t-8 -19.5t-2 -21q0 -23 13 -36.5t33 -13.5q21 0 46 13l19 -53q-37 -20 -78 -20z" />
    <glyph glyph-name="endash" unicode="&#x2013;" horiz-adv-x="534" 
d="M60 269v74h414v-74h-414z" />
    <glyph glyph-name="emdash" unicode="&#x2014;" horiz-adv-x="784" 
d="M60 269v74h664v-74h-664z" />
    <glyph glyph-name="quoteleft" unicode="&#x2018;" horiz-adv-x="208" 
d="M30 537l59 163h89l-59 -163h-89z" />
    <glyph glyph-name="quoteright" unicode="&#x2019;" horiz-adv-x="208" 
d="M178 700l-59 -163h-89l59 163h89z" />
    <glyph glyph-name="quotesinglbase" unicode="&#x201a;" horiz-adv-x="198" 
d="M20 -62l59 163h89l-59 -163h-89z" />
    <glyph glyph-name="quotedblleft" unicode="&#x201c;" horiz-adv-x="338" 
d="M30 537l59 163h79l-59 -163h-79zM170 537l59 163h79l-59 -163h-79z" />
    <glyph glyph-name="quotedblright" unicode="&#x201d;" horiz-adv-x="358" 
d="M30 537l59 163h89l-59 -163h-89zM180 537l59 163h89l-59 -163h-89z" />
    <glyph glyph-name="quotedblbase" unicode="&#x201e;" horiz-adv-x="358" 
d="M40 -63l59 163h89l-59 -163h-89zM190 -63l59 163h89l-59 -163h-89z" />
    <glyph glyph-name="dagger" unicode="&#x2020;" horiz-adv-x="341" 
d="M132 240v292h-98v70h98v98h77v-98h98v-70h-98v-292h-77z" />
    <glyph glyph-name="daggerdbl" unicode="&#x2021;" horiz-adv-x="341" 
d="M132 240v98h-98v70h98v124h-98v70h98v98h77v-98h98v-70h-98v-124h98v-70h-98v-98h-77z" />
    <glyph glyph-name="bullet" unicode="&#x2022;" horiz-adv-x="284" 
d="M142 254q-40 0 -68 28t-28 68t28 68t68 28t68 -28t28 -68t-28 -68t-68 -28z" />
    <glyph glyph-name="ellipsis" unicode="&#x2026;" horiz-adv-x="584" 
d="M112 -12q-24 0 -41.5 17.5t-17.5 41.5t17.5 41.5t41.5 17.5t41.5 -17.5t17.5 -41.5t-17.5 -41.5t-41.5 -17.5zM292 -12q-24 0 -41.5 17.5t-17.5 41.5t17.5 41.5t41.5 17.5t41.5 -17.5t17.5 -41.5t-17.5 -41.5t-41.5 -17.5zM472 -12q-24 0 -41.5 17.5t-17.5 41.5
t17.5 41.5t41.5 17.5t41.5 -17.5t17.5 -41.5t-17.5 -41.5t-41.5 -17.5z" />
    <glyph glyph-name="perthousand" unicode="&#x2030;" horiz-adv-x="964" 
d="M362 558q0 -69 -45 -112.5t-111 -43.5t-111 43.5t-45 112.5q0 67 45 110.5t111 43.5t111 -43.5t45 -110.5zM120 558q0 -42 23.5 -67.5t62.5 -25.5t62.5 25.5t23.5 67.5q0 41 -23.5 66t-62.5 25t-62.5 -25t-23.5 -66zM589 553l38 -57l-494 -349l-38 57zM758 298
q66 0 111 -43.5t45 -110.5q0 -69 -45 -112.5t-111 -43.5q-77 0 -121 54q-44 -54 -121 -54q-66 0 -111 43.5t-45 112.5q0 67 45 110.5t111 43.5q77 0 121 -54q44 54 121 54zM516 51q39 0 62.5 25.5t23.5 67.5q0 41 -23.5 66t-62.5 25t-62.5 -25t-23.5 -66q0 -42 23.5 -67.5
t62.5 -25.5zM758 51q39 0 62.5 25.5t23.5 67.5q0 41 -23.5 66t-62.5 25t-62.5 -25t-23.5 -66q0 -42 23.5 -67.5t62.5 -25.5z" />
    <glyph glyph-name="guilsinglleft" unicode="&#x2039;" horiz-adv-x="251" 
d="M137 100l-97 168v12l97 168h84l-101 -174l101 -174h-84z" />
    <glyph glyph-name="guilsinglright" unicode="&#x203a;" horiz-adv-x="251" 
d="M114 100h-84l101 174l-101 174h84l97 -168v-12z" />
    <glyph glyph-name="fraction" unicode="&#x2044;" horiz-adv-x="588" 
d="M30 0l437 700h91l-437 -700h-91z" />
    <glyph glyph-name="Euro" unicode="&#x20ac;" horiz-adv-x="742" 
d="M419 74q77 0 122 30t81 98l74 -52q-89 -163 -280 -162q-122 1 -211 72t-118 190h-69l37 65h22q-1 11 -1 35t1 35h-56l37 65h30q28 119 117.5 190.5t210.5 71.5q202 0 280 -160l-72 -49q-33 62 -81.5 92.5t-123.5 30.5q-85 0 -147 -47.5t-88 -128.5h280l-37 -65h-255
q-2 -22 -2 -35q0 -24 1 -35h290l-37 -65h-241q24 -83 85.5 -129.5t150.5 -46.5z" />
    <glyph glyph-name="trademark" unicode="&#x2122;" horiz-adv-x="874" 
d="M34 637v63h308v-63h-120v-346h-67v346h-121zM753 700h79v-409h-67v250l4 33l-123 -283h-63l-124 285l5 -35v-250h-67v409h79l138 -322z" />
    <glyph glyph-name="arrowleft" unicode="&#x2190;" horiz-adv-x="880" 
d="M242 131l-192 167l192 167v-132l588 -1v-70l-588 1v-132z" />
    <glyph glyph-name="arrowup" unicode="&#x2191;" horiz-adv-x="434" 
d="M182 -80v588h-132l167 192l167 -192h-132v-588h-70z" />
    <glyph glyph-name="arrowright" unicode="&#x2192;" horiz-adv-x="880" 
d="M638 131v132l-588 -1v70l588 1v132l192 -167z" />
    <glyph glyph-name="arrowdown" unicode="&#x2193;" horiz-adv-x="434" 
d="M217 -80l-167 192h132v588h70v-588h132z" />
    <glyph glyph-name="uni2196" unicode="&#x2196;" horiz-adv-x="677" 
d="M578 22l-417 415l-93 -93l-18 254l254 -18l-93 -93l416 -415z" />
    <glyph glyph-name="uni2197" unicode="&#x2197;" horiz-adv-x="676" 
d="M100 -3l-50 49l415 417l-93 93l254 18l-18 -254l-93 93z" />
    <glyph glyph-name="uni2198" unicode="&#x2198;" horiz-adv-x="677" 
d="M627 22l-254 18l93 93l-416 415l49 50l417 -415l93 93z" />
    <glyph glyph-name="uni2199" unicode="&#x2199;" horiz-adv-x="677" 
d="M50 22l18 254l93 -93l417 415l49 -50l-416 -415l93 -93z" />
    <glyph glyph-name="uni21A9" unicode="&#x21a9;" horiz-adv-x="851" 
d="M242 148l-192 167l192 167v-132l413 -1q76 0 76 58t-76 58h-118v70h116q71 0 109.5 -34t38.5 -94t-38.5 -94t-109.5 -34l-411 1v-132z" />
    <glyph glyph-name="uni21B0" unicode="&#x21b0;" horiz-adv-x="680" 
d="M242 383l388 -1v-382h-70v312l-318 1v-132l-192 167l192 167v-132z" />
    <glyph glyph-name="uni21B1" unicode="&#x21b1;" horiz-adv-x="680" 
d="M630 348l-192 -167v132l-318 -1v-312h-70v382l388 1v132z" />
    <glyph glyph-name="uni21B2" unicode="&#x21b2;" horiz-adv-x="680" 
d="M560 515h70v-382l-388 -1v-132l-192 167l192 167v-132l318 1v312z" />
    <glyph glyph-name="uni21B3" unicode="&#x21b3;" horiz-adv-x="680" 
d="M630 167l-192 -167v132l-388 1v382h70v-312l318 -1v132z" />
    <glyph glyph-name="uni21B4" unicode="&#x21b4;" horiz-adv-x="615" 
d="M433 179h132l-167 -192l-167 192h132l-1 318h-312v70h382z" />
    <glyph glyph-name="uni21C6" unicode="&#x21c6;" horiz-adv-x="910" 
d="M242 331l-192 167l192 167v-132l588 -1v-70l-588 1v-132zM668 31v132l-588 -1v70l588 1v132l192 -167z" />
    <glyph glyph-name="minus" unicode="&#x2212;" horiz-adv-x="555" 
d="M52 279v76h451v-76h-451z" />
    <glyph glyph-name="infinity" unicode="&#x221e;" horiz-adv-x="600" 
d="M438 421q71 0 106.5 -44.5t35.5 -104.5t-35.5 -104.5t-106.5 -44.5q-78 0 -138 70q-60 -70 -138 -70q-71 0 -106.5 44.5t-35.5 104.5t35.5 104.5t106.5 44.5q78 0 138 -70q60 70 138 70zM169 189q63 0 101 73v20q-38 73 -101 73q-39 0 -61 -25t-22 -58t22 -58t61 -25z
M431 189q39 0 60.5 24.5t21.5 58.5t-21.5 58.5t-60.5 24.5q-64 0 -101 -75v-16q37 -75 101 -75z" />
    <glyph glyph-name="approxequal" unicode="&#x2248;" horiz-adv-x="482" 
d="M316 285q-36 0 -77.5 26.5t-64.5 26.5q-22 0 -36.5 -12.5t-14.5 -33.5h-79q0 60 34 96.5t86 36.5q37 0 78 -26.5t65 -26.5q21 0 35.5 12.5t14.5 33.5h81q0 -60 -34.5 -96.5t-87.5 -36.5zM316 87q-36 0 -77.5 26.5t-64.5 26.5q-22 0 -36.5 -12.5t-14.5 -33.5h-79
q0 60 34 96.5t86 36.5q37 0 78 -26.5t65 -26.5q21 0 35.5 12.5t14.5 33.5h81q0 -60 -34.5 -96.5t-87.5 -36.5z" />
    <glyph glyph-name="notequal" unicode="&#x2260;" horiz-adv-x="555" 
d="M503 389h-149l-74 -128h223v-76h-266l-83 -144l-60 35l63 109h-105v76h148l74 128h-222v76h266l83 145l60 -35l-63 -110h105v-76z" />
    <glyph glyph-name="lessequal" unicode="&#x2264;" horiz-adv-x="600" 
d="M495 141l-443 167v90l443 167v-92l-272 -98l-60 -19v-6l60 -19l272 -98v-92zM503 -26h-451v76h451v-76z" />
    <glyph glyph-name="greaterequal" unicode="&#x2265;" horiz-adv-x="600" 
d="M60 141v92l272 98l60 19v6l-60 19l-272 98v92l443 -167v-90zM52 -26v76h451v-76h-451z" />
    <glyph glyph-name="filledbox" unicode="&#x25a0;" horiz-adv-x="800" 
d="M50 0v700h700v-700h-700z" />
    <glyph glyph-name="uni25A1" unicode="&#x25a1;" horiz-adv-x="800" 
d="M50 0v700h700v-700h-700zM128 78h544v544h-544v-544z" />
    <glyph glyph-name="triagup" unicode="&#x25b2;" horiz-adv-x="864" 
d="M50 0l382 700l382 -700h-764z" />
    <glyph glyph-name="uni25B3" unicode="&#x25b3;" horiz-adv-x="864" 
d="M50 0l382 700l382 -700h-764zM179 78h506l-253 464z" />
    <glyph glyph-name="circle" unicode="&#x25cb;" horiz-adv-x="822" 
d="M411 -12q-150 0 -255.5 106.5t-105.5 256.5q0 149 105.5 255t255.5 106t255.5 -106t105.5 -255q0 -150 -105.5 -256.5t-255.5 -106.5zM411 66q118 0 200.5 83.5t82.5 201.5q0 117 -82.5 200t-200.5 83t-200.5 -83t-82.5 -200q0 -118 82.5 -201.5t200.5 -83.5z" />
    <glyph glyph-name="uni25CF" unicode="&#x25cf;" horiz-adv-x="822" 
d="M411 -12q-150 0 -255.5 106.5t-105.5 256.5q0 149 105.5 255t255.5 106t255.5 -106t105.5 -255q0 -150 -105.5 -256.5t-255.5 -106.5z" />
    <glyph glyph-name="uni262E" unicode="&#x262e;" horiz-adv-x="822" 
d="M411 -12q-150 0 -255.5 106.5t-105.5 256.5q0 149 105.5 255t255.5 106t255.5 -106t105.5 -255q0 -150 -105.5 -256.5t-255.5 -106.5zM162 216l210 175v240q-104 -14 -174 -93.5t-70 -186.5q0 -73 34 -135zM660 216q34 62 34 135q0 107 -70 186.5t-174 93.5v-240zM372 69
v225l-168 -138q69 -73 168 -87zM450 69q99 14 168 87l-168 138v-225z" />
    <glyph glyph-name="uni2713" unicode="&#x2713;" horiz-adv-x="904" 
d="M276 0l-226 216l49 57l173 -168l526 595l56 -49z" />
    <glyph glyph-name="uni2715" unicode="&#x2715;" horiz-adv-x="733" 
d="M105 0l-55 49l267 301l-267 301l56 49l261 -294l260 294l56 -49l-267 -301l267 -301l-55 -49l-261 295z" />
    <glyph glyph-name="uni2780" unicode="&#x2780;" horiz-adv-x="821" 
d="M408 -12q-151 0 -256.5 106t-105.5 256t105.5 256t256.5 106q150 0 256 -106t106 -256t-106 -256t-256 -106zM409 70q116 0 197.5 82t81.5 198t-81.5 198t-197.5 82q-117 0 -198.5 -82t-81.5 -198t81.5 -198t198.5 -82zM376 200v197l-28 -29l-48 48l96 96h50v-312h-70z
" />
    <glyph glyph-name="uni2781" unicode="&#x2781;" horiz-adv-x="821" 
d="M408 712q150 0 256 -106t106 -256t-106 -256t-256 -106q-151 0 -256.5 106t-105.5 256t105.5 256t256.5 106zM409 70q116 0 197.5 82t81.5 198t-81.5 198t-197.5 82q-117 0 -198.5 -82t-81.5 -198t81.5 -198t198.5 -82zM468 319l-49 -55h94v-64h-203v38l98 108
q24 27 31 41.5t7 32.5q0 14 -11 23.5t-29 9.5q-37 0 -52 -44l-53 32q12 36 40.5 56t65.5 20q46 0 75.5 -27.5t29.5 -70.5q0 -51 -44 -100z" />
    <glyph glyph-name="uni2782" unicode="&#x2782;" horiz-adv-x="821" 
d="M408 -12q-151 0 -256.5 106t-105.5 256t105.5 256t256.5 106q150 0 256 -106t106 -256t-106 -256t-256 -106zM409 70q116 0 197.5 82t81.5 198t-81.5 198t-197.5 82q-117 0 -198.5 -82t-81.5 -198t81.5 -198t198.5 -82zM411 195q-34 0 -63.5 18t-39.5 47l47 36
q16 -41 56 -41q21 0 33.5 12.5t12.5 35.5q0 19 -11.5 32t-28.5 13q-22 0 -36 -14l-34 35l74 83h-98v60h181v-42l-58 -67q31 -7 52.5 -33.5t21.5 -61.5q0 -48 -32 -80.5t-77 -32.5z" />
    <glyph glyph-name="uni2783" unicode="&#x2783;" horiz-adv-x="821" 
d="M408 -12q-151 0 -256.5 106t-105.5 256t105.5 256t256.5 106q150 0 256 -106t106 -256t-106 -256t-256 -106zM409 70q116 0 197.5 82t81.5 198t-81.5 198t-197.5 82q-117 0 -198.5 -82t-81.5 -198t81.5 -198t198.5 -82zM405 200v64h-145v50l159 198h49v-190h41v-58h-41
v-64h-63zM337 322h68v87z" />
    <glyph glyph-name="uni2784" unicode="&#x2784;" horiz-adv-x="821" 
d="M408 -12q-151 0 -256.5 106t-105.5 256t105.5 256t256.5 106q150 0 256 -106t106 -256t-106 -256t-256 -106zM409 70q116 0 197.5 82t81.5 198t-81.5 198t-197.5 82q-117 0 -198.5 -82t-81.5 -198t81.5 -198t198.5 -82zM402 195q-39 0 -69 19t-43 46l53 33q17 -38 59 -38
q24 0 37.5 14.5t13.5 39.5q0 20 -13.5 34.5t-37.5 14.5q-31 0 -50 -27l-55 21l30 160h180v-61h-128l-9 -42q16 9 42 9q49 0 79 -30.5t30 -78.5t-31.5 -81t-87.5 -33z" />
    <glyph glyph-name="uni2785" unicode="&#x2785;" horiz-adv-x="821" 
d="M408 -12q-151 0 -256.5 106t-105.5 256t105.5 256t256.5 106q150 0 256 -106t106 -256t-106 -256t-256 -106zM409 70q116 0 197.5 82t81.5 198t-81.5 198t-197.5 82q-117 0 -198.5 -82t-81.5 -198t81.5 -198t198.5 -82zM404 195q-51 0 -85 41t-34 105q0 76 37 126t93 50
q73 0 101 -52l-45 -36q-19 30 -58 30q-24 0 -40 -21t-18 -54q24 22 61 22q50 0 77.5 -28t27.5 -73q0 -47 -30.5 -78.5t-86.5 -31.5zM403 253q25 0 40.5 15t15.5 37q0 18 -14 31t-37 13q-16 0 -32 -11t-22 -26q1 -26 16.5 -42.5t32.5 -16.5z" />
    <glyph glyph-name="uni2786" unicode="&#x2786;" horiz-adv-x="821" 
d="M408 712q150 0 256 -106t106 -256t-106 -256t-256 -106q-151 0 -256.5 106t-105.5 256t105.5 256t256.5 106zM409 70q116 0 197.5 82t81.5 198t-81.5 198t-197.5 82q-117 0 -198.5 -82t-81.5 -198t81.5 -198t198.5 -82zM301 451v61h213v-47l-109 -265h-66l106 251h-144z
" />
    <glyph glyph-name="uni2787" unicode="&#x2787;" horiz-adv-x="821" 
d="M408 712q150 0 256 -106t106 -256t-106 -256t-256 -106q-151 0 -256.5 106t-105.5 256t105.5 256t256.5 106zM409 70q116 0 197.5 82t81.5 198t-81.5 198t-197.5 82q-117 0 -198.5 -82t-81.5 -198t81.5 -198t198.5 -82zM489 364q35 -23 35 -67q0 -45 -33 -73.5t-80 -28.5
q-48 0 -81 29t-33 70q0 43 34 70q-26 24 -26 62q0 39 30.5 65t72.5 26q48 0 76.5 -26t28.5 -62t-24 -65zM408 462q-19 0 -31 -10.5t-12 -27.5q0 -13 13 -23.5t34 -12.5q3 0 9.5 -1t9.5 -1q19 16 19 40q0 17 -12 26.5t-30 9.5zM411 255q21 0 35.5 11t14.5 27q0 38 -56 43
l-18 3q-27 -20 -27 -43q0 -18 13.5 -29.5t37.5 -11.5z" />
    <glyph glyph-name="uni2788" unicode="&#x2788;" horiz-adv-x="821" 
d="M408 -12q-151 0 -256.5 106t-105.5 256t105.5 256t256.5 106q150 0 256 -106t106 -256t-106 -256t-256 -106zM409 70q116 0 197.5 82t81.5 198t-81.5 198t-197.5 82q-117 0 -198.5 -82t-81.5 -198t81.5 -198t198.5 -82zM412 517q51 0 85 -41t34 -105q0 -76 -37 -126
t-93 -50q-73 0 -101 52l45 36q19 -30 58 -30q24 0 40 21t18 54q-24 -22 -61 -22q-50 0 -77.5 28t-27.5 73q0 47 30.5 78.5t86.5 31.5zM413 459q-25 0 -40.5 -15t-15.5 -37q0 -18 14 -31t37 -13q16 0 32 11t22 26q-1 26 -16.5 42.5t-32.5 16.5z" />
    <glyph glyph-name="uniE000" unicode="&#xe000;" horiz-adv-x="615" 
d="M565 458h-312l-1 -318h132l-167 -192l-167 192h132l1 388h382v-70z" />
    <glyph glyph-name="uniE001" unicode="&#xe001;" horiz-adv-x="958" 
d="M412 -12q-150 0 -256 106t-106 261q0 151 99.5 254t249.5 103q149 0 244 -109l-48 -44q-75 89 -195 89q-124 0 -205.5 -84t-81.5 -209q0 -129 87 -216t211 -87t210.5 87.5t87.5 213.5h-135l167 192l167 -192h-135q-1 -152 -106 -258.5t-255 -106.5z" />
    <glyph glyph-name="uniE002" unicode="&#xe002;" horiz-adv-x="1098" 
d="M217 155l-167 192h135q1 152 106 258.5t255 106.5q98 0 182 -48l-28 -58q-70 42 -153 42q-124 0 -210.5 -87.5t-87.5 -213.5h135zM552 -12q-98 0 -182 48l28 58q70 -42 153 -42q124 0 210.5 87.5t87.5 213.5h-135l167 192l167 -192h-135q-1 -152 -106 -258.5t-255 -106.5
z" />
    <glyph glyph-name="O.ss01" 
d="M390 -12q-151 0 -247.5 102.5t-96.5 259.5q0 141 99 243l-14 14q43 48 112.5 76.5t146.5 28.5q151 0 247.5 -102.5t96.5 -259.5t-96.5 -259.5t-247.5 -102.5zM390 74q111 0 180.5 77.5t69.5 198.5t-69.5 198.5t-180.5 77.5q-60 0 -112 -24t-82 -59l14 -14
q-70 -75 -70 -179q0 -121 69.5 -198.5t180.5 -77.5z" />
    <glyph glyph-name="Oacute.ss01" 
d="M349 788l51 142h111l-81 -142h-81zM390 -12q-151 0 -247.5 102.5t-96.5 259.5q0 141 99 243l-14 14q43 48 112.5 76.5t146.5 28.5q151 0 247.5 -102.5t96.5 -259.5t-96.5 -259.5t-247.5 -102.5zM390 74q111 0 180.5 77.5t69.5 198.5t-69.5 198.5t-180.5 77.5
q-60 0 -112 -24t-82 -59l14 -14q-70 -75 -70 -179q0 -121 69.5 -198.5t180.5 -77.5z" />
    <glyph glyph-name="Ocircumflex.ss01" 
d="M251 789l114 134h50l114 -134h-86l-53 59l-53 -59h-86zM390 -12q-151 0 -247.5 102.5t-96.5 259.5q0 141 99 243l-14 14q43 48 112.5 76.5t146.5 28.5q151 0 247.5 -102.5t96.5 -259.5t-96.5 -259.5t-247.5 -102.5zM390 74q111 0 180.5 77.5t69.5 198.5t-69.5 198.5
t-180.5 77.5q-60 0 -112 -24t-82 -59l14 -14q-70 -75 -70 -179q0 -121 69.5 -198.5t180.5 -77.5z" />
    <glyph glyph-name="Odieresis.ss01" 
d="M306 797q-24 0 -41.5 17.5t-17.5 41.5t17.5 41.5t41.5 17.5t41.5 -17.5t17.5 -41.5t-17.5 -41.5t-41.5 -17.5zM473 797q-24 0 -41.5 17.5t-17.5 41.5t17.5 41.5t41.5 17.5t41.5 -17.5t17.5 -41.5t-17.5 -41.5t-41.5 -17.5zM390 -12q-151 0 -247.5 102.5t-96.5 259.5
q0 141 99 243l-14 14q43 48 112.5 76.5t146.5 28.5q151 0 247.5 -102.5t96.5 -259.5t-96.5 -259.5t-247.5 -102.5zM390 74q111 0 180.5 77.5t69.5 198.5t-69.5 198.5t-180.5 77.5q-60 0 -112 -24t-82 -59l14 -14q-70 -75 -70 -179q0 -121 69.5 -198.5t180.5 -77.5z" />
    <glyph glyph-name="Ograve.ss01" 
d="M349 788l-81 142h111l51 -142h-81zM390 -12q-151 0 -247.5 102.5t-96.5 259.5q0 141 99 243l-14 14q43 48 112.5 76.5t146.5 28.5q151 0 247.5 -102.5t96.5 -259.5t-96.5 -259.5t-247.5 -102.5zM390 74q111 0 180.5 77.5t69.5 198.5t-69.5 198.5t-180.5 77.5
q-60 0 -112 -24t-82 -59l14 -14q-70 -75 -70 -179q0 -121 69.5 -198.5t180.5 -77.5z" />
    <glyph glyph-name="Oslash.ss01" 
d="M605 639q61 -49 95 -124t34 -165q0 -157 -96.5 -259.5t-247.5 -102.5q-76 0 -145 30l-47 -82l-72 41l49 84q-61 49 -95 124t-34 165q0 141 99 243l-14 14q43 48 112.5 76.5t146.5 28.5q76 0 145 -30l47 82l72 -41zM140 350q0 -132 81 -210l269 466q-46 20 -100 20
q-60 0 -112 -24t-82 -59l14 -14q-70 -75 -70 -179zM390 74q111 0 180.5 77.5t69.5 198.5q0 132 -81 210l-269 -466q46 -20 100 -20z" />
    <glyph glyph-name="Otilde.ss01" 
d="M455 773q-31 0 -67 23t-56 23q-18 0 -31 -11t-13 -29h-69q0 52 29.5 83.5t74.5 31.5q32 0 67.5 -23t56.5 -23q18 0 30.5 11t12.5 29h70q0 -52 -30 -83.5t-75 -31.5zM390 -12q-151 0 -247.5 102.5t-96.5 259.5q0 141 99 243l-14 14q43 48 112.5 76.5t146.5 28.5
q151 0 247.5 -102.5t96.5 -259.5t-96.5 -259.5t-247.5 -102.5zM390 74q111 0 180.5 77.5t69.5 198.5t-69.5 198.5t-180.5 77.5q-60 0 -112 -24t-82 -59l14 -14q-70 -75 -70 -179q0 -121 69.5 -198.5t180.5 -77.5z" />
    <glyph glyph-name="Q.ss01" 
d="M762 62l-75 -70l-76 76q-41 -39 -102.5 -59.5t-118.5 -20.5q-153 0 -248.5 102t-95.5 260q0 157 96.5 259.5t247.5 102.5q148 0 246 -101.5t98 -239.5q0 -117 -71 -208zM390 74q39 0 84.5 15t71.5 41l-13 15q44 34 75.5 92.5t31.5 122.5q0 114 -70 190t-180 76
q-111 0 -180.5 -77.5t-69.5 -198.5q0 -123 70 -199.5t180 -76.5z" />
    </font>
</defs>
</svg>
